<?xml version="1.0" standalone="no"?>
<!DOCTYPE svg PUBLIC "-//W3C//DTD SVG 20010904//EN"
 "http://www.w3.org/TR/2001/REC-SVG-20010904/DTD/svg10.dtd">
<svg version="1.0" xmlns="http://www.w3.org/2000/svg"
 width="300.000000pt" height="300.000000pt" viewBox="25 25 225.000000 225.000000"
 preserveAspectRatio="xMidYMid meet">
<metadata>
Created by potrace 1.10, written by Peter Selinger 2001-2011
</metadata>
<g transform="translate(0.000000,300.000000) scale(0.100000,-0.100000)"
fill="#FFFFFF" stroke="none">
<path d="M935 2608 c-11 -6 -31 -21 -45 -33 -14 -12 -38 -25 -54 -29 -19 -5
-32 -17 -39 -36 -6 -17 -16 -30 -22 -30 -33 0 -85 -118 -85 -191 0 -31 28 -77
50 -84 30 -9 24 -23 -12 -30 -51 -11 -78 -32 -78 -62 0 -15 -7 -35 -17 -45
-11 -12 -17 -39 -18 -84 -2 -56 0 -69 22 -94 31 -38 44 -84 37 -132 -5 -31 -2
-44 20 -72 14 -19 26 -39 26 -45 0 -18 31 -41 56 -41 13 0 24 -5 24 -12 0 -7
12 -24 26 -39 18 -19 26 -37 24 -56 -2 -15 -3 -62 -3 -103 0 -69 5 -89 70
-255 96 -245 114 -280 167 -312 l43 -26 -13 -44 c-22 -74 -35 -201 -28 -274
10 -104 20 -83 16 34 -2 77 0 98 8 87 9 -12 10 -8 5 16 -7 38 13 124 28 121
13 -2 57 -51 57 -63 0 -4 -11 3 -25 16 -14 13 -25 19 -25 13 0 -5 9 -18 20
-28 11 -10 20 -26 20 -37 0 -10 5 -18 10 -18 6 0 10 5 10 11 0 6 7 17 15 26
18 17 11 51 -14 71 -9 7 1 5 21 -4 35 -16 36 -19 22 -38 -20 -29 -17 -46 7
-46 16 0 20 5 16 19 -2 10 -1 25 3 32 6 9 -17 30 -78 71 -48 32 -86 62 -86 66
1 4 -14 17 -33 29 -19 13 -31 18 -27 11 4 -7 3 -8 -5 -4 -6 4 -9 11 -6 16 8
13 -17 60 -28 53 -6 -4 -8 2 -5 15 4 14 2 20 -5 15 -7 -4 -8 0 -4 11 5 11 3
15 -5 10 -7 -5 -9 0 -6 14 4 12 3 20 -1 17 -13 -8 -124 305 -129 362 -5 57 15
173 29 173 5 0 6 6 4 13 -3 7 9 16 30 23 37 12 47 3 18 -16 -17 -11 -17 -11 1
-6 14 5 17 3 11 -11 -17 -42 -17 -93 0 -140 22 -57 30 -68 44 -58 8 4 4 13
-11 25 -15 13 -18 19 -9 20 11 0 11 4 -3 19 -16 18 -16 18 10 13 19 -3 25 -1
20 7 -4 6 -19 11 -33 11 -34 0 -27 5 17 14 21 3 30 3 21 -3 -9 -6 -10 -10 -2
-16 9 -5 9 -10 0 -21 -9 -11 -8 -14 3 -14 10 0 14 11 13 33 0 17 4 36 10 40 6
5 1 6 -10 2 -37 -14 -75 -17 -75 -7 0 6 6 37 14 69 22 89 31 243 14 244 -7 1
-25 2 -41 3 -23 3 -26 0 -21 -16 6 -20 -14 -22 -29 -3 -5 6 -6 -1 -2 -15 6
-24 5 -24 -10 3 -18 31 -21 32 -29 11 -4 -10 -2 -13 6 -8 8 5 9 2 5 -9 -4 -10
-2 -16 5 -14 6 1 12 -3 15 -10 3 -8 -3 -11 -16 -8 -15 3 -19 -1 -16 -16 2 -11
0 -17 -6 -14 -14 9 -11 -3 9 -32 12 -19 13 -25 3 -19 -10 6 -12 5 -7 -3 4 -6
12 -9 17 -6 5 4 8 -5 7 -18 -1 -13 -8 -24 -15 -24 -10 0 -10 4 -1 16 10 13 10
14 -2 4 -20 -18 -21 -41 -2 -39 12 1 17 -8 17 -27 1 -26 0 -27 -12 -11 -7 9
-10 21 -6 27 3 6 1 7 -5 3 -6 -3 -16 3 -23 15 -8 17 -8 23 2 29 7 5 13 20 14
35 0 20 -3 25 -17 22 -10 -3 -21 -1 -24 4 -3 5 -16 9 -29 9 -13 0 -27 5 -30
10 -3 6 2 10 13 10 25 0 31 7 25 31 -3 10 -13 19 -23 19 -10 0 -25 10 -34 23
l-17 22 13 -25 c7 -14 11 -28 10 -31 -1 -4 9 -5 21 -3 21 4 21 4 2 -5 -19 -9
-18 -10 5 -11 23 -1 21 -3 -19 -16 -11 -3 -11 -7 -1 -19 8 -9 8 -15 2 -15 -15
0 -52 55 -51 77 0 12 6 7 15 -15 8 -18 18 -31 23 -28 5 3 0 23 -10 43 -10 21
-20 56 -22 78 -4 34 -3 37 8 21 8 -10 18 -15 24 -11 7 4 8 0 4 -11 -4 -11 -2
-15 7 -12 20 6 21 37 1 33 -10 -2 -27 10 -40 26 -13 16 -27 27 -31 24 -5 -3
-16 5 -24 17 -19 26 -21 42 -5 32 9 -5 10 1 5 19 -14 57 45 197 84 197 6 0 24
-16 41 -35 17 -19 36 -32 42 -28 6 4 7 1 2 -7 -6 -9 -4 -11 5 -5 10 6 10 10
-2 19 -8 6 -13 17 -10 25 3 8 0 11 -6 7 -11 -7 -26 59 -17 74 3 5 -1 7 -9 4
-15 -6 -56 28 -56 47 0 6 8 1 19 -12 l18 -23 -2 30 c-1 17 -7 28 -14 26 -8 -2
-10 5 -6 20 5 22 5 21 -9 -2 -9 -14 -15 -20 -16 -14 0 18 21 74 29 74 4 0 6
17 5 38 -2 21 0 26 3 13 7 -35 33 -72 46 -64 6 3 7 1 3 -5 -8 -13 32 -33 62
-31 12 0 9 4 -8 12 -55 26 -90 67 -90 105 0 23 19 42 42 42 11 0 15 5 12 14
-7 19 44 58 68 51 12 -4 18 -1 18 9 0 21 57 56 91 56 36 0 115 -36 123 -56 9
-23 -3 -37 -20 -23 -11 9 -14 8 -14 -2 -1 -8 -8 -2 -16 14 -18 33 -23 34 -17
3 4 -19 -4 -34 -35 -63 -22 -21 -43 -52 -47 -68 -3 -17 -10 -37 -14 -45 -10
-19 -54 -25 -81 -10 -12 6 -24 9 -27 6 -4 -3 19 -17 50 -31 32 -13 57 -27 57
-30 0 -4 -6 -3 -12 1 -10 6 -10 4 0 -8 7 -9 9 -23 5 -36 -8 -20 -9 -20 -42 -3
-27 14 -30 19 -17 24 9 4 15 3 12 -2 -3 -5 1 -11 9 -15 26 -10 27 14 0 26 -21
9 -31 9 -46 0 -27 -17 -34 -15 -18 5 11 14 11 15 1 9 -9 -5 -25 0 -43 13 -16
12 -29 17 -29 12 0 -6 12 -17 28 -25 19 -11 22 -15 10 -16 -18 0 -44 -37 -33
-48 3 -3 8 4 12 16 6 25 6 25 56 11 39 -11 53 -34 15 -25 -14 4 -11 0 7 -8 20
-9 34 -11 42 -4 8 6 18 6 31 -1 16 -9 19 -6 19 20 0 37 23 62 60 63 16 1 27 6
26 13 -4 21 32 33 94 31 69 -2 107 16 141 68 14 21 31 34 45 35 21 1 21 1 -3
9 -22 6 -23 8 -7 15 15 6 16 10 5 16 -20 13 19 12 43 -1 28 -16 24 -27 -22
-55 -33 -21 -40 -31 -37 -52 2 -15 10 -28 18 -31 12 -4 13 -2 3 9 -7 7 -13 20
-13 29 0 12 2 12 9 1 6 -9 11 -10 15 -2 4 6 5 15 2 20 -3 5 1 11 9 14 11 5 12
1 6 -16 -5 -12 -12 -47 -16 -77 -4 -30 -10 -49 -12 -43 -6 16 -33 -9 -33 -29
1 -8 6 -6 15 6 8 11 15 15 15 8 0 -6 -12 -19 -26 -29 -20 -12 -30 -14 -43 -6
-11 7 -23 7 -34 2 -24 -14 -61 -1 -93 32 -26 27 -84 43 -69 18 4 -6 13 -8 21
-5 7 3 18 -3 23 -13 15 -27 -13 -61 -50 -61 -22 0 -32 -7 -41 -25 -14 -32 -17
-31 -51 5 -16 17 -32 30 -37 30 -10 0 -7 -27 5 -37 4 -4 5 -1 1 7 -4 8 2 4 13
-9 12 -13 21 -29 21 -36 0 -8 9 -10 25 -7 14 2 25 9 25 14 0 8 59 38 75 38 3
0 0 -9 -7 -19 -6 -11 -20 -18 -30 -16 -10 2 -16 0 -13 -6 4 -5 -1 -12 -9 -15
-9 -3 -16 -10 -16 -16 0 -5 5 -6 12 -2 7 4 8 3 4 -5 -4 -6 -11 -9 -16 -6 -5 3
-18 -7 -29 -21 -12 -15 -21 -21 -21 -13 0 8 -5 5 -14 -7 -11 -14 -11 -21 -3
-26 11 -7 2 -12 -16 -9 -5 1 -5 -4 -1 -10 4 -8 3 -9 -5 -5 -6 4 -14 0 -17 -8
-3 -9 -11 -13 -17 -9 -6 4 -7 1 -2 -7 5 -8 4 -11 -2 -7 -5 3 -10 0 -10 -8 0
-13 3 -13 17 0 26 23 36 18 14 -7 -11 -13 -26 -36 -32 -52 -16 -35 -27 -27
-17 11 5 15 9 36 9 46 1 10 9 25 19 32 10 7 14 16 8 19 -5 3 -16 -1 -25 -9 -8
-8 -17 -11 -21 -6 -3 5 0 13 6 16 5 4 8 13 5 21 -3 8 0 14 6 14 6 0 20 7 30
17 27 25 34 8 7 -19 -13 -13 -22 -22 -20 -21 2 2 10 -2 16 -7 9 -7 17 -3 30
16 9 15 12 23 6 20 -6 -4 -11 -3 -11 3 0 6 9 15 20 21 14 8 20 8 20 0 0 -6 5
-8 11 -4 7 4 7 9 2 13 -6 3 -16 23 -22 44 -7 20 -17 34 -22 31 -6 -3 -20 2
-32 13 -21 18 -21 18 1 -11 33 -43 14 -55 -21 -13 -17 23 -37 37 -50 37 -18
-1 -15 -4 11 -15 17 -8 32 -19 32 -25 0 -6 -6 -8 -12 -4 -7 4 -4 -4 8 -17 23
-27 21 -58 -4 -60 -9 -1 -24 -2 -32 -3 -8 -1 -21 3 -27 8 -9 5 -13 4 -13 -5 0
-7 -7 -3 -16 9 -21 30 -77 28 -82 -3 -4 -19 -3 -19 10 -1 19 24 49 17 67 -16
12 -21 13 -33 3 -64 -6 -22 -13 -56 -16 -78 -5 -36 -4 -38 13 -22 13 12 17 28
15 53 -3 45 11 78 22 50 3 -10 4 -32 0 -50 -4 -23 -3 -28 4 -17 5 8 10 26 10
40 0 19 2 22 9 11 6 -10 5 -27 -4 -48 -8 -18 -10 -33 -6 -33 5 0 12 12 15 26
4 15 9 25 11 22 6 -5 -21 -117 -30 -126 -3 -4 -4 7 0 23 l7 30 -19 -34 c-24
-46 -47 -60 -73 -43 -12 7 -20 8 -20 2 0 -6 13 -13 29 -16 20 -4 28 -11 24
-20 -3 -9 1 -14 12 -14 9 0 13 5 10 10 -3 6 0 10 7 10 10 0 10 2 -1 9 -9 6
-10 11 -2 15 6 4 11 4 11 -1 0 -4 5 -1 10 7 9 15 9 -90 -1 -117 -2 -6 1 -13 6
-15 14 -4 36 65 22 73 -18 12 -1 96 27 129 14 17 26 40 26 50 0 10 13 28 30
40 16 11 38 41 49 66 12 27 29 48 44 53 13 5 34 22 46 37 11 15 21 22 21 16 0
-8 8 -8 23 -3 12 5 22 15 21 23 -1 11 9 13 50 7 45 -6 56 -4 93 21 38 24 46
26 78 16 27 -8 35 -16 35 -34 0 -49 125 -149 160 -127 19 12 37 -14 35 -52 -2
-51 11 -78 31 -62 9 8 14 8 14 1 0 -6 10 -20 22 -32 20 -18 23 -19 39 -4 10 9
17 21 16 27 -1 6 7 12 18 14 20 3 20 3 0 -6 -11 -5 -15 -10 -9 -10 14 -1 6
-51 -8 -51 -10 0 19 -42 62 -90 18 -20 26 -41 27 -74 2 -26 7 -55 13 -65 6
-12 5 -22 -2 -29 -6 -6 -12 -32 -14 -59 -3 -51 15 -93 41 -93 9 0 16 10 16 23
1 16 2 18 6 5 6 -25 20 -22 38 6 10 15 14 33 9 50 -4 17 -1 31 10 41 17 18 22
50 6 40 -6 -3 -10 -12 -10 -20 0 -7 -7 -15 -15 -19 -8 -3 -12 -12 -9 -21 4 -8
1 -15 -6 -15 -9 0 -11 -10 -6 -31 5 -27 4 -30 -9 -19 -12 10 -16 8 -24 -11
l-9 -24 -11 28 c-14 37 -14 54 2 60 10 4 10 6 0 6 -7 1 -13 12 -13 26 0 25 14
33 25 15 9 -14 26 -12 22 2 -1 7 -12 24 -24 38 -27 29 -29 42 -6 33 11 -4 14
-3 9 5 -4 7 -2 12 5 12 7 0 4 6 -6 14 -11 8 -23 12 -27 10 -5 -3 -8 4 -8 15 0
21 39 34 86 29 19 -2 20 -5 12 -30 -11 -31 -3 -78 13 -78 6 0 8 4 4 9 -11 18
28 81 55 88 45 12 115 9 113 -4 -2 -7 2 -12 8 -10 6 1 14 -4 17 -12 3 -9 0
-11 -8 -6 -9 5 -11 4 -6 -4 4 -6 11 -9 15 -6 5 2 8 -13 8 -35 0 -22 6 -46 13
-55 7 -9 9 -22 5 -32 -5 -10 -10 -29 -12 -42 -6 -37 -52 -119 -71 -126 -9 -3
-17 -5 -18 -3 0 2 -15 -9 -33 -24 -18 -16 -40 -28 -49 -28 -15 0 -15 2 -2 10
9 6 10 10 3 10 -6 0 -14 -4 -18 -10 -3 -5 -13 -6 -22 -3 -11 4 -14 3 -9 -5 4
-7 14 -12 22 -12 16 0 17 -4 5 -28 -5 -9 -14 -39 -20 -67 -7 -27 -22 -60 -34
-73 -32 -35 -180 -121 -218 -129 l-34 -6 25 22 c19 17 13 15 -30 -8 -59 -32
-174 -66 -190 -56 -6 3 -10 -1 -10 -9 0 -13 12 -16 60 -16 33 0 60 4 60 10 0
6 -8 10 -17 11 -13 0 -11 3 7 10 25 10 80 -5 67 -18 -4 -3 -13 0 -21 7 -9 6
-21 10 -28 8 -7 -3 1 -12 20 -22 36 -19 43 -31 11 -21 -15 5 -19 4 -15 -4 5
-8 0 -8 -19 -1 -37 14 -42 12 -19 -6 19 -15 19 -16 -1 -8 -11 4 -33 8 -50 8
-16 1 -40 5 -53 10 -13 4 -28 4 -35 -2 -7 -5 -32 -12 -57 -16 -59 -9 -131 -36
-124 -47 3 -5 -9 -6 -26 -3 -19 4 -30 2 -30 -5 0 -6 -10 -11 -22 -11 -14 0
-19 -3 -12 -10 6 -6 39 -2 94 11 47 12 110 25 140 29 45 6 49 8 18 9 -20 0
-40 6 -44 12 -4 7 0 9 12 6 11 -3 53 -8 94 -11 58 -4 66 -3 35 4 -38 8 -37 8
15 5 54 -3 95 9 363 109 36 14 37 14 38 -7 1 -17 2 -18 6 -4 2 9 9 17 14 17 5
0 9 12 10 28 0 15 3 21 6 13 4 -9 12 0 24 25 19 41 23 76 10 108 -6 16 -9 17
-16 6 -5 -9 -4 -15 3 -18 7 -2 12 -18 12 -35 0 -23 -3 -28 -9 -18 -5 8 -7 20
-4 28 3 8 0 13 -8 11 -16 -3 -16 0 -4 60 4 23 11 42 16 42 5 0 9 10 9 23 0 17
2 19 9 8 5 -8 8 -29 6 -46 -4 -25 3 -41 30 -72 l34 -40 7 -244 7 -244 -60 -56
c-92 -85 -272 -164 -461 -204 -110 -23 -107 -24 -133 50 -12 36 -26 65 -30 65
-5 0 3 -29 16 -65 14 -36 25 -68 25 -71 0 -3 -59 -4 -130 -2 -126 3 -163 -3
-99 -16 50 -10 136 -7 249 9 263 36 489 130 599 250 l44 48 -6 99 -6 99 34 31
c19 16 35 37 35 46 0 8 14 27 32 42 23 19 31 35 31 58 0 18 4 32 8 32 20 0 40
60 46 140 4 43 11 61 33 85 16 17 32 44 36 60 4 17 23 43 42 59 38 32 62 80
62 123 0 15 -16 61 -37 101 -32 62 -35 76 -25 92 21 34 14 75 -23 128 -28 42
-33 56 -28 86 5 30 1 41 -26 72 -28 32 -32 41 -26 74 5 32 3 40 -15 53 -16 11
-19 21 -15 40 11 41 -28 96 -67 97 -9 0 -32 14 -50 31 -18 16 -45 33 -60 36
-15 3 -39 20 -52 38 -37 49 -88 69 -154 61 -52 -6 -56 -5 -92 28 -25 23 -55
38 -90 45 -28 6 -70 22 -93 35 -37 22 -54 25 -147 25 -58 0 -119 -5 -136 -11
-26 -9 -36 -8 -55 5 -30 21 -58 21 -88 1 -21 -15 -26 -15 -65 0 -48 19 -83 20
-111 4z m248 -25 c-5 -13 -2 -15 11 -10 9 4 15 3 11 -2 -3 -5 0 -11 6 -13 7
-2 5 -9 -5 -17 -11 -9 -16 -10 -16 -2 0 6 -7 11 -16 11 -9 0 -12 5 -8 12 5 7
3 8 -5 4 -9 -6 -8 -13 6 -29 9 -12 11 -16 3 -9 -17 14 -34 16 -25 2 3 -5 1
-10 -5 -10 -7 0 -10 6 -8 12 3 7 -5 20 -16 30 -18 15 -19 19 -6 28 8 5 29 10
47 10 26 0 31 -3 26 -17z m194 3 c-2 -6 -35 -10 -75 -11 -59 0 -67 2 -49 12
27 14 129 13 124 -1z m157 -15 l58 -29 -32 -17 c-22 -12 -35 -13 -44 -6 -7 6
-15 8 -19 5 -3 -3 -3 5 0 18 6 22 5 22 -20 -4 -29 -31 -42 -36 -34 -13 7 17
-11 31 -35 27 -9 -2 -19 2 -23 8 -10 16 25 25 46 11 24 -14 25 -3 2 15 -35 27
39 15 101 -15z m-167 -22 c46 -15 61 -36 37 -53 -13 -10 -23 -11 -31 -4 -6 5
-24 13 -40 18 -27 8 -26 8 12 10 36 1 37 2 16 11 -36 14 -74 -9 -89 -56 -30
-95 -57 -115 -157 -115 -51 0 -69 -4 -84 -19 -21 -21 -31 -18 -31 8 0 14 2 14
10 1 9 -13 10 -13 11 0 1 8 1 19 0 23 -1 5 3 6 9 2 6 -4 21 0 34 9 14 8 43 15
68 14 23 0 52 1 62 4 24 6 56 45 56 67 0 9 7 27 16 39 8 12 11 22 5 22 -14 0
-31 -33 -32 -62 0 -22 -1 -22 -9 -3 -6 13 -9 15 -9 5 -1 -8 -17 -26 -36 -39
-31 -21 -43 -23 -96 -18 -54 5 -63 3 -87 -20 l-27 -25 29 21 c41 30 53 26 16
-6 -21 -17 -30 -32 -27 -45 3 -10 2 -20 -3 -23 -4 -3 -11 15 -14 40 -13 84 26
123 143 143 37 7 76 21 95 35 51 39 71 41 153 16z m311 -33 c15 -8 39 -28 54
-44 16 -19 47 -36 80 -46 111 -33 178 -90 159 -136 -10 -25 -10 -24 -10 6 -1
38 -20 56 -94 88 -76 34 -73 24 5 -14 34 -17 65 -36 70 -43 13 -21 9 -57 -7
-57 -9 0 -12 -6 -9 -17 5 -15 4 -15 -4 -3 -6 8 -8 18 -6 22 3 4 -1 8 -9 8 -8
0 -31 14 -52 30 -21 17 -46 30 -56 30 -11 0 -19 7 -19 17 0 22 -66 82 -100 90
-14 3 -31 10 -38 16 -6 5 -27 13 -45 17 l-32 7 38 8 c32 6 43 3 75 -19 53 -36
63 -33 16 5 -36 29 -43 31 -99 25 -57 -5 -59 -5 -30 9 39 18 79 19 113 1z
m-145 -23 c18 -9 52 -24 77 -33 41 -14 47 -20 67 -70 18 -46 20 -63 12 -104
-7 -39 -6 -54 6 -73 14 -21 14 -25 -1 -40 -14 -14 -14 -18 -2 -27 8 -6 13 -17
11 -23 -6 -17 -33 -17 -33 -1 0 7 -7 2 -16 -10 -8 -12 -19 -20 -23 -17 -5 2
-16 -4 -26 -15 -26 -29 -2 -25 34 6 17 14 31 21 31 15 0 -14 -59 -51 -82 -51
-10 0 -18 5 -18 12 0 16 30 48 46 48 20 0 44 41 44 77 0 18 4 33 10 33 5 0 7
7 3 16 -5 13 -10 11 -28 -12 -27 -34 -92 -44 -112 -17 -12 15 -13 15 -13 -3 0
-26 -19 -44 -45 -44 -12 0 -26 5 -33 12 -9 9 -12 9 -12 1 0 -7 5 -15 10 -18
18 -11 11 -25 -13 -25 -29 0 -47 18 -47 48 0 17 -9 27 -36 38 -25 11 -34 20
-30 30 3 9 6 21 6 27 0 6 11 0 24 -12 14 -13 46 -27 72 -32 57 -11 61 -14 44
-36 -8 -10 -1 -6 14 10 15 15 38 27 52 27 14 0 33 4 43 10 15 7 20 4 30 -16
10 -22 14 -24 26 -14 13 11 11 16 -17 35 -24 17 -38 20 -50 14 -10 -6 -18 -6
-18 -2 0 4 -5 1 -11 -7 -9 -13 -10 -13 -6 0 2 8 9 14 14 13 10 -2 13 11 16 94
2 34 -1 59 -5 57 -4 -3 -8 -31 -8 -62 0 -50 -4 -62 -29 -90 -17 -17 -39 -32
-49 -32 -20 0 -36 25 -26 41 3 5 -4 9 -16 9 -11 0 -28 9 -37 19 -9 11 -20 18
-24 16 -11 -7 -20 42 -13 71 5 20 9 23 16 12 6 -9 7 -6 3 9 -9 31 9 60 53 82
46 25 74 26 115 4z m347 -43 c34 -6 51 -16 75 -44 16 -20 37 -36 45 -37 13 0
13 -2 1 -6 -10 -4 -4 -11 19 -22 20 -9 37 -26 41 -41 6 -23 7 -23 8 -3 1 12
-10 30 -25 42 -15 12 -22 21 -17 21 5 0 19 -9 31 -20 26 -24 29 -62 7 -80 -13
-11 -14 -10 -9 4 4 11 2 16 -7 14 -7 -2 -14 6 -16 17 -3 20 -3 20 6 0 8 -16
10 -17 10 -3 1 26 -20 33 -26 8 -4 -16 -8 -18 -14 -8 -7 10 -9 10 -9 1 0 -7
-5 -13 -10 -13 -6 0 -8 11 -4 26 8 32 -38 83 -99 110 -44 19 -110 64 -72 49
11 -4 40 -11 65 -15z m-157 -68 c-7 -18 -28 -9 -27 12 1 9 -2 16 -7 16 -5 0
-9 5 -9 10 0 6 11 3 24 -7 13 -10 21 -24 19 -31z m65 -52 c11 0 37 -14 58 -32
22 -17 30 -28 19 -24 -16 5 -14 1 8 -19 36 -34 34 -46 -5 -39 -56 11 -81 32
-73 62 5 22 4 25 -6 14 -10 -9 -11 -19 -2 -42 6 -17 7 -30 2 -30 -5 0 -9 4 -9
9 0 6 -9 8 -19 6 -26 -5 -36 10 -48 71 l-10 52 33 -14 c19 -8 42 -14 52 -14z
m-429 -44 c7 -5 8 0 5 11 -6 16 -5 17 7 2 8 -9 23 -22 34 -29 18 -10 18 -11 1
-6 -10 4 -24 2 -31 -4 -16 -13 -45 23 -44 55 0 19 1 19 9 -1 5 -12 13 -25 19
-28z m795 -7 c27 -21 36 -71 16 -84 -6 -4 -8 5 -6 22 2 15 1 21 -1 13 -3 -8
-10 -19 -15 -25 -7 -7 -8 -2 -3 15 12 39 11 52 -5 58 -13 5 -13 3 -1 -11 8
-11 9 -17 3 -17 -6 0 -9 -6 -6 -14 3 -8 1 -17 -5 -21 -6 -3 -11 2 -12 12 0 16
-1 16 -9 -2 -5 -11 -9 -14 -9 -7 -1 6 -8 12 -17 12 -11 0 -14 5 -9 18 4 9 10
25 12 35 7 23 34 22 67 -4z m-96 -43 c21 -19 64 -44 95 -56 59 -22 73 -44 42
-70 -16 -13 -21 -35 -6 -26 13 8 21 -19 21 -70 0 -34 -6 -51 -25 -69 -49 -50
-67 -23 -23 34 22 29 23 51 4 77 -18 23 -42 8 -25 -16 9 -12 10 -11 4 5 -5 15
-3 17 6 8 18 -17 2 -32 -31 -28 -29 4 -29 4 -9 -16 38 -38 12 -103 -52 -129
-28 -12 -33 -12 -46 6 -8 10 -12 28 -9 38 4 14 2 16 -7 7 -8 -8 -8 -19 0 -40
9 -26 9 -29 -6 -23 -9 3 -19 10 -23 16 -5 7 -8 4 -8 -6 0 -19 26 -48 43 -48 7
0 6 4 -2 9 -12 8 -9 11 12 16 42 11 46 3 21 -37 -20 -32 -30 -38 -59 -38 -26
0 -33 4 -29 14 3 8 -4 24 -17 37 -20 20 -23 20 -31 5 -10 -17 7 -50 21 -42 4
3 8 -4 8 -15 1 -15 -4 -19 -28 -17 -23 2 -29 7 -29 24 0 17 -4 21 -20 17 -23
-6 -26 -19 -7 -27 6 -3 3 -5 -8 -3 -12 1 -21 11 -23 24 -3 17 1 20 16 16 11
-2 23 1 28 8 5 9 2 11 -9 6 -33 -12 -43 24 -22 76 6 14 2 17 -20 17 -14 0 -23
4 -20 10 3 5 -9 16 -27 24 -25 11 -28 15 -13 15 11 1 31 -6 44 -15 22 -16 23
-16 12 5 -8 14 -21 21 -39 20 -31 -1 -76 -17 -52 -19 8 0 0 -7 -17 -15 -18 -8
-33 -19 -33 -25 0 -5 -5 -10 -11 -10 -8 0 -10 15 -5 48 4 32 3 42 -4 32 -5 -8
-10 -28 -10 -44 0 -40 -12 -25 -17 21 -6 61 -12 71 -29 49 -15 -21 -18 -18 -8
8 3 9 15 16 25 16 10 0 33 13 51 29 34 28 58 31 58 5 0 -8 5 -14 10 -14 13 0
13 37 0 45 -5 3 -8 21 -6 40 2 36 16 61 16 30 0 -10 8 -24 18 -32 16 -14 16
-14 0 -9 -13 4 -18 0 -18 -15 0 -33 24 -17 38 26 14 44 7 59 -15 30 -14 -19
-14 -19 -11 5 3 22 8 25 49 28 26 2 62 -4 80 -12 l34 -14 -33 -1 c-24 -1 -42
-10 -64 -33 -16 -18 -39 -43 -51 -56 l-22 -23 33 16 c59 30 109 -9 127 -97 9
-46 23 -32 18 19 -3 45 -25 94 -41 92 -16 -3 -72 14 -72 22 0 14 31 39 57 45
43 11 76 -7 101 -56 19 -38 22 -55 17 -105 l-6 -60 17 30 c9 17 21 33 26 36 6
4 6 14 -1 27 -9 16 -8 26 1 42 16 26 39 34 50 18 13 -22 9 -30 -12 -23 -15 5
-18 3 -14 -9 3 -9 11 -13 17 -9 7 4 8 -5 2 -28 -4 -19 -7 -42 -7 -51 1 -10 -3
-20 -8 -23 -5 -3 -6 -13 -3 -22 4 -11 3 -14 -5 -9 -8 5 -12 -1 -12 -15 0 -20
2 -21 13 -7 6 8 23 23 37 32 16 11 19 16 8 14 -9 -2 -17 2 -17 7 0 6 10 9 22
8 15 -1 16 0 5 3 -12 4 -18 15 -18 32 0 50 11 72 36 72 12 0 26 4 29 10 4 6
-5 7 -23 4 -25 -5 -31 -2 -37 15 -9 29 -39 26 -64 -5 l-21 -26 -10 27 c-13 33
-13 38 1 29 6 -3 3 5 -6 19 -9 14 -15 34 -12 44 4 15 5 14 6 -4 1 -25 16 -38
26 -23 3 6 -3 22 -14 35 -19 25 -20 25 -26 5 -3 -11 -4 -30 0 -42 5 -20 3 -19
-19 7 -31 37 -30 45 15 67 25 13 29 18 14 18 -17 0 -17 2 -5 10 28 18 60 10
98 -24z m-906 -13 c-9 -3 -7 -9 6 -21 9 -10 13 -14 8 -9 -14 10 -28 9 -21 -3
8 -13 -1 -13 -27 1 -11 6 -18 7 -15 1 8 -12 -19 -49 -29 -40 -4 4 -1 14 6 23
7 8 9 15 4 15 -5 0 2 9 16 20 14 11 34 19 45 19 11 0 14 -3 7 -6z m113 -2 c40
16 37 8 -9 -22 -26 -17 -50 -29 -53 -25 -4 3 -1 6 5 6 7 0 12 6 12 14 0 9 -7
12 -19 9 -10 -3 -22 1 -26 7 -5 9 -1 10 15 5 15 -5 20 -4 16 4 -5 8 0 8 16 2
13 -4 32 -5 43 0z m317 -51 c22 0 28 -5 28 -21 0 -13 4 -18 12 -13 7 5 8 3 3
-6 -6 -10 -11 -9 -23 6 -14 18 -14 18 -9 -3 7 -30 -16 -49 -33 -28 -11 14 -7
19 13 16 4 0 7 4 7 9 0 13 -11 12 -32 -4 -22 -16 -23 -30 -2 -50 14 -15 14
-16 -5 -16 -12 0 -21 6 -21 15 0 17 -12 19 -26 5 -11 -11 -57 1 -68 18 -3 5
15 19 39 31 25 12 50 32 56 43 8 15 14 17 22 9 6 -6 24 -11 39 -11z m-744
-119 c1 0 -2 -10 -8 -22 -11 -20 -25 -18 -25 4 -1 7 -6 11 -13 10 -7 -2 -12 1
-12 6 0 8 41 9 58 2z m1418 -32 c22 -43 1 -94 -23 -56 -11 17 -12 98 -2 91 5
-3 16 -19 25 -35z m9 -101 c52 -59 70 -104 55 -136 -10 -24 -11 -24 -30 -7
-26 24 -26 10 1 -18 16 -17 20 -31 16 -62 -5 -36 -4 -38 8 -22 13 18 15 16 36
-24 12 -24 22 -60 22 -80 0 -41 -30 -97 -62 -117 -19 -11 -21 -10 -21 10 -1
21 -2 21 -11 5 -6 -10 -8 -26 -5 -35 6 -16 5 -16 -7 0 -14 18 -45 8 -33 -11 4
-6 12 -9 17 -6 5 3 6 -1 3 -9 -3 -9 -14 -16 -24 -16 -11 0 -22 -4 -25 -10 -10
-15 28 -12 52 5 20 14 21 13 16 -5 -3 -11 -9 -18 -13 -15 -4 3 -14 -3 -21 -12
-8 -9 -12 -17 -9 -17 2 -1 -3 -11 -12 -24 l-16 -24 -7 31 c-4 17 -11 31 -16
31 -16 0 -10 25 16 60 14 18 22 36 19 39 -4 3 -9 0 -11 -6 -3 -7 -14 -23 -25
-35 -11 -13 -17 -18 -14 -11 4 6 2 15 -4 18 -8 5 -7 11 1 21 9 11 9 14 0 14
-7 0 -9 6 -6 13 4 6 -1 3 -10 -8 -19 -23 -14 -78 9 -104 9 -9 13 -26 10 -38
-3 -11 -1 -24 5 -27 6 -4 11 1 12 11 0 13 3 12 10 -7 6 -14 8 -33 5 -42 -2
-10 0 -16 5 -12 5 3 9 -2 9 -10 0 -8 -5 -18 -10 -21 -10 -6 -14 1 -24 47 -4
19 -21 36 -51 54 -25 14 -45 32 -45 41 0 8 -4 12 -9 8 -18 -10 -21 13 -6 41 8
16 15 34 15 41 0 21 23 63 31 58 4 -3 19 0 34 7 19 9 28 9 37 0 7 -7 27 -12
46 -12 38 0 92 45 92 77 -1 14 -4 11 -16 -9 -18 -33 -43 -48 -83 -48 -42 0
-47 16 -16 56 21 27 32 34 49 30 27 -7 66 19 65 42 0 14 -3 13 -16 -5 -16 -23
-47 -31 -57 -14 -3 5 2 8 11 7 10 0 19 7 21 17 4 20 -14 47 -32 47 -6 0 -3 -7
7 -14 17 -13 24 -46 9 -46 -4 0 -15 9 -25 20 -9 11 -22 20 -29 20 -9 0 -8 -3
2 -10 11 -7 7 -10 -17 -10 -17 0 -35 -5 -38 -10 -4 -6 -11 -8 -16 -5 -5 4 -9
0 -10 -7 0 -7 -5 2 -10 20 -12 41 13 101 49 117 12 5 22 13 22 18 0 4 -13 1
-29 -7 l-29 -15 -6 37 c-3 20 -12 44 -19 54 -11 14 -13 10 -14 -25 0 -36 1
-38 8 -17 7 21 8 19 5 -11 -3 -20 1 -42 7 -49 10 -10 7 -10 -10 -1 -52 26 -54
93 -6 136 16 13 38 25 51 25 12 0 33 11 45 24 12 13 25 24 29 25 3 1 23 -18
43 -41z m-483 -10 c12 -9 18 -33 20 -76 2 -34 0 -62 -4 -62 -21 0 -42 17 -66
54 -29 42 -32 76 -6 76 8 0 14 5 14 10 0 14 23 13 42 -2z m-831 -128 c0 10 3
8 9 -5 12 -27 12 -43 0 -25 -8 13 -10 13 -10 -2 0 -9 6 -19 13 -21 6 -3 1 -6
-13 -7 -14 -2 -35 -4 -47 -5 -19 -2 -20 0 -10 22 10 22 12 23 18 6 5 -14 8
-11 14 16 5 24 10 30 16 20 7 -12 9 -11 10 1z m-28 -74 c20 1 37 1 37 -1 0 -2
-20 -14 -44 -28 -40 -22 -45 -23 -52 -8 -15 34 -10 58 9 43 7 -6 29 -8 50 -6z
m-146 -42 c27 -7 21 -24 -10 -25 -18 -1 -19 -2 -4 -6 10 -3 27 3 36 12 17 15
19 14 23 -2 7 -27 -67 -31 -81 -5 -15 29 -4 37 36 26z m185 -19 c4 -17 1 -25
-9 -25 -7 0 -16 -7 -19 -15 -9 -22 -41 -18 -47 6 -7 24 24 59 52 59 12 0 20
-9 23 -25z m1271 -25 c-3 -12 -14 -20 -25 -20 -14 0 -18 5 -14 15 8 22 -12 18
-24 -5 -6 -11 -8 -20 -4 -20 3 0 1 -7 -6 -15 -9 -10 -9 -15 -1 -15 6 0 11 4
11 9 0 5 7 11 15 15 22 8 18 -8 -10 -38 -14 -15 -30 -24 -35 -21 -6 3 -10 1
-10 -5 0 -6 -4 -8 -10 -5 -5 3 -10 11 -10 16 0 6 5 7 11 3 7 -4 9 1 7 12 -2
11 3 25 12 32 8 8 9 11 3 7 -18 -9 -16 20 2 35 16 13 75 29 87 23 3 -1 4 -12
1 -23z m-182 -219 c-25 -16 -3 -60 49 -97 57 -41 74 -66 65 -95 -4 -13 -2 -19
7 -17 8 2 13 -9 15 -30 1 -26 -4 -36 -22 -44 -14 -6 -21 -16 -18 -24 9 -25 -7
-65 -32 -76 -14 -6 -25 -19 -25 -29 0 -10 -13 -33 -30 -51 l-30 -33 2 32 c1
17 5 30 9 27 4 -2 10 0 14 6 4 6 11 7 17 4 6 -4 8 -2 5 4 -4 5 -16 8 -27 5
-17 -5 -20 0 -20 28 0 23 3 30 9 20 6 -10 10 -10 16 -1 4 6 0 17 -9 23 -11 9
-13 16 -6 27 5 8 10 11 10 5 0 -5 5 -3 10 5 8 13 10 12 10 -2 0 -10 5 -18 11
-18 6 0 9 9 6 20 -7 27 12 14 23 -16 5 -13 14 -24 20 -24 28 0 -19 59 -52 65
-41 8 -55 35 -61 118 -3 43 -1 77 4 77 5 0 18 -18 29 -40 24 -47 30 -50 30
-14 0 16 -4 23 -12 18 -7 -5 -8 -3 -3 6 14 22 37 -20 31 -57 -4 -26 -1 -32 17
-37 29 -7 47 11 26 27 -9 7 -19 22 -23 34 -4 13 -27 39 -52 59 -24 20 -41 41
-37 47 3 6 1 7 -5 3 -6 -3 -16 2 -22 13 -7 14 -7 22 0 26 6 4 9 1 8 -6 -2 -6
3 -14 10 -16 6 -3 12 2 12 9 0 16 21 40 29 32 3 -3 -1 -9 -8 -13z m-55 -99 c1
-20 3 -37 4 -37 1 0 3 -17 5 -38 4 -42 -4 -41 -37 5 -12 17 -17 28 -10 24 7
-4 12 -2 12 4 0 6 4 9 9 6 9 -6 9 70 -1 79 -3 3 -8 -1 -12 -10 -3 -9 -2 -13 4
-10 5 3 8 -7 7 -22 -1 -16 -7 -26 -12 -23 -14 7 -15 64 -2 72 18 11 31 -9 33
-50z m-113 -117 c-3 -10 0 -15 8 -13 10 2 15 -8 16 -32 1 -19 -1 -27 -3 -17
-3 9 -10 17 -16 17 -7 0 -7 4 1 13 8 10 7 14 -4 14 -8 0 -13 -3 -10 -5 3 -3
-1 -12 -8 -20 -6 -8 -12 -22 -13 -31 -2 -32 -16 -50 -54 -65 -22 -9 -47 -13
-56 -9 -12 5 -15 3 -9 -6 6 -10 2 -11 -15 -6 -17 5 -21 4 -15 -6 6 -9 3 -11
-9 -6 -10 4 -23 7 -29 7 -7 1 15 12 47 25 68 28 79 31 52 10 -11 -8 -15 -15
-10 -15 5 0 25 14 44 30 27 24 29 28 10 19 -14 -7 -32 -14 -40 -15 -8 -1 -22
-5 -31 -8 -10 -4 -20 -3 -24 3 -4 7 0 8 11 4 12 -4 15 -3 10 5 -5 8 -1 10 10
5 12 -4 15 -3 10 5 -5 8 -1 10 10 5 12 -4 15 -3 10 6 -4 6 -4 11 1 10 11 -3
63 19 63 26 0 4 -6 3 -12 -1 -10 -6 -9 -3 0 8 8 10 21 14 30 11 9 -3 14 -3 10
2 -4 4 -3 16 3 26 12 23 21 25 12 4z m-198 -140 c-16 -8 -37 -15 -45 -15 -8 0
-2 -7 14 -13 l30 -13 -48 -18 c-26 -10 -50 -15 -53 -12 -3 3 2 8 11 12 9 3 14
9 11 14 -2 4 8 5 23 3 l27 -4 -25 15 -25 14 25 10 c57 22 99 27 55 7z m-512
-279 c9 -7 17 -20 17 -28 0 -8 6 -20 13 -28 15 -18 -16 5 -50 36 -32 29 -15
47 20 20z"/>
<path d="M1865 2348 c10 -7 32 -25 48 -40 21 -21 28 -24 25 -11 -2 10 -23 28
-48 41 -25 12 -36 17 -25 10z"/>
<path d="M1436 2464 c-29 -28 -33 -104 -6 -104 5 0 7 7 4 15 -4 8 -1 15 5 15
6 0 11 7 11 15 0 8 15 24 33 35 17 11 25 20 17 20 -22 0 -60 -29 -60 -46 0 -8
-5 -14 -11 -14 -13 0 -2 39 19 63 19 21 9 23 -12 1z"/>
<path d="M1505 2430 c-14 -15 -16 -29 -11 -62 l6 -43 -16 28 c-8 15 -12 38 -9
50 5 18 4 19 -4 6 -6 -9 -8 -34 -6 -55 2 -21 4 -45 4 -53 1 -7 7 -11 16 -7 8
3 15 3 15 0 0 -2 -12 -9 -26 -15 -15 -5 -24 -12 -21 -16 4 -3 17 1 29 9 18 12
24 26 26 64 2 27 10 59 18 72 8 12 11 22 7 22 -5 0 -1 5 7 10 13 8 13 10 -1
10 -9 0 -24 -9 -34 -20z"/>
<path d="M1601 2358 c12 -44 11 -61 -3 -52 -8 5 -9 2 -5 -9 3 -10 2 -17 -4
-17 -6 0 -7 -5 -3 -12 5 -8 11 -6 19 6 11 15 13 15 18 -5 10 -36 23 -13 18 33
-4 36 -5 39 -11 18 -5 -22 -7 -20 -13 17 -4 23 -11 44 -16 48 -6 3 -6 -7 0
-27z"/>
<path d="M1406 2323 c0 -16 4 -27 8 -26 27 7 28 10 15 31 -18 29 -25 28 -23
-5z"/>
<path d="M2020 2208 c0 -34 87 -86 117 -70 11 7 6 11 -22 15 -48 8 -69 25 -54
43 7 9 8 14 1 14 -6 0 -17 3 -26 6 -10 4 -16 1 -16 -8z"/>
<path d="M1918 2141 c1 -2 -5 -12 -13 -21 -14 -16 -14 -18 1 -24 11 -4 15 -2
11 7 -3 8 1 14 8 14 7 0 10 -9 8 -21 -4 -16 -2 -18 5 -7 8 11 11 10 15 -5 4
-16 5 -16 6 -2 0 9 -9 27 -21 40 -13 13 -22 22 -20 19z"/>
<path d="M1675 2057 c-26 -29 -23 -34 26 -36 32 -1 49 2 45 8 -4 6 -14 8 -24
5 -9 -2 -7 1 6 8 18 9 31 9 53 1 16 -6 29 -7 29 -2 0 22 -106 24 -115 2 -2 -7
-10 -13 -17 -13 -10 0 -10 2 1 9 7 5 12 13 10 19 -3 6 -8 6 -14 -1z"/>
<path d="M1867 1998 c10 -30 11 -43 3 -48 -8 -5 -6 -12 5 -24 19 -18 24 -19
43 -7 11 6 9 9 -6 13 -13 4 -23 20 -30 51 -7 25 -16 48 -21 51 -5 3 -2 -13 6
-36z"/>
<path d="M1836 1957 c2 -33 8 -56 18 -63 21 -15 20 -25 -1 -17 -13 5 -15 2
-10 -11 4 -10 7 -20 7 -22 0 -14 19 0 29 22 10 23 9 28 -9 41 -14 10 -20 25
-20 53 0 21 -4 41 -8 44 -4 2 -7 -19 -6 -47z"/>
<path d="M1929 1899 c-17 -18 -22 -29 -13 -29 13 0 50 47 43 54 -2 2 -16 -9
-30 -25z"/>
<path d="M2125 1880 c-4 -6 -11 -8 -16 -4 -5 3 -1 -12 10 -33 10 -21 21 -45
23 -53 3 -10 6 -7 10 8 4 12 2 20 -3 16 -5 -3 -9 -1 -9 5 0 5 5 13 10 16 6 3
10 11 10 17 0 6 -6 6 -15 -2 -14 -12 -15 -10 -11 13 5 28 2 34 -9 17z"/>
<path d="M2283 1837 c-1 -25 0 -28 7 -12 7 19 8 18 12 -5 l5 -25 2 26 c0 15
-5 31 -11 37 -10 8 -13 3 -15 -21z"/>
<path d="M2274 1743 c5 -9 0 -13 -14 -13 -17 0 -19 -2 -8 -14 9 -9 17 -11 25
-4 8 6 13 3 16 -9 4 -15 5 -14 6 3 0 12 -7 28 -16 35 -11 10 -14 10 -9 2z"/>
<path d="M2341 1575 c-23 -82 -24 -90 -6 -75 16 14 28 65 23 101 -2 17 -7 11
-17 -26z"/>
<path d="M2114 1399 c1 -20 -4 -36 -10 -36 -6 0 -9 12 -7 26 l3 26 -10 -24
c-12 -27 -4 -39 28 -46 23 -4 28 4 13 21 -5 5 -12 23 -14 39 -3 25 -4 24 -3
-6z"/>
<path d="M1767 1883 c-10 -10 -8 -71 2 -77 5 -3 12 1 15 10 3 8 2 13 -3 9 -5
-3 -8 11 -7 30 3 37 3 39 -7 28z"/>
<path d="M2079 1170 c13 -11 29 -20 36 -20 21 0 45 11 45 21 0 6 -7 6 -18 0
-12 -6 -29 -5 -52 5 l-35 14 24 -20z"/>
<path d="M2130 1141 l-25 -7 25 -5 c30 -6 50 -1 50 12 0 10 -14 10 -50 0z"/>
<path d="M953 2478 c-17 -37 -46 -43 -93 -19 -22 11 -40 17 -40 12 0 -5 16
-16 35 -25 42 -20 45 -31 8 -22 -24 5 -25 5 -10 -5 11 -6 29 -8 45 -3 15 4 30
8 33 8 16 3 40 39 37 58 -3 22 -3 21 -15 -4z"/>
<path d="M1036 2249 c-16 -9 -34 -15 -41 -12 -19 6 -28 -14 -16 -34 6 -10 11
-12 11 -6 0 15 50 42 67 36 14 -5 24 10 15 23 -5 7 -17 5 -36 -7z"/>
<path d="M1278 2093 c-10 -2 -18 -8 -18 -12 0 -4 -24 -13 -53 -20 -51 -11
-124 -47 -114 -57 2 -3 20 4 38 15 19 11 62 27 96 35 56 15 66 15 99 1 43 -18
44 -18 44 -5 0 6 -9 10 -21 10 -13 0 -18 4 -13 12 4 7 3 8 -5 4 -6 -4 -14 0
-17 8 -3 9 -9 15 -13 15 -3 -1 -14 -3 -23 -6z"/>
<path d="M1251 1988 c-13 -4 -28 -5 -33 -1 -7 4 -8 1 -3 -7 6 -9 2 -10 -15 -5
-15 5 -20 4 -16 -4 4 -6 4 -11 -1 -12 -4 0 -15 -2 -23 -4 -8 -2 -32 -9 -54
-14 -21 -5 -44 -15 -50 -22 -8 -9 -8 -10 0 -6 7 4 18 0 25 -9 14 -17 62 -44
79 -44 5 0 10 7 10 15 0 8 -6 15 -14 15 -20 0 -65 39 -46 40 49 4 85 12 88 20
2 5 37 7 82 4 61 -5 86 -2 114 11 20 10 36 21 36 26 0 13 -9 11 -26 -5 -28
-28 -146 -33 -129 -6 4 6 12 7 18 3 14 -9 79 -5 89 5 11 11 -103 11 -131 0z"/>
<path d="M652 1950 c-17 -27 -16 -30 13 -30 15 0 29 8 36 22 10 18 9 20 -5 15
-9 -4 -16 -2 -16 3 0 17 -14 11 -28 -10z"/>
<path d="M1005 1929 c4 -13 19 -36 33 -51 23 -26 24 -28 6 -28 -11 0 -1 -9 24
-20 39 -18 46 -18 65 -5 33 23 43 18 41 -22 -1 -29 0 -31 3 -8 5 31 29 65 46
65 6 0 2 -9 -7 -19 -25 -27 -40 -99 -25 -117 14 -17 49 -19 49 -3 0 8 5 7 15
-1 18 -15 118 -7 123 10 2 5 13 11 25 11 18 1 19 2 4 6 -10 3 -23 0 -30 -5
-20 -15 -96 -23 -117 -12 -27 15 -26 56 2 71 42 23 91 16 133 -19 45 -36 55
-39 50 -14 -2 9 -4 19 -4 22 -2 13 -63 41 -77 36 -9 -3 -12 -1 -9 4 4 6 -7 10
-24 10 -16 0 -33 -4 -36 -10 -3 -5 -14 -10 -24 -10 -27 0 -53 -34 -49 -65 2
-16 -2 -30 -9 -32 -9 -3 -12 9 -10 40 1 25 5 43 8 41 4 -2 9 3 12 11 11 27 66
47 106 39 20 -4 43 -9 52 -9 9 -1 39 -15 67 -31 28 -16 54 -25 59 -21 8 9 -17
28 -28 21 -4 -2 -12 2 -18 9 -8 10 -7 14 4 14 8 0 11 -5 8 -10 -3 -6 -1 -7 6
-3 9 6 9 11 0 22 -6 8 -14 12 -17 10 -2 -3 -14 0 -26 6 -32 19 -206 20 -233 2
-14 -9 -40 -13 -68 -10 -25 2 -42 -1 -39 -6 3 -5 15 -6 27 -3 19 5 20 5 5 -5
-13 -8 -24 -8 -37 0 -23 12 -71 72 -71 88 0 6 -5 14 -11 18 -8 4 -9 -1 -4 -17z"/>
<path d="M954 1901 c0 -23 4 -41 8 -41 11 0 10 52 -1 69 -5 8 -8 -2 -7 -28z"/>
<path d="M1520 1931 c0 -5 6 -12 13 -14 9 -4 9 -7 -1 -15 -10 -7 -10 -11 3
-22 12 -10 15 -10 15 4 0 10 5 14 11 10 8 -5 8 -1 0 14 -11 21 -41 37 -41 23z"/>
<path d="M1145 1909 c6 -9 44 -16 122 -22 29 -2 50 0 47 5 -3 4 -26 8 -52 8
-26 0 -64 4 -84 9 -21 5 -35 5 -33 0z"/>
<path d="M859 1830 l-24 -21 31 15 c27 13 34 13 59 0 32 -16 35 -17 35 -6 0
10 -45 32 -64 32 -8 0 -24 -9 -37 -20z"/>
<path d="M1125 1810 c-3 -5 -8 -19 -10 -30 -3 -16 2 -20 21 -20 15 0 24 6 24
16 0 12 -6 15 -22 11 -21 -5 -21 -5 -5 7 9 7 17 16 17 20 0 10 -18 7 -25 -4z"/>
<path d="M1039 1710 c-6 -45 -4 -58 7 -48 3 3 4 26 2 49 l-3 44 -6 -45z"/>
<path d="M1956 1693 c-7 -16 -17 -47 -21 -71 -6 -37 -4 -47 14 -63 26 -24 27
-39 3 -39 -11 0 -27 -10 -38 -22 -10 -13 -12 -17 -4 -10 8 6 30 12 50 12 26 1
40 7 53 25 10 14 13 25 7 25 -12 0 -14 27 -1 34 4 3 16 0 26 -8 16 -12 16 -15
1 -44 -9 -17 -24 -36 -33 -41 -23 -14 -7 -14 17 -1 32 17 44 51 42 120 -2 55
-6 68 -28 88 -35 31 -70 29 -88 -5z m95 -32 c8 -19 6 -21 -10 -16 -10 3 -29
-3 -44 -15 -31 -25 -33 -25 -40 0 -3 13 -1 18 6 13 7 -4 8 0 3 13 -5 15 -4 16
5 7 9 -9 16 -7 32 8 25 23 37 21 48 -10z m9 -46 c0 -14 -46 -26 -68 -18 -9 4
-6 11 14 23 28 19 54 17 54 -5z m-60 -55 c0 -8 -4 -22 -9 -29 -8 -12 -11 -9
-16 11 -4 15 -13 29 -21 32 -8 3 -14 13 -14 21 0 14 3 14 30 -2 17 -9 30 -24
30 -33z"/>
<path d="M1235 1690 c-8 -12 4 -16 50 -18 22 0 33 1 25 4 -52 19 -70 22 -75
14z"/>
<path d="M1153 1553 c9 -2 15 -8 12 -12 -2 -5 4 -16 15 -26 12 -11 20 -31 20
-48 0 -27 -1 -29 -13 -14 -7 10 -38 24 -70 31 -53 12 -58 12 -67 -4 -12 -22
-10 -90 2 -90 5 0 6 -5 2 -12 -5 -8 -2 -9 9 -5 13 5 17 0 18 -21 2 -26 2 -26
6 -3 3 16 -1 29 -13 38 -10 7 -14 13 -10 13 5 0 3 7 -4 15 -7 9 -9 22 -5 32 5
10 7 22 6 27 -1 5 8 6 21 2 13 -3 30 -6 38 -7 8 -1 2 -4 -14 -8 -16 -3 -31
-12 -34 -20 -3 -8 0 -11 6 -7 6 3 29 2 52 -3 l41 -9 -16 24 c-15 24 -11 31 11
16 14 -9 29 -53 17 -51 -18 3 -33 -2 -33 -11 0 -16 36 -12 51 6 20 24 17 89
-5 113 -11 12 -15 21 -10 21 4 0 18 -12 29 -26 19 -23 21 -24 22 -6 2 20 -53
53 -85 51 -16 -1 -16 -2 1 -6z"/>
<path d="M1038 1354 c-4 -3 -3 -15 3 -25 6 -13 6 -19 -1 -19 -5 0 -10 7 -10
15 0 8 -4 15 -10 15 -5 0 -10 -7 -10 -15 0 -8 5 -15 11 -15 8 0 8 -4 2 -12
-16 -19 -23 -147 -10 -155 18 -11 47 -11 54 0 4 6 -5 8 -21 5 -22 -4 -26 -2
-26 17 0 27 39 65 68 65 11 0 24 5 27 10 8 13 96 13 129 0 14 -5 33 -7 41 -3
29 10 11 37 -45 66 -54 28 -82 31 -164 16 -14 -3 -21 3 -25 19 -4 13 -9 20
-13 16z m155 -45 c20 -5 37 -14 37 -18 0 -5 15 -14 33 -20 24 -9 29 -14 18
-20 -9 -6 -26 -3 -45 7 -35 19 -151 19 -140 0 4 -6 -2 -8 -16 -3 -12 4 -21 3
-18 -1 2 -5 -6 -19 -19 -31 -13 -12 -23 -18 -23 -13 0 5 5 12 10 15 8 5 8 11
1 19 -6 7 -7 22 -4 35 4 17 11 22 28 19 12 -3 31 1 41 9 21 16 46 16 97 2z"/>
<path d="M987 1319 c-4 -13 -6 -53 -5 -89 l2 -65 3 60 c2 32 8 64 12 70 5 5 5
19 1 29 -6 18 -7 18 -13 -5z"/>
<path d="M1091 1183 c-31 -11 -40 -18 -30 -24 16 -11 117 -1 139 13 15 9 -56
5 -110 -7 l-25 -6 25 11 c14 6 50 15 80 19 l55 9 -45 0 c-25 0 -65 -7 -89 -15z"/>
<path d="M978 1110 c-2 -22 0 -47 4 -57 4 -10 7 6 7 40 1 66 -5 76 -11 17z"/>
<path d="M1122 1140 c-12 -5 -28 -7 -36 -4 -8 3 -21 -4 -30 -18 -17 -26 -18
-70 -1 -65 5 2 9 16 8 30 -1 18 3 26 15 26 29 1 108 18 89 20 -10 0 -15 6 -12
11 7 12 -2 12 -33 0z"/>
<path d="M1000 1085 c0 -19 2 -35 5 -35 10 0 24 40 19 54 -11 28 -24 17 -24
-19z"/>
<path d="M1730 996 c-47 -18 -103 -42 -125 -53 -72 -37 -153 -56 -214 -49 -44
4 -52 3 -37 -5 39 -24 146 -5 252 43 54 25 123 53 151 62 29 10 55 22 58 27 4
5 5 9 3 8 -2 -1 -41 -16 -88 -33z"/>
<path d="M1833 1007 c-18 -38 -16 -52 3 -33 8 9 14 26 12 38 -3 21 -4 21 -15
-5z"/>
<path d="M1305 995 c-22 -8 -54 -14 -70 -14 -17 -1 -39 -7 -50 -15 -21 -13
-27 -15 -95 -17 -43 -2 -51 -12 -21 -29 26 -13 102 -14 81 0 -9 6 -10 10 -3
10 6 0 20 3 30 6 15 5 15 4 3 -5 -20 -14 -7 -14 25 1 14 6 25 16 25 21 0 5 -7
4 -15 -3 -9 -7 -19 -10 -22 -6 -15 15 24 26 79 22 40 -3 62 0 75 10 10 9 12
12 4 8 -11 -5 -13 -3 -8 9 3 10 5 17 4 16 -1 -1 -20 -7 -42 -14z"/>
<path d="M1705 960 c-72 -30 -72 -41 0 -16 45 16 59 12 52 -15 -3 -11 -1 -19
4 -19 11 0 33 40 22 40 -4 0 0 5 10 11 9 5 17 14 17 19 0 16 -32 10 -105 -20z"/>
<path d="M1192 863 c-53 -18 -48 -30 5 -12 21 6 65 11 98 10 73 -3 70 4 -5 12
-36 3 -70 0 -98 -10z"/>
<path d="M1410 850 c-19 -5 -39 -6 -44 -3 -5 4 -6 1 -2 -5 4 -7 -10 -9 -46 -6
-29 3 -71 2 -93 -3 -31 -7 -14 -9 70 -7 73 1 122 7 145 17 38 17 25 20 -30 7z"/>
<path d="M1410 824 c-28 -9 -63 -12 -95 -9 -27 4 -61 2 -75 -4 -19 -7 -20 -10
-7 -10 10 -1 16 -5 13 -10 -3 -5 0 -9 7 -8 6 0 30 -1 52 -3 l40 -3 -45 -7
c-35 -6 -39 -7 -15 -9 26 -1 27 -3 12 -12 -9 -6 -15 -14 -12 -19 7 -11 35 -2
35 12 0 18 56 57 83 58 15 0 27 4 27 9 0 4 15 13 33 19 19 6 24 10 12 10 -11
0 -40 -6 -65 -14z m-75 -24 c27 -7 25 -8 -17 -9 -27 0 -48 4 -48 9 0 11 21 11
65 0z"/>
<path d="M1640 657 c0 -63 -3 -122 -6 -131 -3 -9 -2 -16 3 -16 9 0 33 149 33
207 0 17 -7 36 -15 43 -13 11 -15 -2 -15 -103z"/>
<path d="M1120 647 c0 -17 22 -47 34 -47 11 0 6 15 -14 40 -17 21 -20 22 -20
7z"/>
<path d="M1280 613 c0 -27 99 -87 117 -70 3 3 -6 9 -21 13 -14 3 -26 12 -26
20 0 8 -10 14 -21 14 -12 0 -28 8 -35 18 -7 9 -14 12 -14 5z"/>
</g>
</svg>
