<svg width="69" height="93" viewBox="0 0 69 93" fill="none" xmlns="http://www.w3.org/2000/svg">
<rect width="69" height="93"/>
<path d="M14.0431 77.8954C14.135 78.7228 15.6669 79.6227 16.083 80.3509C16.2358 80.6183 16.7144 80.6297 16.8952 80.9553C17.0906 81.307 17.4162 81.4385 17.698 81.7203C18.2247 82.247 18.9374 82.5253 19.4452 83.0331C20.281 83.8689 21.3418 84.5449 22.2879 85.2808C22.9829 85.8213 23.7303 86.6312 24.5073 87.0752C26.1144 87.9935 27.6079 89.4551 29.5127 89.4551C30.3026 89.4551 31.6738 89.9923 32.4877 89.5401C33.3371 89.0682 34.6878 89.6778 35.5476 89.2001C35.9431 88.9804 36.475 89.0566 36.8981 88.9357C37.338 88.81 37.7695 88.4461 38.1825 88.2274C39.062 87.7618 39.9162 87.3209 40.8175 86.8202C41.143 86.6393 42.0606 86.5625 42.2624 86.3102C42.407 86.1296 43.3862 85.743 43.6224 85.7152C44.374 85.6268 45.6569 84.5083 46.1346 83.9775C46.7026 83.3463 46.9839 82.1421 47.6173 81.6353C48.1878 81.179 48.7223 79.5049 48.7223 78.8304C48.7223 77.9708 49.352 77.1006 49.4023 76.1954C49.4542 75.2603 49.7423 74.2512 49.7423 73.3055" stroke="#ED40BC" stroke-linecap="round"/>
<path d="M14.213 77.7254C14.9366 77.635 15.7329 76.3581 15.9035 75.761C16.1327 74.9591 16.7175 74.0789 16.763 73.3055C16.8241 72.2665 16.5144 71.5431 16.2624 70.6611C16.1258 70.183 16.423 69.7813 16.423 69.3106C16.423 68.8006 16.423 68.2906 16.423 67.7806C16.423 63.8514 17.7228 60.3879 17.9529 56.4759C18.0564 54.7167 18.6329 53.0636 18.6329 51.206C18.6329 50.3646 18.1229 49.4004 18.1229 48.5711C18.1229 48.1415 18.4629 47.6983 18.4629 47.2111C18.4629 46.665 18.6329 46.2182 18.6329 45.6812C18.6329 45.4372 18.798 44.687 19.0107 44.8784M46.1723 63.4835C47.1066 63.9782 46.5111 65.3136 46.9373 66.0807C47.1309 66.4293 47.2485 67.0851 47.3528 67.4501C47.4698 67.8597 47.7705 68.2152 47.8628 68.6306C47.939 68.9736 48.1924 69.3992 48.2122 69.7356C48.2293 70.0256 48.2503 71.0157 48.42 71.2278C48.6841 71.5579 48.7596 72.0722 48.93 72.4555C49.1132 72.8677 49.5931 73.0074 49.7422 73.3055" stroke="#ED40BC" stroke-linecap="round"/>
<path d="M45.6624 62.5958C46.7165 62.5958 48.2896 61.0094 49.0245 60.3481C49.5086 59.9123 50.3878 59.6456 51.0172 59.3659C51.6293 59.0938 52.1464 58.143 52.4622 57.5903C53.1841 56.3271 52.5268 54.3552 53.52 53.1138C53.8598 52.6889 54.1742 51.8014 54.3227 51.2816C54.5267 50.5675 54.8855 49.7681 55.2671 49.0811C55.9291 47.8896 56.8821 45.9961 56.8821 44.6612C56.8821 43.7367 56.7387 43.3 56.3343 42.5362C55.9101 41.735 56.3348 40.7523 55.9943 39.9863C55.6944 39.3114 55.7002 38.6324 55.8716 37.8613C56.0448 37.0816 55.9836 36.2038 56.1927 35.472C56.3582 34.8925 56.7743 34.1566 57.1843 33.8287C57.707 33.4105 58.922 33.5185 58.922 32.5065" stroke="#ED40BC" stroke-linecap="round"/>
<path d="M27.3027 6.15706C28.664 6.00581 29.2942 4.11711 30.7877 4.11711C31.4533 4.11711 32.4154 4.18557 32.9976 3.86211C33.7775 3.42881 34.232 4.26336 34.877 4.44766C36.1502 4.81142 37.315 5.54152 38.6925 4.92931C40.0985 4.30439 41.3839 4.2871 42.9424 4.2871C44.3397 4.2871 45.3156 5.20171 46.5973 5.48652C47.9546 5.78815 49.0443 6.15706 50.5072 6.15706C51.9805 6.15706 53.4538 6.15706 54.9271 6.15706C56.2459 6.15706 57.1016 7.18823 57.732 8.29146C58.3093 9.30171 59.5542 10.0922 60.2442 10.9547C60.4288 11.1855 60.4653 11.5682 60.622 11.8425C60.7907 12.1377 61.1916 12.2664 61.4342 12.4847C61.7912 12.806 62.0961 13.7004 62.1519 14.1469C62.2212 14.7008 62.832 15.4043 62.0575 15.8468C61.1689 16.3546 61.8036 16.7952 61.9914 17.4524C62.3128 18.5772 63.3419 19.2417 63.3419 20.5217C63.3419 21.6433 63.2425 22.9474 64.0597 23.9689C64.2619 24.2216 64.4722 25.5019 64.2297 25.7444C63.7969 26.1771 63.4467 26.5204 62.8319 26.5566C62.1932 26.5942 61.8809 27.1504 61.5097 27.6143C61.3182 27.8538 60.8267 28.9809 60.792 29.2765C60.7311 29.7939 60.6573 30.8093 60.3198 31.1843C59.9718 31.5709 59.092 31.7867 59.092 32.3365" stroke="#ED40BC" stroke-linecap="round"/>
<path d="M27.1327 5.81706C26.1926 5.81706 25.396 5.64706 24.4978 5.64706C24.0382 5.64706 22.1729 5.68454 21.8628 6.07205C21.8 6.15055 21.0513 6.44965 20.9184 6.4876C20.5606 6.58982 20.4117 6.90999 20.1251 7.13925C19.903 7.31692 19.0683 7.4807 18.9824 7.78146C18.8648 8.19293 19.2399 8.87699 18.6329 8.87699C18.4707 8.87699 17.596 8.99252 17.4807 9.08476C17.1156 9.37689 16.5803 9.07288 16.168 9.30198C15.6274 9.6023 14.6011 10.1768 14.213 10.6619C13.7574 11.2315 13.207 11.7745 12.7208 12.3147C12.1276 12.9738 10.7545 13.8803 10.6431 14.8269C10.5704 15.4446 9.96137 16.1504 9.78368 16.7724C9.70175 17.0591 9.61381 17.6009 9.41535 17.849C9.18464 18.1374 8.78154 18.3301 8.60315 18.6423C8.41788 18.9665 8.02282 19.0958 7.93261 19.5017C7.90061 19.6457 8.04405 20.6303 8.13094 20.7389C8.6317 21.3649 9.28761 22.3164 8.56537 23.1189C8.08693 23.6505 7.26703 23.9743 6.90319 24.6111C6.4932 25.3286 6.2232 26.3674 6.2232 27.1516C6.2232 27.4818 6.61563 28.0635 6.35542 28.3888C6.08265 28.7297 5.94605 29.2846 5.71321 29.6921C5.29724 30.42 4.69324 30.982 4.69324 31.9115C4.69324 32.3648 4.69324 32.8181 4.69324 33.2714C4.69324 33.4697 4.78759 34.3668 4.90101 34.5086C5.3964 35.1279 5.72407 36.1491 5.33544 36.9263C5.12977 37.3377 4.67507 37.5126 5.07101 37.9085C5.42466 38.2622 5.79861 38.4263 6.05321 38.8719C6.49001 39.6363 7.03543 40.2413 7.41317 41.0912C7.72591 41.7949 8.11395 42.5197 8.56537 43.084C9.05663 43.6981 8.26316 44.9872 8.26316 45.5961C8.26316 46.0495 8.26316 46.5028 8.26316 46.9561C8.26316 47.3836 7.92316 47.7762 7.92316 48.2311C7.92316 49.0737 7.41317 49.9207 7.41317 50.781C7.41317 51.4391 7.14649 52.9551 7.54539 53.4537C7.72981 53.6843 7.86256 54.0627 8.09316 54.3509C8.38005 54.7096 8.77104 54.8494 9.07536 55.1537C9.40574 55.4841 9.24349 56.1288 9.4909 56.4381C9.70388 56.7043 9.89864 57.2482 9.97256 57.5809C10.1673 58.457 10.5481 59.1102 11.0775 59.7908C11.3971 60.2017 11.788 60.4969 12.0031 60.9808C12.149 61.3092 12.2101 62.1745 12.3808 62.388C12.5256 62.5689 12.6831 63.2945 12.6831 63.5307C12.6831 63.9897 13.169 64.3965 13.193 64.8057C13.2365 65.544 14.1884 66.3866 14.6852 66.8834C15.298 67.4962 15.8276 68.163 16.593 68.5456" stroke="#ED40BC" stroke-linecap="round"/>
<path d="M58.2421 32.5065C58.3522 31.6258 58.2853 31.1903 57.5999 30.4287C56.8576 29.6039 57.416 29.0866 57.2127 28.1716C57.112 27.7187 57.3371 27.3704 56.9577 26.991C56.5285 26.5619 56.3721 26.3396 56.3721 25.7066C56.3721 25.3583 56.7012 23.3859 56.6271 23.3267C56.3263 23.086 56.1988 22.5423 55.7866 22.3067C55.4653 22.1231 55.3054 21.8713 54.9272 21.7873C54.1581 21.6164 53.2053 21.1604 52.4622 21.1167C51.4481 21.0571 50.6331 21.02 49.6667 21.2962C48.7662 21.5534 47.6761 21.4567 46.6823 21.4567C45.8684 21.4567 44.9334 21.2412 44.3402 21.8345C43.8609 22.3137 43.0306 22.6467 42.3474 22.6467C41.1392 22.6467 42.0672 24.1381 41.4125 24.1767C40.6464 24.2217 40.1526 24.8402 39.467 25.0361C38.6803 25.2608 38.1915 25.7066 37.2476 25.7066C36.9688 25.7066 36.8234 25.6029 36.5676 25.5461C36.351 25.4979 36.2768 25.7066 36.0576 25.7066C35.5769 25.7066 35.2733 25.8766 34.7826 25.8766C34.2236 25.8766 34.0239 25.805 33.7249 26.1788C33.5202 26.4347 33.305 26.7036 33.0827 26.9816C32.4663 27.7521 32.2936 27.9 32.2327 28.9365C32.1786 29.8552 30.4878 29.8225 30.0605 30.1643C29.7443 30.4173 29.1408 30.091 28.8705 30.3343C28.6407 30.5412 28.1507 31.0216 27.9828 31.2315C27.5602 31.7597 26.3574 31.5968 25.8106 32.0343C25.3837 32.3758 24.1997 32.8465 23.6479 32.8465C22.8115 32.8465 22.0919 32.7554 21.8535 31.9209C21.6244 31.1193 20.9102 30.6881 20.3707 30.0887C19.3822 28.9904 16.863 28.3574 15.6108 29.4843C14.6833 30.3191 13.3631 31.7048 13.3631 33.1014C13.3631 34.0386 13.1931 34.7943 13.1931 35.7364C13.1931 36.2596 13.3895 37.7974 13.7881 38.1163C14.191 38.4386 14.3831 40.0635 14.3831 40.5813C14.3831 41.2025 14.9353 41.974 15.3653 42.404C15.963 43.0017 16.5615 43.395 17.188 43.8962C17.3903 44.058 17.6306 44.4962 17.8775 44.5667C18.2169 44.6637 18.809 44.5883 18.973 44.9162" stroke="#ED40BC" stroke-linecap="round"/>
<path d="M39.2025 33.3564C40.4686 33.1982 41.7419 32.3365 43.1124 32.3365C43.915 32.3365 44.5314 32.5065 45.3224 32.5065C45.9073 32.5065 47.0294 32.595 47.5323 32.8464" stroke="#ED40BC" stroke-linecap="round"/>
<path d="M38.6925 34.0364C40.0527 34.1164 41.6889 34.2584 43.0274 34.5558C43.5677 34.6759 44.1671 34.8864 44.7274 34.8864C45.1825 34.8864 46.1414 34.9791 46.5123 35.2264" stroke="#ED40BC" stroke-linecap="round"/>
<path d="M56.3721 33.8664C55.4856 33.9772 54.5766 33.3564 53.4822 33.3564" stroke="#ED40BC" stroke-linecap="round"/>
<path d="M55.5221 36.0764C55.0924 36.0764 54.7391 35.9064 54.3322 35.9064" stroke="#ED40BC" stroke-linecap="round"/>
<path d="M55.6921 44.5762C55.6921 42.3165 54.7798 40.1082 54.1621 37.9463C53.7739 36.5875 53.3121 34.8868 53.3121 33.4509C53.3121 32.473 53.4821 31.5955 53.4821 30.6365" stroke="#ED40BC" stroke-linecap="round"/>
<path d="M55.0121 44.9162C54.388 44.8382 53.815 43.9358 53.1421 43.8962C52.2969 43.8465 51.5324 43.7262 50.6772 43.7262C49.8995 43.7262 49.1758 43.7059 48.4766 43.9056C47.8012 44.0986 47.7108 45.2303 47.5322 45.7662" stroke="#ED40BC" stroke-linecap="round"/>
<path d="M43.6223 50.526C45.2671 50.3204 46.7825 49.1661 48.4672 49.1661C49.5818 49.1661 51.7646 49.9811 52.2921 51.036" stroke="#ED40BC" stroke-linecap="round"/>
<path d="M43.9624 50.526C44.6708 50.526 45.4034 51.036 46.0874 51.036C46.4218 51.036 47.8594 51.5723 48.0423 51.801C48.2536 52.0652 49.7268 52.226 50.0823 52.226C50.8189 52.226 53.0289 52.226 52.2922 52.226" stroke="#ED40BC" stroke-linecap="round"/>
<path d="M46.6823 54.436C47.3367 54.436 47.7755 54.2728 48.4672 54.4265C48.9124 54.5254 49.6739 54.606 50.0822 54.606" stroke="#ED40BC" stroke-linecap="round"/>
<path d="M21.8628 39.9863C21.0412 39.9863 20.2195 39.9863 19.3979 39.9863C18.7968 39.9863 17.5386 39.8505 17.018 39.5613C15.343 38.6308 16.0781 36.8618 15.7335 35.3114C15.5224 34.3612 15.8824 31.8265 17.2729 31.8265C18.1538 31.8265 18.564 31.852 19.1807 32.4687C19.4967 32.7847 19.8229 33.9334 19.8229 34.3764" stroke="#ED40BC" stroke-linecap="round"/>
<path d="M38.6925 28.2566C38.7942 28.2439 39.3178 28.0699 39.3725 28.0016C39.5433 27.788 39.9848 27.9844 40.2225 27.8788C40.6807 27.6751 41.4332 27.73 41.7902 27.4444C41.9682 27.302 43.1873 27.0978 43.4524 27.0666C43.6092 27.0482 44.0317 26.7675 44.1324 26.6416C44.2754 26.4628 44.7697 26.5566 44.9824 26.5566C46.2285 26.5566 47.1245 27.1309 48.2123 27.6144C49.3508 28.1204 50.6952 28.2566 51.9522 28.2566" stroke="#ED40BC" stroke-linecap="round"/>
<path d="M38.8624 28.5966C40.0874 28.5966 41.2074 28.7666 42.4323 28.7666C43.67 28.7666 44.7564 28.787 45.9078 29.116C46.8098 29.3737 47.6877 30.1265 48.6372 30.1265C49.0027 30.1265 50.1024 30.3143 50.3844 30.0887C50.5872 29.9265 51.5049 29.4465 51.7821 29.4465" stroke="#ED40BC" stroke-linecap="round"/>
<path d="M57.732 31.4865C57.3656 31.1608 56.8596 31.4685 56.5043 31.1843C56.389 31.092 55.5143 30.9765 55.3521 30.9765C54.4574 30.9765 53.6333 31.1465 52.8021 31.1465" stroke="#ED40BC" stroke-linecap="round"/>
<path d="M23.5629 52.566C25.7279 52.566 28.2031 52.6762 30.0227 53.586" stroke="#ED40BC" stroke-linecap="round"/>
<path d="M32.7427 52.736C33.3606 52.8132 34.1328 53.7786 34.6882 54.096C35.3895 54.4967 35.9414 55.1021 36.7376 55.4559C38.0417 56.0356 39.6131 56.8383 40.6947 57.7037C41.3439 58.223 42.0078 58.2233 42.6874 58.6009C43.1719 58.87 44.5075 59.0258 45.0674 59.0258C45.9167 59.0258 46.7248 58.9007 47.5323 58.8559C47.8801 58.8365 49.8215 58.3574 49.9123 58.1759" stroke="#ED40BC" stroke-linecap="round"/>
<path d="M39.3725 61.9158C38.3352 61.8548 36.9783 60.7942 36.152 60.2158C35.2075 59.5547 34.1994 59.1402 33.2148 58.5536C32.021 57.8424 30.7569 57.183 29.5127 56.5609C29.0465 56.3278 28.3241 55.9659 27.8127 55.9659" stroke="#ED40BC" stroke-linecap="round"/>
</svg>
