<svg width="304" height="306" viewBox="0 0 304 306" fill="none" xmlns="http://www.w3.org/2000/svg">
<path d="M130.272 145.79C130.762 148.561 131.564 151.31 132.751 153.866C134.997 158.653 138.779 163.496 141.469 168.04C142.058 169.053 142.628 170.121 143.051 171.214C143.736 172.913 144.971 177.44 145.524 179.235C146.069 180.978 146.662 182.762 147.573 184.351C148.577 186.134 150.26 187.993 151.562 189.581C151.888 189.987 152.226 190.407 152.435 190.888C152.681 191.447 152.779 192.067 152.875 192.667L153.557 197.649C154.153 201.613 155.249 205.566 157.223 209.076C158.365 211.149 160.13 213.242 161.301 215.3C161.749 216.096 162.141 216.959 162.486 217.804C163.477 220.364 165.102 224.897 165.983 227.481C166.297 228.477 166.658 229.499 166.703 230.551C166.723 231.384 166.51 232.43 166.463 233.262C166.43 233.763 166.416 234.277 166.517 234.773C166.587 235.113 166.716 235.442 166.886 235.744C167.049 236.046 167.292 236.352 167.469 236.645C167.582 236.835 167.651 237.05 167.68 237.268C167.76 237.824 167.711 239.112 167.722 239.681C167.731 240.418 167.76 241.179 167.876 241.907C167.996 242.681 168.263 243.447 168.747 244.071C169.183 244.643 169.776 245.073 170.397 245.424L171.468 246.013C171.939 246.281 172.407 246.581 172.78 246.979C173.424 247.665 173.812 248.547 174.152 249.413L174.896 251.408C175.225 252.252 175.613 253.102 176.24 253.77C176.493 254.039 176.783 254.283 177.12 254.441C177.499 254.622 177.93 254.649 178.345 254.655C180.026 254.638 183.082 254.754 184.714 254.56C185.283 254.494 185.862 254.405 186.406 254.221C186.741 254.108 187.063 253.942 187.328 253.704C187.567 253.49 187.753 253.217 187.861 252.915C188.036 252.431 187.993 251.871 188 251.364C187.993 250.895 187.988 250.406 187.836 249.957C187.793 249.833 187.733 249.714 187.652 249.61C187.484 249.388 187.199 249.186 186.991 249.001C186.514 248.599 186.098 248.117 185.718 247.624C185.053 246.768 183.421 244.413 182.762 243.545C181.968 242.477 179.642 239.603 178.784 238.525C178.333 237.919 177.761 237.243 177.398 236.585C177.313 236.421 177.249 236.244 177.221 236.061C177.174 235.754 177.214 235.437 177.255 235.131C177.35 234.444 177.518 233.589 177.472 232.9C177.449 232.542 177.368 232.187 177.237 231.853C176.977 231.159 176.387 230.337 175.996 229.705C175.618 229.097 175.277 228.451 175.008 227.787C174.693 227.012 174.46 226.19 174.27 225.376C173.974 224.08 173.778 222.724 173.667 221.399C173.505 219.696 173.519 215.978 173.483 214.228C173.367 210.451 173.152 206 172.804 202.239C172.661 200.929 172.447 199.597 172.101 198.324C171.407 195.76 170.223 193.334 168.867 191.058C167.682 189.091 166.356 187.118 164.918 185.326L163.845 184.044C163.568 183.707 163.304 183.349 163.116 182.954C162.794 182.284 162.623 181.545 162.473 180.82C162.289 179.903 162.116 178.736 161.866 177.838C161.684 177.164 161.439 176.497 161.154 175.86L160.236 173.849C159.754 172.765 159.35 171.633 159.163 170.459C159.052 169.812 158.987 169.108 158.942 168.45C158.847 166.921 158.76 163.63 158.672 162.094C158.431 157.392 157.833 152.574 156.919 147.955C156.384 145.233 155.695 142.497 154.733 139.893C154.41 139.015 153.638 137.079 153.398 136.213C153.234 135.648 153.119 135.061 153.055 134.476C152.853 132.37 152.947 129.99 152.975 127.87C153 126.535 153.165 123.462 153.065 122.167C153.024 121.49 152.911 120.806 152.757 120.145C152.565 119.292 152.265 118.274 152.158 117.407C151.978 116.05 152.452 114.643 152.521 113.293C152.788 109.186 151.032 104.909 150.476 100.89C150.414 100.379 150.386 99.8517 150.422 99.3376C150.454 98.812 150.557 98.2847 150.672 97.7719C151.32 95.1794 152.005 91.9386 152.493 89.3133C153.058 86.2435 153.615 82.8938 153.897 79.7921C154.235 76.5535 154.161 72.313 154.308 69.0518" stroke="currentColor" stroke-width="3" stroke-miterlimit="10" stroke-linecap="round" stroke-linejoin="round"/>
<path d="M135.302 37.0826C135.405 38.0403 135.614 39.002 135.883 39.9266C136.18 40.9662 136.606 41.9771 137.141 42.9163" stroke="currentColor" stroke-width="3" stroke-miterlimit="10" stroke-linecap="round" stroke-linejoin="round"/>
<path d="M154.308 69.0528L154.923 70.2147C155.252 70.8177 155.628 71.408 156.058 71.9438C156.766 72.8382 158.249 74.2604 159.056 75.0951C159.645 75.7154 160.239 76.3632 160.705 77.0823C161.167 77.7815 161.529 78.7033 161.864 79.4738C162.242 80.3563 162.748 81.19 163.331 81.9516C164.001 82.8341 164.755 83.6696 165.544 84.4472C166.463 85.3443 167.444 86.2033 168.535 86.8856C169.293 87.3612 170.124 87.7335 170.964 88.0369C171.813 88.3406 172.7 88.6266 173.581 88.8232C174.184 88.9552 174.807 89.0557 175.426 89.0495C175.928 89.042 176.453 88.9632 176.882 88.686C177.454 88.318 177.793 87.691 178.018 87.0667C178.183 86.6235 178.281 86.1019 178.424 85.6511C178.56 85.2092 178.84 84.7775 179.076 84.3817C179.322 83.9641 179.55 83.5213 179.647 83.0435C179.718 82.7075 179.711 82.3581 179.663 82.0189C179.542 81.1365 179.138 80.1614 178.891 79.3064C178.653 78.5612 178.571 77.5893 178.48 76.8113C178.41 76.2755 178.294 75.7393 178.09 75.2376C177.747 74.399 177.224 73.6392 176.66 72.9343C176.025 72.1519 175.307 71.4204 174.531 70.777C173.907 70.251 173.015 69.6913 172.332 69.2348C171.877 68.9253 171.432 68.5852 171.033 68.2057C169.971 67.2006 168.813 65.6199 167.891 64.4668C167.345 63.7646 166.596 62.9707 166.037 62.2759C165.874 62.0665 165.714 61.8451 165.582 61.6144C165.359 61.2345 165.235 60.8041 165.136 60.3773C165.003 59.7826 164.849 59.1056 164.636 58.5375C164.298 57.6147 163.853 56.7136 163.388 55.8489C162.76 54.6932 162.029 53.5132 161.276 52.435C160.521 51.3546 159.686 50.3114 158.759 49.3727C157.837 48.4313 156.796 47.5727 155.745 46.7775" stroke="currentColor" stroke-width="3" stroke-miterlimit="10" stroke-linecap="round" stroke-linejoin="round"/>
<path d="M166.261 82.7667C165.286 81.5283 164.266 80.218 163.452 78.8755C161.466 75.6347 159.126 70.1362 157.347 66.7405C156.975 66.0488 156.575 65.3537 156.076 64.7457C155.737 64.3357 155.34 63.9611 154.866 63.7136C154.526 63.5343 154.154 63.4125 153.786 63.3076C153.216 63.1508 152.51 62.9693 151.976 62.7364C151.203 62.4047 150.493 61.9269 149.831 61.4115C148.889 60.6694 148.022 59.8184 147.246 58.9054C146.517 58.0313 145.78 57.0638 145.6 55.9108C145.543 55.5318 145.558 55.1421 145.643 54.7684C145.855 53.8354 146.395 52.9237 146.664 52.0085C146.761 51.6773 146.828 51.3315 146.814 50.9852C146.806 50.7346 146.748 50.4858 146.652 50.2537C146.177 49.1291 145.116 48.3723 144.29 47.5204C144.087 47.3052 143.928 47.0635 143.886 46.7646C143.826 46.312 143.885 45.8427 143.944 45.3928C144.049 44.6963 144.216 43.998 144.49 43.3476C144.663 42.9433 144.884 42.5444 145.219 42.2508C145.391 42.0994 145.592 41.9794 145.811 41.909C146.029 41.8377 146.263 41.816 146.491 41.8364C146.854 41.8682 147.2 42.0037 147.52 42.172C148.012 42.4319 148.467 42.7777 148.904 43.1204C149.729 43.7957 150.892 44.7415 151.75 45.3525C152.017 45.5354 154.311 47.1861 154.532 47.3048C154.646 47.3712 154.766 47.4327 154.895 47.4655C154.994 47.4908 155.101 47.4952 155.199 47.4624C155.314 47.4248 155.41 47.3451 155.488 47.2543C155.674 47.032 155.772 46.7482 155.821 46.4657C155.892 46.0543 155.839 45.6293 155.713 45.2334C155.536 44.6755 155.229 44.1636 154.865 43.7076C153.615 42.1388 151.701 41.2891 149.808 40.7719C148.913 40.5323 147.984 40.3548 147.058 40.2915C146.652 40.2676 146.235 40.2574 145.835 40.3481C145.239 40.477 144.765 40.8954 144.335 41.3055C143.845 41.7637 143.235 42.4416 142.665 42.7879C142.544 42.8583 142.414 42.919 142.276 42.942C142.124 42.9686 141.969 42.9447 141.825 42.8955C141.613 42.8247 141.343 42.6808 141.138 42.586C140.652 42.3584 140.131 42.1884 139.608 42.0635C139.185 41.9652 138.749 41.8917 138.313 41.893C138.001 41.8988 137.651 41.9324 137.401 42.1366C137.199 42.3048 137.138 42.5811 137.139 42.8335C137.148 43.3835 137.34 43.9148 137.529 44.4249C138.261 46.2501 139.14 48.0557 140.386 49.5891C141.901 51.4519 143.73 53.0716 145.754 54.3624" stroke="currentColor" stroke-width="3" stroke-miterlimit="10" stroke-linecap="round" stroke-linejoin="round"/>
<path d="M103.836 72.7699C104.375 74.3365 104.795 75.9739 104.835 77.6375C104.885 78.9251 104.61 81.1718 104.498 82.4789C104.357 83.9897 104.218 87.5006 104.101 89.0331C103.949 90.9968 103.71 93.0018 103.211 94.9093C102.676 97.0302 101.548 99.4656 100.694 101.488C100.358 102.313 100.021 103.17 99.8441 104.044C99.7334 104.591 99.6905 105.155 99.7064 105.712C99.7153 106.045 99.7472 106.404 99.7857 106.734C99.9229 107.78 100.221 109.858 100.335 110.891C100.54 112.961 100.957 115.645 100.888 117.709C100.861 118.578 100.752 119.462 100.567 120.312C100.375 121.194 100.083 122.104 99.7928 122.96C99.2193 124.65 98.2235 127.162 97.8573 128.878C97.7289 129.458 97.6328 130.056 97.6134 130.65C97.593 131.241 97.6448 131.838 97.7581 132.419C97.9826 133.591 98.5392 134.917 98.9568 136.037C99.0732 136.319 99.2034 136.602 99.3832 136.85C99.4762 136.978 99.5842 137.097 99.7095 137.193C99.8481 137.3 100.007 137.381 100.168 137.448C100.67 137.648 101.25 137.799 101.708 138.094C102.705 138.719 103.664 139.798 104.511 140.615C105.163 141.247 106.039 141.988 106.555 142.731C106.873 143.183 107.094 143.7 107.285 144.217C107.595 145.104 107.96 146.173 108.397 146.995C109.064 148.328 110.012 149.803 110.586 151.178C110.76 151.615 110.919 152.076 110.92 152.552C110.92 152.82 110.847 153.08 110.676 153.29C110.446 153.583 110.092 153.794 109.826 154.051C109.747 154.128 109.672 154.214 109.618 154.311C109.478 154.564 109.503 154.866 109.535 155.143C109.6 155.606 109.674 156.067 109.596 156.534C109.469 157.38 109.024 158.227 108.25 158.643C107.68 158.957 107.023 159.07 106.383 159.148C105.332 159.266 104.256 159.287 103.209 159.117C102.541 159.002 101.848 158.803 101.348 158.321C100.788 157.786 100.483 157.014 100.079 156.366C99.4846 155.402 98.7349 154.534 97.9211 153.749C97.5337 153.377 97.1126 153.016 96.6857 152.69C96.115 152.251 95.3343 151.741 94.7609 151.303C94.4647 151.072 94.176 150.817 93.9652 150.504C93.7673 150.215 93.6442 149.88 93.5557 149.543C93.4605 149.204 93.2909 148.318 93.2134 147.975C93.0447 147.193 92.7777 146.426 92.4301 145.706C92.0174 144.808 91.3913 143.748 91.2018 142.779C91.0982 142.236 91.15 141.648 91.1141 141.099C91.0871 140.586 90.9366 140.087 90.7568 139.609C90.4495 138.783 90.0098 137.859 89.8207 136.997C89.6968 136.442 89.6791 135.866 89.6977 135.299L89.7685 133.801C89.7942 133.132 89.7632 132.444 89.6963 131.779C89.4988 129.848 88.9046 126.715 88.6429 124.782C88.2568 122.037 88.0571 119.186 88.0071 116.414C87.9854 114.623 88.0031 112.756 88.2094 110.976C88.2962 110.162 88.5296 109.188 88.6792 108.382C88.7466 107.994 88.7868 107.595 88.7722 107.202C88.7337 106.207 88.4742 105.145 88.5052 104.147C88.5221 103.156 88.9454 102.12 89.2416 101.184C89.4165 100.634 89.5693 100.068 89.6676 99.4997C89.8367 98.5286 89.8987 97.4983 89.9337 96.5126C90.0151 93.3458 89.869 89.6534 90.2875 86.5211C90.4686 85.052 90.7351 83.554 91.1442 82.1309C91.4152 81.1616 91.8934 79.8939 92.0267 78.9039C92.0989 78.3978 92.0661 77.8801 91.9802 77.378C91.8886 76.8307 91.6778 75.9297 91.5888 75.3833C91.4905 74.8023 91.421 74.1824 91.3767 73.5949C91.1026 69.5199 91.5906 65.3152 93.2767 61.567C94.0542 59.8397 95.0394 58.1721 96.3275 56.7743C96.9806 56.0707 97.736 55.4517 98.5631 54.9633C99.5329 54.3664 100.966 53.8519 102.023 53.4201C102.771 53.1133 103.516 52.7551 104.19 52.3061C105.049 51.7406 106.12 50.8754 106.984 50.318C107.591 49.9181 108.248 49.5719 108.91 49.273L111.169 48.2873C112.404 47.733 113.632 47.0591 114.526 46.0203C115.817 44.5582 116.452 42.6347 116.713 40.7285C116.928 39.1721 116.945 37.5644 116.849 35.9965C116.838 35.7303 116.849 35.4558 116.947 35.2052C117.168 34.6672 117.626 34.2169 117.766 33.6302C117.825 33.3889 117.812 33.1361 117.777 32.8921C117.71 32.4134 117.554 31.9064 117.595 31.4189C117.676 30.5666 118.282 29.8333 118.443 29.0018C118.561 28.423 118.455 27.7867 118.524 27.2036C118.589 26.6563 118.906 26.1825 119.229 25.7513" stroke="currentColor" stroke-width="3" stroke-miterlimit="10" stroke-linecap="round" stroke-linejoin="round"/>
<path d="M130.33 139.591C130.372 144.317 130.212 149.298 129.803 154.004C129.629 156.303 129.093 158.879 128.928 161.177C128.813 162.7 129.102 164.702 129.256 166.229C129.415 167.78 129.352 169.367 129.192 170.916C129.082 172.007 128.849 173.544 128.893 174.625C128.941 176.064 129.238 177.78 129.301 179.218C129.438 181.442 129.022 183.669 128.391 185.794C128.266 186.221 127.888 187.386 127.786 187.784C127.76 187.89 127.734 187.995 127.722 188.103C127.707 188.23 127.715 188.36 127.743 188.485C127.773 188.617 127.821 188.75 127.872 188.876C127.986 189.161 128.639 190.527 128.785 190.839C129.632 192.673 130.38 194.592 130.866 196.555C131.629 199.631 131.88 202.844 131.786 206.006C131.717 208.419 131.464 211.524 131.48 213.933C131.491 216.377 131.668 218.862 131.986 221.286C132.298 223.605 132.735 225.948 133.493 228.168C133.998 229.698 134.842 231.281 135.585 232.71C135.885 233.315 136.171 233.943 136.343 234.597C136.445 234.988 136.504 235.397 136.464 235.801C136.396 236.436 136.122 237.059 136.036 237.692C135.882 238.687 136.097 240.002 136.166 241.007C136.236 241.825 136.228 242.662 136.144 243.479C136.099 243.843 135.942 245.287 135.925 245.658C135.906 246.041 135.907 246.444 135.924 246.827C135.946 247.618 136.114 248.68 136.012 249.471C135.982 249.686 135.929 249.906 135.8 250.084C135.754 250.146 135.697 250.201 135.632 250.243C135.565 250.286 135.49 250.317 135.414 250.339C135.197 250.402 134.964 250.41 134.739 250.422C134.32 250.43 123.358 250.446 122.806 250.424C122.461 250.407 122.1 250.392 121.78 250.249C121.61 250.172 121.465 250.034 121.401 249.856C121.347 249.709 121.339 249.551 121.351 249.397C121.371 249.156 121.438 248.92 121.516 248.693C121.794 247.918 122.242 247.155 122.648 246.438C123.663 244.686 124.827 242.811 125.37 240.854C125.536 240.237 125.74 239.554 125.656 238.911C125.614 238.591 125.476 238.292 125.301 238.023C125.052 237.631 124.705 237.216 124.484 236.808C124.225 236.347 124.133 235.813 124.137 235.29C124.139 234.631 124.272 233.872 124.345 233.215C124.423 232.531 124.459 231.828 124.432 231.14C124.288 226.899 121.986 222.808 120.29 219.01C118.268 214.586 116.275 209.854 114.731 205.245C113.902 202.747 113.186 200.154 112.857 197.539C112.542 195.14 112.609 192.69 112.943 190.296C113.246 188.036 113.84 185.542 113.842 183.254C113.84 182.688 113.78 182.115 113.666 181.561C113.496 180.75 113.208 179.694 113.117 178.859C112.932 177.341 112.928 175.782 113.126 174.265C113.234 173.365 113.504 172.166 113.565 171.261C113.575 171.048 113.566 170.83 113.522 170.621C113.484 170.434 113.419 170.25 113.34 170.077L113.324 170.044L113.308 170.01L113.291 169.975C113.261 169.917 113.213 169.818 113.178 169.76L113.136 169.684L113.091 169.606L113.044 169.526L112.941 169.356L112.567 168.759C111.94 167.727 111.489 166.579 111.081 165.446C110.25 163.095 109.551 160.506 108.926 158.089" stroke="currentColor" stroke-width="3" stroke-miterlimit="10" stroke-linecap="round" stroke-linejoin="round"/>
<path d="M104.624 81.1594C104.947 81.9237 105.319 82.8615 105.75 83.5646C106.257 84.4338 107.469 85.996 108.068 86.8298C108.569 87.5497 109.113 88.2989 109.405 89.1309C109.565 89.5839 109.588 90.1356 109.628 90.6125C109.673 91.146 109.805 91.6716 109.996 92.1711C110.619 93.7926 111.546 95.3698 112.42 96.87C112.46 96.9421 112.499 97.017 112.519 97.0975C112.537 97.1702 112.538 97.2468 112.532 97.3212C112.442 98.0584 112.174 98.8771 111.952 99.5891C111.512 100.929 110.984 102.268 110.291 103.498C109.725 104.511 108.927 105.734 108.602 106.847C108.363 107.635 108.297 108.475 108.259 109.294C108.225 110.212 108.207 111.727 108.101 112.614C108.04 113.176 107.928 113.748 107.784 114.294C107.351 115.952 106.573 117.648 106.385 119.362C106.232 120.653 106.31 122.154 106.218 123.45C106.174 124.139 106.065 124.835 105.897 125.504C105.448 127.276 104.712 129.148 104.475 130.967C104.036 134.421 104.76 137.989 105.332 141.39" stroke="currentColor" stroke-width="3" stroke-miterlimit="10" stroke-linecap="round" stroke-linejoin="round"/>
<path d="M124.659 31.739C126.304 31.9035 128.672 32.5327 130.17 33.2136C131.623 33.8741 133.272 33.906 134.698 34.5542C135.213 34.788 136.023 34.9564 136.59 34.9564C137.089 34.9564 137.589 35.4646 138.065 35.4926C138.836 35.538 138.895 35.6039 139.122 34.8074C139.309 34.1535 139.454 33.5548 139.882 33.02C140.531 32.2084 140.255 30.5769 141.148 29.8622C141.67 29.4447 142.354 26.6541 142.354 25.9745C142.354 24.7039 143.086 23.3904 143.159 22.0868C143.231 20.7874 143.427 19.4377 143.427 18.0651C143.427 13.3765 140.988 10.1471 137.528 7.07231C136.079 5.78426 133.117 4.65926 131.228 4.65926C128.645 4.65926 126.315 3.96521 123.854 5.19549" stroke="currentColor" stroke-width="3" stroke-linecap="round"/>
<path d="M124.641 29.4694C124.641 27.6092 125.879 25.6156 125.989 23.7388C126.102 21.8193 126.326 19.6004 126.326 17.5026C126.326 15.4921 126.18 13.0293 125.633 11.1166C125.158 9.45375 124.303 6.93508 124.303 5.19873" stroke="currentColor" stroke-width="3" stroke-linecap="round"/>
<path d="M124.963 4.5473C123.313 5.32354 121.324 5.36596 119.59 5.89933C117.904 6.41828 116.315 7.02123 114.716 7.82064C112.673 8.84201 110.363 11.9439 110.233 14.1538C110.163 15.3446 109.401 17.3268 109.984 18.6369C110.311 19.3729 110.171 20.0668 110.553 20.7361C110.995 21.5104 111.828 21.805 112.225 22.4795C112.909 23.6424 114.414 24.2413 115.285 25.1124C116.081 25.9086 116.796 27.8423 117.598 28.2434" stroke="currentColor" stroke-width="3" stroke-linecap="round"/>
<path d="M25.584 287.856C24.72 289.968 23.504 291.6 21.936 292.752C20.368 293.904 18.016 294.48 14.88 294.48C10.944 294.48 8.096 293.28 6.336 290.88C4.576 288.448 3.696 284.672 3.696 279.552V274.848C3.696 269.728 4.576 265.968 6.336 263.568C8.096 261.136 10.944 259.92 14.88 259.92C18.016 259.92 20.368 260.496 21.936 261.648C23.504 262.8 24.72 264.432 25.584 266.544L24.288 267.168C23.552 265.312 22.512 263.888 21.168 262.896C19.824 261.872 17.728 261.36 14.88 261.36C13.312 261.36 11.968 261.568 10.848 261.984C9.728 262.368 8.72 263.04 7.824 264C6.928 264.96 6.256 266.352 5.808 268.176C5.36 269.968 5.136 272.192 5.136 274.848V279.552C5.136 282.208 5.36 284.448 5.808 286.272C6.256 288.064 6.928 289.44 7.824 290.4C8.72 291.36 9.728 292.048 10.848 292.464C11.968 292.848 13.312 293.04 14.88 293.04C17.728 293.04 19.824 292.544 21.168 291.552C22.512 290.528 23.552 289.088 24.288 287.232L25.584 287.856ZM50.0119 294H48.5719V280.08H34.1719V294H32.7319V266.16H34.1719V278.64H48.5719V266.16H50.0119V294ZM61.6665 292.56H77.3145L67.4745 269.376L57.0105 294H55.4745L67.4745 265.68L79.4745 294H61.6665V292.56ZM84.9506 266.16H86.3906V294H84.9506V266.16ZM95.4975 294V266.16H96.9375L112.586 291.36V266.16H114.026V294H112.586L96.9375 268.752V294H95.4975ZM122.674 294V280.08C122.674 275.024 123.538 271.36 125.266 269.088C127.026 266.816 129.89 265.68 133.858 265.68C138.498 265.68 141.65 267.2 143.314 270.24L133.282 278.64H143.506V280.08H129.298L141.442 269.952C140.034 268.064 137.506 267.12 133.858 267.12C132.258 267.12 130.914 267.296 129.826 267.648C128.738 267.968 127.73 268.592 126.802 269.52C125.906 270.416 125.234 271.744 124.786 273.504C124.338 275.232 124.114 277.424 124.114 280.08V294H122.674ZM169.34 291.168C167.58 293.376 164.7 294.48 160.7 294.48C156.7 294.48 153.836 293.344 152.108 291.072C150.38 288.8 149.516 285.136 149.516 280.08C149.516 275.024 150.38 271.36 152.108 269.088C153.836 266.816 156.7 265.68 160.7 265.68C165.34 265.68 168.492 267.2 170.156 270.24L158.396 280.08H156.14L168.284 269.952C166.876 268.064 164.348 267.12 160.7 267.12C159.1 267.12 157.756 267.296 156.668 267.648C155.58 267.968 154.572 268.592 153.644 269.52C152.748 270.416 152.076 271.744 151.628 273.504C151.18 275.232 150.956 277.424 150.956 280.08C150.956 282.736 151.18 284.944 151.628 286.704C152.076 288.432 152.748 289.76 153.644 290.688C154.572 291.584 155.58 292.208 156.668 292.56C157.756 292.88 159.1 293.04 160.7 293.04C164.348 293.04 166.876 292.096 168.284 290.208L169.34 291.168ZM188.725 280.032L195.253 294H193.669L186.949 279.6C187.013 279.568 187.285 279.44 187.765 279.216C188.277 278.96 188.629 278.784 188.821 278.688C189.013 278.56 189.333 278.352 189.781 278.064C190.229 277.776 190.565 277.504 190.789 277.248C191.013 276.96 191.253 276.64 191.509 276.288C191.797 275.904 192.005 275.488 192.133 275.04C192.261 274.56 192.325 274.048 192.325 273.504C192.325 271.488 191.365 270 189.445 269.04C187.525 268.08 185.141 267.6 182.293 267.6H178.453V294H177.013V266.16H182.293C186.069 266.16 188.917 266.816 190.837 268.128C192.789 269.44 193.765 271.232 193.765 273.504C193.765 274.976 193.269 276.288 192.277 277.44C191.285 278.56 190.101 279.424 188.725 280.032ZM220.387 291.168C218.627 293.376 215.747 294.48 211.747 294.48C207.747 294.48 204.883 293.344 203.155 291.072C201.427 288.8 200.563 285.136 200.563 280.08C200.563 275.024 201.427 271.36 203.155 269.088C204.883 266.816 207.747 265.68 211.747 265.68C216.387 265.68 219.539 267.2 221.203 270.24L209.443 280.08H207.187L219.331 269.952C217.923 268.064 215.395 267.12 211.747 267.12C210.147 267.12 208.803 267.296 207.715 267.648C206.627 267.968 205.619 268.592 204.691 269.52C203.795 270.416 203.123 271.744 202.675 273.504C202.227 275.232 202.003 277.424 202.003 280.08C202.003 282.736 202.227 284.944 202.675 286.704C203.123 288.432 203.795 289.76 204.691 290.688C205.619 291.584 206.627 292.208 207.715 292.56C208.803 292.88 210.147 293.04 211.747 293.04C215.395 293.04 217.923 292.096 219.331 290.208L220.387 291.168ZM228.06 294V266.16H229.5L245.148 291.36V266.16H246.588V294H245.148L229.5 268.752V294H228.06ZM257.108 291.072C255.38 288.8 254.516 285.136 254.516 280.08C254.516 275.024 255.38 271.36 257.108 269.088C258.836 266.816 261.7 265.68 265.7 265.68C269.7 265.68 272.58 266.784 274.34 268.992L273.284 269.952C271.876 268.064 269.348 267.12 265.7 267.12C264.1 267.12 262.756 267.296 261.668 267.648C260.58 267.968 259.572 268.592 258.644 269.52C257.748 270.416 257.076 271.744 256.628 273.504C256.18 275.232 255.956 277.424 255.956 280.08C255.956 282.736 256.18 284.944 256.628 286.704C257.076 288.432 257.748 289.76 258.644 290.688C259.572 291.584 260.58 292.208 261.668 292.56C262.756 292.88 264.1 293.04 265.7 293.04C269.348 293.04 271.876 292.096 273.284 290.208L274.34 291.168C272.58 293.376 269.7 294.48 265.7 294.48C261.7 294.48 258.836 293.344 257.108 291.072ZM300.122 291.168C298.362 293.376 295.482 294.48 291.482 294.48C287.482 294.48 284.618 293.344 282.89 291.072C281.162 288.8 280.298 285.136 280.298 280.08C280.298 275.024 281.162 271.36 282.89 269.088C284.618 266.816 287.482 265.68 291.482 265.68C296.122 265.68 299.274 267.2 300.938 270.24L289.178 280.08H286.922L299.066 269.952C297.658 268.064 295.13 267.12 291.482 267.12C289.882 267.12 288.538 267.296 287.45 267.648C286.362 267.968 285.354 268.592 284.426 269.52C283.53 270.416 282.858 271.744 282.41 273.504C281.962 275.232 281.738 277.424 281.738 280.08C281.738 282.736 281.962 284.944 282.41 286.704C282.858 288.432 283.53 289.76 284.426 290.688C285.354 291.584 286.362 292.208 287.45 292.56C288.538 292.88 289.882 293.04 291.482 293.04C295.13 293.04 297.658 292.096 299.066 290.208L300.122 291.168Z" fill="currentColor"/>
<path d="M25.584 287.856L26.5095 288.235L26.866 287.363L26.0178 286.955L25.584 287.856ZM21.936 292.752L21.3439 291.946L21.3439 291.946L21.936 292.752ZM6.336 290.88L5.52587 291.466L5.52959 291.471L6.336 290.88ZM6.336 263.568L7.14242 264.159L7.14612 264.154L6.336 263.568ZM21.936 261.648L21.3439 262.454L21.3439 262.454L21.936 261.648ZM25.584 266.544L26.0178 267.445L26.866 267.037L26.5095 266.165L25.584 266.544ZM24.288 267.168L23.3584 267.537L23.7543 268.535L24.7218 268.069L24.288 267.168ZM21.168 262.896L20.562 263.691L20.568 263.696L20.5741 263.701L21.168 262.896ZM10.848 261.984L11.1723 262.93L11.1843 262.926L11.1962 262.921L10.848 261.984ZM7.824 264L8.55506 264.682L8.55506 264.682L7.824 264ZM5.808 268.176L6.77815 268.419L6.77914 268.415L5.808 268.176ZM5.808 286.272L4.83686 286.511L4.83786 286.515L5.808 286.272ZM7.824 290.4L7.09294 291.082L7.09294 291.082L7.824 290.4ZM10.848 292.464L10.4998 293.401L10.5117 293.406L10.5237 293.41L10.848 292.464ZM21.168 291.552L21.7619 292.357L21.768 292.352L21.774 292.347L21.168 291.552ZM24.288 287.232L24.7218 286.331L23.7543 285.865L23.3584 286.863L24.288 287.232ZM24.6585 287.477C23.852 289.449 22.7396 290.921 21.3439 291.946L22.5281 293.558C24.2684 292.279 25.588 290.487 26.5095 288.235L24.6585 287.477ZM21.3439 291.946C20.024 292.916 17.923 293.48 14.88 293.48V295.48C18.109 295.48 20.712 294.892 22.5281 293.558L21.3439 291.946ZM14.88 293.48C11.1503 293.48 8.65629 292.353 7.1424 290.289L5.52959 291.471C7.53571 294.207 10.7377 295.48 14.88 295.48V293.48ZM7.14612 290.294C5.5697 288.115 4.696 284.595 4.696 279.552H2.696C2.696 284.749 3.5823 288.781 5.52588 291.466L7.14612 290.294ZM4.696 279.552V274.848H2.696V279.552H4.696ZM4.696 274.848C4.696 269.804 5.57037 266.303 7.1424 264.159L5.52959 262.977C3.58163 265.633 2.696 269.652 2.696 274.848H4.696ZM7.14612 264.154C8.66191 262.06 11.1552 260.92 14.88 260.92V258.92C10.7328 258.92 7.53009 260.212 5.52588 262.982L7.14612 264.154ZM14.88 260.92C17.923 260.92 20.024 261.484 21.3439 262.454L22.5281 260.842C20.712 259.508 18.109 258.92 14.88 258.92V260.92ZM21.3439 262.454C22.7396 263.479 23.852 264.951 24.6585 266.923L26.5095 266.165C25.588 263.913 24.2684 262.121 22.5281 260.842L21.3439 262.454ZM25.1502 265.643L23.8542 266.267L24.7218 268.069L26.0178 267.445L25.1502 265.643ZM25.2176 266.799C24.4262 264.804 23.2835 263.215 21.7619 262.091L20.5741 263.701C21.7405 264.561 22.6778 265.82 23.3584 267.537L25.2176 266.799ZM21.774 262.101C20.172 260.88 17.8108 260.36 14.88 260.36V262.36C17.6452 262.36 19.476 262.864 20.562 263.691L21.774 262.101ZM14.88 260.36C13.2282 260.36 11.76 260.579 10.4998 261.047L11.1962 262.921C12.176 262.557 13.3958 262.36 14.88 262.36V260.36ZM10.5237 261.038C9.23217 261.481 8.08842 262.251 7.09294 263.318L8.55506 264.682C9.35158 263.829 10.2238 263.255 11.1723 262.93L10.5237 261.038ZM7.09295 263.318C6.04078 264.445 5.30914 266.015 4.83686 267.937L6.77914 268.415C7.20286 266.689 7.81522 265.475 8.55506 264.682L7.09295 263.318ZM4.83786 267.933C4.36347 269.831 4.136 272.143 4.136 274.848H6.136C6.136 272.241 6.35653 270.105 6.77814 268.419L4.83786 267.933ZM4.136 274.848V279.552H6.136V274.848H4.136ZM4.136 279.552C4.136 282.258 4.36361 284.584 4.83686 286.511L6.77914 286.033C6.35639 284.312 6.136 282.158 6.136 279.552H4.136ZM4.83786 286.515C5.31117 288.408 6.04371 289.958 7.09294 291.082L8.55506 289.718C7.81229 288.922 7.20083 287.72 6.77814 286.029L4.83786 286.515ZM7.09294 291.082C8.08433 292.145 9.2201 292.926 10.4998 293.401L11.1962 291.527C10.2359 291.17 9.35567 290.575 8.55506 289.718L7.09294 291.082ZM10.5237 293.41C11.7757 293.839 13.2353 294.04 14.88 294.04V292.04C13.3887 292.04 12.1603 291.857 11.1723 291.518L10.5237 293.41ZM14.88 294.04C17.8062 294.04 20.1619 293.537 21.7619 292.357L20.5741 290.747C19.4861 291.551 17.6498 292.04 14.88 292.04V294.04ZM21.774 292.347C23.2871 291.195 24.4268 289.595 25.2176 287.601L23.3584 286.863C22.6772 288.581 21.7369 289.861 20.562 290.757L21.774 292.347ZM23.8542 288.133L25.1502 288.757L26.0178 286.955L24.7218 286.331L23.8542 288.133ZM50.0119 294V295H51.0119V294H50.0119ZM48.5719 294H47.5719V295H48.5719V294ZM48.5719 280.08H49.5719V279.08H48.5719V280.08ZM34.1719 280.08V279.08H33.1719V280.08H34.1719ZM34.1719 294V295H35.1719V294H34.1719ZM32.7319 294H31.7319V295H32.7319V294ZM32.7319 266.16V265.16H31.7319V266.16H32.7319ZM34.1719 266.16H35.1719V265.16H34.1719V266.16ZM34.1719 278.64H33.1719V279.64H34.1719V278.64ZM48.5719 278.64V279.64H49.5719V278.64H48.5719ZM48.5719 266.16V265.16H47.5719V266.16H48.5719ZM50.0119 266.16H51.0119V265.16H50.0119V266.16ZM50.0119 293H48.5719V295H50.0119V293ZM49.5719 294V280.08H47.5719V294H49.5719ZM48.5719 279.08H34.1719V281.08H48.5719V279.08ZM33.1719 280.08V294H35.1719V280.08H33.1719ZM34.1719 293H32.7319V295H34.1719V293ZM33.7319 294V266.16H31.7319V294H33.7319ZM32.7319 267.16H34.1719V265.16H32.7319V267.16ZM33.1719 266.16V278.64H35.1719V266.16H33.1719ZM34.1719 279.64H48.5719V277.64H34.1719V279.64ZM49.5719 278.64V266.16H47.5719V278.64H49.5719ZM48.5719 267.16H50.0119V265.16H48.5719V267.16ZM49.0119 266.16V294H51.0119V266.16H49.0119ZM61.6665 292.56V291.56H60.6665V292.56H61.6665ZM77.3145 292.56V293.56H78.8253L78.235 292.169L77.3145 292.56ZM67.4745 269.376L68.395 268.985L67.4751 266.818L66.5542 268.985L67.4745 269.376ZM57.0105 294V295H57.6721L57.9308 294.391L57.0105 294ZM55.4745 294L54.5537 293.61L53.9647 295H55.4745V294ZM67.4745 265.68L68.3953 265.29L67.4745 263.117L66.5537 265.29L67.4745 265.68ZM79.4745 294V295H80.9843L80.3953 293.61L79.4745 294ZM61.6665 294H60.6665V295H61.6665V294ZM61.6665 293.56H77.3145V291.56H61.6665V293.56ZM78.235 292.169L68.395 268.985L66.554 269.767L76.394 292.951L78.235 292.169ZM66.5542 268.985L56.0902 293.609L57.9308 294.391L68.3948 269.767L66.5542 268.985ZM57.0105 293H55.4745V295H57.0105V293ZM56.3953 294.39L68.3953 266.07L66.5537 265.29L54.5537 293.61L56.3953 294.39ZM66.5537 266.07L78.5538 294.39L80.3953 293.61L68.3953 265.29L66.5537 266.07ZM79.4745 293H61.6665V295H79.4745V293ZM62.6665 294V292.56H60.6665V294H62.6665ZM84.9506 266.16V265.16H83.9506V266.16H84.9506ZM86.3906 266.16H87.3906V265.16H86.3906V266.16ZM86.3906 294V295H87.3906V294H86.3906ZM84.9506 294H83.9506V295H84.9506V294ZM84.9506 267.16H86.3906V265.16H84.9506V267.16ZM85.3906 266.16V294H87.3906V266.16H85.3906ZM86.3906 293H84.9506V295H86.3906V293ZM85.9506 294V266.16H83.9506V294H85.9506ZM95.4975 294H94.4975V295H95.4975V294ZM95.4975 266.16V265.16H94.4975V266.16H95.4975ZM96.9375 266.16L97.787 265.632L97.4937 265.16H96.9375V266.16ZM112.586 291.36L111.736 291.888L113.586 294.866V291.36H112.586ZM112.586 266.16V265.16H111.586V266.16H112.586ZM114.026 266.16H115.026V265.16H114.026V266.16ZM114.026 294V295H115.026V294H114.026ZM112.586 294L111.736 294.527L112.029 295H112.586V294ZM96.9375 268.752L97.7875 268.225L95.9375 265.24V268.752H96.9375ZM96.9375 294V295H97.9375V294H96.9375ZM96.4975 294V266.16H94.4975V294H96.4975ZM95.4975 267.16H96.9375V265.16H95.4975V267.16ZM96.088 266.688L111.736 291.888L113.435 290.832L97.787 265.632L96.088 266.688ZM113.586 291.36V266.16H111.586V291.36H113.586ZM112.586 267.16H114.026V265.16H112.586V267.16ZM113.026 266.16V294H115.026V266.16H113.026ZM114.026 293H112.586V295H114.026V293ZM113.435 293.473L97.7875 268.225L96.0875 269.279L111.736 294.527L113.435 293.473ZM95.9375 268.752V294H97.9375V268.752H95.9375ZM96.9375 293H95.4975V295H96.9375V293ZM122.674 294H121.674V295H122.674V294ZM125.266 269.088L124.475 268.476L124.47 268.483L125.266 269.088ZM143.314 270.24L143.956 271.007L144.585 270.48L144.191 269.76L143.314 270.24ZM133.282 278.64L132.64 277.873L130.53 279.64H133.282V278.64ZM143.506 278.64H144.506V277.64H143.506V278.64ZM143.506 280.08V281.08H144.506V280.08H143.506ZM129.298 280.08L128.657 279.312L126.537 281.08H129.298V280.08ZM141.442 269.952L142.082 270.72L142.81 270.113L142.243 269.354L141.442 269.952ZM129.826 267.648L130.108 268.607L130.121 268.604L130.134 268.599L129.826 267.648ZM126.802 269.52L126.095 268.813L126.095 268.813L126.802 269.52ZM124.786 273.504L125.754 273.755L125.755 273.751L124.786 273.504ZM124.114 294V295H125.114V294H124.114ZM123.674 294V280.08H121.674V294H123.674ZM123.674 280.08C123.674 275.093 124.535 271.701 126.062 269.693L124.47 268.483C122.541 271.019 121.674 274.955 121.674 280.08H123.674ZM126.056 269.7C127.561 267.757 130.074 266.68 133.858 266.68V264.68C129.706 264.68 126.49 265.875 124.475 268.476L126.056 269.7ZM133.858 266.68C138.275 266.68 141.007 268.109 142.437 270.72L144.191 269.76C142.292 266.291 138.721 264.68 133.858 264.68V266.68ZM142.672 269.473L132.64 277.873L133.924 279.407L143.956 271.007L142.672 269.473ZM133.282 279.64H143.506V277.64H133.282V279.64ZM142.506 278.64V280.08H144.506V278.64H142.506ZM143.506 279.08H129.298V281.08H143.506V279.08ZM129.938 280.848L142.082 270.72L140.801 269.184L128.657 279.312L129.938 280.848ZM142.243 269.354C140.561 267.098 137.644 266.12 133.858 266.12V268.12C137.367 268.12 139.506 269.03 140.64 270.55L142.243 269.354ZM133.858 266.12C132.192 266.12 130.736 266.302 129.518 266.697L130.134 268.599C131.091 268.29 132.324 268.12 133.858 268.12V266.12ZM129.544 266.689C128.271 267.063 127.122 267.785 126.095 268.813L127.509 270.227C128.337 269.399 129.204 268.873 130.108 268.607L129.544 266.689ZM126.095 268.813C125.028 269.88 124.291 271.394 123.817 273.257L125.755 273.751C126.177 272.094 126.784 270.952 127.509 270.227L126.095 268.813ZM123.818 273.253C123.341 275.092 123.114 277.376 123.114 280.08H125.114C125.114 277.472 125.335 275.372 125.754 273.755L123.818 273.253ZM123.114 280.08V294H125.114V280.08H123.114ZM124.114 293H122.674V295H124.114V293ZM169.34 291.168L170.122 291.791L170.706 291.058L170.013 290.428L169.34 291.168ZM152.108 291.072L152.904 290.467L152.904 290.467L152.108 291.072ZM152.108 269.088L151.312 268.483L151.312 268.483L152.108 269.088ZM170.156 270.24L170.798 271.007L171.428 270.48L171.033 269.76L170.156 270.24ZM158.396 280.08V281.08H158.759L159.038 280.847L158.396 280.08ZM156.14 280.08L155.5 279.312L153.38 281.08H156.14V280.08ZM168.284 269.952L168.925 270.72L169.652 270.113L169.086 269.354L168.284 269.952ZM156.668 267.648L156.95 268.607L156.963 268.604L156.976 268.599L156.668 267.648ZM153.644 269.52L152.937 268.813L152.937 268.813L153.644 269.52ZM151.628 273.504L152.596 273.755L152.597 273.751L151.628 273.504ZM151.628 286.704L150.659 286.951L150.66 286.955L151.628 286.704ZM153.644 290.688L152.925 291.383L152.937 291.395L152.95 291.407L153.644 290.688ZM156.668 292.56L156.36 293.511L156.373 293.516L156.386 293.519L156.668 292.56ZM168.284 290.208L168.957 289.468L168.141 288.727L167.483 289.61L168.284 290.208ZM168.558 290.545C167.058 292.427 164.529 293.48 160.7 293.48V295.48C164.872 295.48 168.103 294.325 170.122 291.791L168.558 290.545ZM160.7 293.48C156.879 293.48 154.375 292.4 152.904 290.467L151.312 291.677C153.298 294.288 156.521 295.48 160.7 295.48V293.48ZM152.904 290.467C151.377 288.459 150.516 285.067 150.516 280.08H148.516C148.516 285.205 149.383 289.141 151.312 291.677L152.904 290.467ZM150.516 280.08C150.516 275.093 151.377 271.701 152.904 269.693L151.312 268.483C149.383 271.019 148.516 274.955 148.516 280.08H150.516ZM152.904 269.693C154.375 267.76 156.879 266.68 160.7 266.68V264.68C156.521 264.68 153.298 265.872 151.312 268.483L152.904 269.693ZM160.7 266.68C165.117 266.68 167.85 268.109 169.279 270.72L171.033 269.76C169.135 266.291 165.563 264.68 160.7 264.68V266.68ZM169.515 269.473L157.755 279.313L159.038 280.847L170.798 271.007L169.515 269.473ZM158.396 279.08H156.14V281.08H158.396V279.08ZM156.781 280.848L168.925 270.72L167.644 269.184L155.5 279.312L156.781 280.848ZM169.086 269.354C167.404 267.098 164.487 266.12 160.7 266.12V268.12C164.21 268.12 166.349 269.03 167.483 270.55L169.086 269.354ZM160.7 266.12C159.034 266.12 157.579 266.302 156.36 266.697L156.976 268.599C157.934 268.29 159.166 268.12 160.7 268.12V266.12ZM156.386 266.689C155.114 267.063 153.965 267.785 152.937 268.813L154.351 270.227C155.18 269.399 156.047 268.873 156.95 268.607L156.386 266.689ZM152.937 268.813C151.87 269.88 151.133 271.394 150.659 273.257L152.597 273.751C153.019 272.094 153.626 270.952 154.351 270.227L152.937 268.813ZM150.66 273.253C150.183 275.092 149.956 277.376 149.956 280.08H151.956C151.956 277.472 152.177 275.372 152.596 273.755L150.66 273.253ZM149.956 280.08C149.956 282.785 150.184 285.082 150.659 286.951L152.597 286.457C152.177 284.806 151.956 282.687 151.956 280.08H149.956ZM150.66 286.955C151.136 288.789 151.872 290.292 152.925 291.383L154.364 289.993C153.625 289.228 153.017 288.075 152.596 286.453L150.66 286.955ZM152.95 291.407C153.973 292.396 155.11 293.107 156.36 293.511L156.976 291.609C156.051 291.309 155.171 290.772 154.339 289.969L152.95 291.407ZM156.386 293.519C157.595 293.875 159.041 294.04 160.7 294.04V292.04C159.16 292.04 157.918 291.885 156.95 291.601L156.386 293.519ZM160.7 294.04C164.487 294.04 167.404 293.062 169.086 290.806L167.483 289.61C166.349 291.13 164.21 292.04 160.7 292.04V294.04ZM167.612 290.948L168.668 291.908L170.013 290.428L168.957 289.468L167.612 290.948ZM188.725 280.032L188.321 279.117L187.387 279.53L187.819 280.455L188.725 280.032ZM195.253 294V295H196.824L196.159 293.577L195.253 294ZM193.669 294L192.763 294.423L193.032 295H193.669V294ZM186.949 279.6L186.502 278.706L185.631 279.141L186.043 280.023L186.949 279.6ZM187.765 279.216L188.188 280.122L188.2 280.116L188.212 280.11L187.765 279.216ZM188.821 278.688L189.268 279.582L189.324 279.555L189.376 279.52L188.821 278.688ZM189.781 278.064L190.322 278.905L190.322 278.905L189.781 278.064ZM190.789 277.248L191.542 277.907L191.561 277.885L191.578 277.862L190.789 277.248ZM191.509 276.288L190.709 275.688L190.705 275.694L190.7 275.7L191.509 276.288ZM192.133 275.04L193.095 275.315L193.097 275.306L193.099 275.298L192.133 275.04ZM189.445 269.04L189.892 268.146L189.892 268.146L189.445 269.04ZM178.453 267.6V266.6H177.453V267.6H178.453ZM178.453 294V295H179.453V294H178.453ZM177.013 294H176.013V295H177.013V294ZM177.013 266.16V265.16H176.013V266.16H177.013ZM190.837 268.128L190.273 268.954L190.279 268.958L190.837 268.128ZM192.277 277.44L193.026 278.103L193.035 278.093L192.277 277.44ZM187.819 280.455L194.347 294.423L196.159 293.577L189.631 279.609L187.819 280.455ZM195.253 293H193.669V295H195.253V293ZM194.575 293.577L187.855 279.177L186.043 280.023L192.763 294.423L194.575 293.577ZM187.396 280.494C187.445 280.47 187.699 280.35 188.188 280.122L187.342 278.31C186.871 278.53 186.582 278.666 186.502 278.706L187.396 280.494ZM188.212 280.11C188.724 279.854 189.076 279.678 189.268 279.582L188.374 277.794C188.182 277.89 187.83 278.066 187.318 278.322L188.212 280.11ZM189.376 279.52C189.56 279.397 189.874 279.193 190.322 278.905L189.24 277.223C188.792 277.511 188.466 277.723 188.266 277.856L189.376 279.52ZM190.322 278.905C190.81 278.592 191.231 278.261 191.542 277.907L190.037 276.589C189.899 276.747 189.649 276.96 189.24 277.223L190.322 278.905ZM191.578 277.862C191.81 277.564 192.057 277.235 192.318 276.876L190.7 275.7C190.45 276.045 190.216 276.356 190 276.634L191.578 277.862ZM192.309 276.888C192.668 276.409 192.932 275.884 193.095 275.315L191.172 274.765C191.078 275.092 190.926 275.399 190.709 275.688L192.309 276.888ZM193.099 275.298C193.252 274.726 193.325 274.127 193.325 273.504H191.325C191.325 273.969 191.27 274.394 191.167 274.782L193.099 275.298ZM193.325 273.504C193.325 272.331 193.044 271.261 192.445 270.334C191.85 269.41 190.979 268.689 189.892 268.146L188.998 269.934C189.832 270.351 190.401 270.854 190.765 271.418C191.127 271.979 191.325 272.661 191.325 273.504H193.325ZM189.892 268.146C187.796 267.097 185.248 266.6 182.293 266.6V268.6C185.034 268.6 187.255 269.063 188.998 269.934L189.892 268.146ZM182.293 266.6H178.453V268.6H182.293V266.6ZM177.453 267.6V294H179.453V267.6H177.453ZM178.453 293H177.013V295H178.453V293ZM178.013 294V266.16H176.013V294H178.013ZM177.013 267.16H182.293V265.16H177.013V267.16ZM182.293 267.16C185.982 267.16 188.594 267.806 190.273 268.954L191.401 267.302C189.241 265.826 186.156 265.16 182.293 265.16V267.16ZM190.279 268.958C191.967 270.092 192.765 271.579 192.765 273.504H194.765C194.765 270.885 193.612 268.788 191.395 267.298L190.279 268.958ZM192.765 273.504C192.765 274.728 192.361 275.81 191.519 276.787L193.035 278.093C194.178 276.766 194.765 275.224 194.765 273.504H192.765ZM191.529 276.777C190.632 277.789 189.566 278.567 188.321 279.117L189.129 280.947C190.636 280.281 191.938 279.331 193.026 278.103L191.529 276.777ZM220.387 291.168L221.169 291.791L221.753 291.058L221.06 290.428L220.387 291.168ZM203.155 291.072L203.951 290.467L203.951 290.467L203.155 291.072ZM203.155 269.088L202.359 268.483L202.359 268.483L203.155 269.088ZM221.203 270.24L221.845 271.007L222.475 270.48L222.08 269.76L221.203 270.24ZM209.443 280.08V281.08H209.806L210.085 280.847L209.443 280.08ZM207.187 280.08L206.547 279.312L204.427 281.08H207.187V280.08ZM219.331 269.952L219.972 270.72L220.699 270.113L220.133 269.354L219.331 269.952ZM207.715 267.648L207.997 268.607L208.01 268.604L208.023 268.599L207.715 267.648ZM204.691 269.52L203.984 268.813L203.984 268.813L204.691 269.52ZM202.675 273.504L203.643 273.755L203.644 273.751L202.675 273.504ZM202.675 286.704L201.706 286.951L201.707 286.955L202.675 286.704ZM204.691 290.688L203.972 291.383L203.984 291.395L203.997 291.407L204.691 290.688ZM207.715 292.56L207.407 293.511L207.42 293.516L207.433 293.519L207.715 292.56ZM219.331 290.208L220.004 289.468L219.188 288.727L218.529 289.61L219.331 290.208ZM219.605 290.545C218.105 292.427 215.576 293.48 211.747 293.48V295.48C215.919 295.48 219.15 294.325 221.169 291.791L219.605 290.545ZM211.747 293.48C207.926 293.48 205.422 292.4 203.951 290.467L202.359 291.677C204.344 294.288 207.568 295.48 211.747 295.48V293.48ZM203.951 290.467C202.424 288.459 201.563 285.067 201.563 280.08H199.563C199.563 285.205 200.43 289.141 202.359 291.677L203.951 290.467ZM201.563 280.08C201.563 275.093 202.424 271.701 203.951 269.693L202.359 268.483C200.43 271.019 199.563 274.955 199.563 280.08H201.563ZM203.951 269.693C205.422 267.76 207.926 266.68 211.747 266.68V264.68C207.568 264.68 204.344 265.872 202.359 268.483L203.951 269.693ZM211.747 266.68C216.164 266.68 218.896 268.109 220.326 270.72L222.08 269.76C220.182 266.291 216.61 264.68 211.747 264.68V266.68ZM220.561 269.473L208.801 279.313L210.085 280.847L221.845 271.007L220.561 269.473ZM209.443 279.08H207.187V281.08H209.443V279.08ZM207.828 280.848L219.972 270.72L218.691 269.184L206.547 279.312L207.828 280.848ZM220.133 269.354C218.451 267.098 215.533 266.12 211.747 266.12V268.12C215.257 268.12 217.396 269.03 218.529 270.55L220.133 269.354ZM211.747 266.12C210.081 266.12 208.626 266.302 207.407 266.697L208.023 268.599C208.981 268.29 210.213 268.12 211.747 268.12V266.12ZM207.433 266.689C206.161 267.063 205.012 267.785 203.984 268.813L205.398 270.227C206.227 269.399 207.093 268.873 207.997 268.607L207.433 266.689ZM203.984 268.813C202.917 269.88 202.18 271.394 201.706 273.257L203.644 273.751C204.066 272.094 204.673 270.952 205.398 270.227L203.984 268.813ZM201.707 273.253C201.23 275.092 201.003 277.376 201.003 280.08H203.003C203.003 277.472 203.224 275.372 203.643 273.755L201.707 273.253ZM201.003 280.08C201.003 282.785 201.23 285.082 201.706 286.951L203.644 286.457C203.224 284.806 203.003 282.687 203.003 280.08H201.003ZM201.707 286.955C202.183 288.789 202.919 290.292 203.972 291.383L205.411 289.993C204.671 289.228 204.064 288.075 203.643 286.453L201.707 286.955ZM203.997 291.407C205.02 292.396 206.157 293.107 207.407 293.511L208.023 291.609C207.097 291.309 206.218 290.772 205.386 289.969L203.997 291.407ZM207.433 293.519C208.642 293.875 210.087 294.04 211.747 294.04V292.04C210.207 292.04 208.965 291.885 207.997 291.601L207.433 293.519ZM211.747 294.04C215.533 294.04 218.451 293.062 220.133 290.806L218.529 289.61C217.396 291.13 215.257 292.04 211.747 292.04V294.04ZM218.658 290.948L219.714 291.908L221.06 290.428L220.004 289.468L218.658 290.948ZM228.06 294H227.06V295H228.06V294ZM228.06 266.16V265.16H227.06V266.16H228.06ZM229.5 266.16L230.35 265.632L230.056 265.16H229.5V266.16ZM245.148 291.36L244.298 291.888L246.148 294.866V291.36H245.148ZM245.148 266.16V265.16H244.148V266.16H245.148ZM246.588 266.16H247.588V265.16H246.588V266.16ZM246.588 294V295H247.588V294H246.588ZM245.148 294L244.298 294.527L244.591 295H245.148V294ZM229.5 268.752L230.35 268.225L228.5 265.24V268.752H229.5ZM229.5 294V295H230.5V294H229.5ZM229.06 294V266.16H227.06V294H229.06ZM228.06 267.16H229.5V265.16H228.06V267.16ZM228.65 266.688L244.298 291.888L245.998 290.832L230.35 265.632L228.65 266.688ZM246.148 291.36V266.16H244.148V291.36H246.148ZM245.148 267.16H246.588V265.16H245.148V267.16ZM245.588 266.16V294H247.588V266.16H245.588ZM246.588 293H245.148V295H246.588V293ZM245.998 293.473L230.35 268.225L228.65 269.279L244.298 294.527L245.998 293.473ZM228.5 268.752V294H230.5V268.752H228.5ZM229.5 293H228.06V295H229.5V293ZM257.108 291.072L257.904 290.467L257.904 290.467L257.108 291.072ZM257.108 269.088L256.312 268.483L256.312 268.483L257.108 269.088ZM274.34 268.992L275.013 269.732L275.706 269.102L275.122 268.369L274.34 268.992ZM273.284 269.952L272.483 270.55L273.141 271.433L273.957 270.692L273.284 269.952ZM261.668 267.648L261.95 268.607L261.963 268.604L261.976 268.599L261.668 267.648ZM258.644 269.52L257.937 268.813L257.937 268.813L258.644 269.52ZM256.628 273.504L257.596 273.755L257.597 273.751L256.628 273.504ZM256.628 286.704L255.659 286.951L255.66 286.955L256.628 286.704ZM258.644 290.688L257.925 291.383L257.937 291.395L257.95 291.407L258.644 290.688ZM261.668 292.56L261.36 293.511L261.373 293.516L261.386 293.519L261.668 292.56ZM273.284 290.208L273.957 289.468L273.141 288.727L272.483 289.61L273.284 290.208ZM274.34 291.168L275.122 291.791L275.706 291.058L275.013 290.428L274.34 291.168ZM257.904 290.467C256.377 288.459 255.516 285.067 255.516 280.08H253.516C253.516 285.205 254.383 289.141 256.312 291.677L257.904 290.467ZM255.516 280.08C255.516 275.093 256.377 271.701 257.904 269.693L256.312 268.483C254.383 271.019 253.516 274.955 253.516 280.08H255.516ZM257.904 269.693C259.375 267.76 261.879 266.68 265.7 266.68V264.68C261.521 264.68 258.298 265.872 256.312 268.483L257.904 269.693ZM265.7 266.68C269.529 266.68 272.058 267.733 273.558 269.615L275.122 268.369C273.103 265.835 269.872 264.68 265.7 264.68V266.68ZM273.668 268.252L272.612 269.212L273.957 270.692L275.013 269.732L273.668 268.252ZM274.086 269.354C272.404 267.098 269.487 266.12 265.7 266.12V268.12C269.21 268.12 271.349 269.03 272.483 270.55L274.086 269.354ZM265.7 266.12C264.034 266.12 262.579 266.302 261.36 266.697L261.976 268.599C262.934 268.29 264.166 268.12 265.7 268.12V266.12ZM261.386 266.689C260.114 267.063 258.965 267.785 257.937 268.813L259.351 270.227C260.18 269.399 261.047 268.873 261.95 268.607L261.386 266.689ZM257.937 268.813C256.87 269.88 256.133 271.394 255.659 273.257L257.597 273.751C258.019 272.094 258.626 270.952 259.351 270.227L257.937 268.813ZM255.66 273.253C255.183 275.092 254.956 277.376 254.956 280.08H256.956C256.956 277.472 257.177 275.372 257.596 273.755L255.66 273.253ZM254.956 280.08C254.956 282.785 255.184 285.082 255.659 286.951L257.597 286.457C257.177 284.806 256.956 282.687 256.956 280.08H254.956ZM255.66 286.955C256.136 288.789 256.872 290.292 257.925 291.383L259.364 289.993C258.625 289.228 258.017 288.075 257.596 286.453L255.66 286.955ZM257.95 291.407C258.973 292.396 260.11 293.107 261.36 293.511L261.976 291.609C261.051 291.309 260.171 290.772 259.339 289.969L257.95 291.407ZM261.386 293.519C262.595 293.875 264.041 294.04 265.7 294.04V292.04C264.16 292.04 262.918 291.885 261.95 291.601L261.386 293.519ZM265.7 294.04C269.487 294.04 272.404 293.062 274.086 290.806L272.483 289.61C271.349 291.13 269.21 292.04 265.7 292.04V294.04ZM272.612 290.948L273.668 291.908L275.013 290.428L273.957 289.468L272.612 290.948ZM273.558 290.545C272.058 292.427 269.529 293.48 265.7 293.48V295.48C269.872 295.48 273.103 294.325 275.122 291.791L273.558 290.545ZM265.7 293.48C261.879 293.48 259.375 292.4 257.904 290.467L256.312 291.677C258.298 294.288 261.521 295.48 265.7 295.48V293.48ZM300.122 291.168L300.903 291.791L301.488 291.058L300.794 290.428L300.122 291.168ZM282.89 291.072L283.685 290.467L283.685 290.467L282.89 291.072ZM282.89 269.088L282.094 268.483L282.094 268.483L282.89 269.088ZM300.938 270.24L301.579 271.007L302.209 270.48L301.815 269.76L300.938 270.24ZM289.178 280.08V281.08H289.541L289.819 280.847L289.178 280.08ZM286.922 280.08L286.281 279.312L284.161 281.08H286.922V280.08ZM299.066 269.952L299.706 270.72L300.433 270.113L299.867 269.354L299.066 269.952ZM287.45 267.648L287.732 268.607L287.745 268.604L287.757 268.599L287.45 267.648ZM284.426 269.52L283.718 268.813L283.718 268.813L284.426 269.52ZM282.41 273.504L283.378 273.755L283.379 273.751L282.41 273.504ZM282.41 286.704L281.44 286.951L281.442 286.955L282.41 286.704ZM284.426 290.688L283.706 291.383L283.718 291.395L283.731 291.407L284.426 290.688ZM287.45 292.56L287.142 293.511L287.154 293.516L287.167 293.519L287.45 292.56ZM299.066 290.208L299.738 289.468L298.923 288.727L298.264 289.61L299.066 290.208ZM299.34 290.545C297.839 292.427 295.31 293.48 291.482 293.48V295.48C295.653 295.48 298.884 294.325 300.903 291.791L299.34 290.545ZM291.482 293.48C287.661 293.48 285.156 292.4 283.685 290.467L282.094 291.677C284.079 294.288 287.302 295.48 291.482 295.48V293.48ZM283.685 290.467C282.158 288.459 281.298 285.067 281.298 280.08H279.298C279.298 285.205 280.165 289.141 282.094 291.677L283.685 290.467ZM281.298 280.08C281.298 275.093 282.158 271.701 283.685 269.693L282.094 268.483C280.165 271.019 279.298 274.955 279.298 280.08H281.298ZM283.685 269.693C285.156 267.76 287.661 266.68 291.482 266.68V264.68C287.302 264.68 284.079 265.872 282.094 268.483L283.685 269.693ZM291.482 266.68C295.898 266.68 298.631 268.109 300.06 270.72L301.815 269.76C299.916 266.291 296.345 264.68 291.482 264.68V266.68ZM300.296 269.473L288.536 279.313L289.819 280.847L301.579 271.007L300.296 269.473ZM289.178 279.08H286.922V281.08H289.178V279.08ZM287.562 280.848L299.706 270.72L298.425 269.184L286.281 279.312L287.562 280.848ZM299.867 269.354C298.185 267.098 295.268 266.12 291.482 266.12V268.12C294.991 268.12 297.13 269.03 298.264 270.55L299.867 269.354ZM291.482 266.12C289.815 266.12 288.36 266.302 287.142 266.697L287.757 268.599C288.715 268.29 289.948 268.12 291.482 268.12V266.12ZM287.167 266.689C285.895 267.063 284.746 267.785 283.718 268.813L285.133 270.227C285.961 269.399 286.828 268.873 287.732 268.607L287.167 266.689ZM283.718 268.813C282.652 269.88 281.915 271.394 281.44 273.257L283.379 273.751C283.8 272.094 284.407 270.952 285.133 270.227L283.718 268.813ZM281.442 273.253C280.965 275.092 280.738 277.376 280.738 280.08H282.738C282.738 277.472 282.958 275.372 283.377 273.755L281.442 273.253ZM280.738 280.08C280.738 282.785 280.965 285.082 281.44 286.951L283.379 286.457C282.958 284.806 282.738 282.687 282.738 280.08H280.738ZM281.442 286.955C281.917 288.789 282.653 290.292 283.706 291.383L285.145 289.993C284.406 289.228 283.798 288.075 283.377 286.453L281.442 286.955ZM283.731 291.407C284.754 292.396 285.891 293.107 287.142 293.511L287.757 291.609C286.832 291.309 285.953 290.772 285.12 289.969L283.731 291.407ZM287.167 293.519C288.376 293.875 289.822 294.04 291.482 294.04V292.04C289.941 292.04 288.699 291.885 287.732 291.601L287.167 293.519ZM291.482 294.04C295.268 294.04 298.185 293.062 299.867 290.806L298.264 289.61C297.13 291.13 294.991 292.04 291.482 292.04V294.04ZM298.393 290.948L299.449 291.908L300.794 290.428L299.738 289.468L298.393 290.948Z" fill="currentColor"/>
</svg>
