<svg width="230" height="577" viewBox="0 0 230 577" fill="none" xmlns="http://www.w3.org/2000/svg">
<path d="M97.468 328.904C98.575 335.164 100.385 341.372 103.067 347.143C108.139 357.955 116.679 368.892 122.754 379.156C124.085 381.442 125.372 383.855 126.329 386.323C127.875 390.161 130.663 400.384 131.912 404.439C133.143 408.374 134.483 412.404 136.54 415.991C138.809 420.019 142.609 424.217 145.549 427.804C146.286 428.721 147.048 429.67 147.522 430.755C148.077 432.018 148.298 433.419 148.514 434.773L150.054 446.025C151.401 454.978 153.876 463.904 158.335 471.831C160.914 476.514 164.9 481.241 167.545 485.889C168.556 487.685 169.442 489.634 170.22 491.543C172.459 497.324 176.129 507.561 178.119 513.397C178.827 515.647 179.643 517.955 179.745 520.33C179.79 522.213 179.308 524.574 179.202 526.453C179.128 527.586 179.095 528.747 179.323 529.866C179.481 530.635 179.773 531.376 180.157 532.06C180.526 532.742 181.075 533.432 181.474 534.095C181.73 534.524 181.885 535.008 181.951 535.502C182.131 536.756 182.021 539.665 182.045 540.951C182.065 542.614 182.131 544.333 182.394 545.977C182.664 547.726 183.267 549.456 184.361 550.864C185.344 552.156 186.684 553.129 188.087 553.921L190.505 555.25C191.57 555.855 192.626 556.534 193.468 557.433C194.924 558.982 195.8 560.973 196.567 562.93L198.248 567.435C198.99 569.342 199.867 571.261 201.282 572.77C201.853 573.378 202.509 573.928 203.269 574.284C204.127 574.693 205.1 574.755 206.036 574.768C209.832 574.73 216.735 574.991 220.421 574.554C221.706 574.405 223.013 574.203 224.242 573.789C224.998 573.532 225.726 573.158 226.323 572.621C226.864 572.138 227.284 571.521 227.528 570.838C227.923 569.745 227.826 568.48 227.841 567.335C227.825 566.276 227.814 565.171 227.472 564.158C227.374 563.878 227.238 563.609 227.056 563.374C226.676 562.874 226.032 562.416 225.562 562C224.486 561.09 223.546 560.003 222.689 558.888C221.186 556.955 217.501 551.638 216.012 549.677C214.218 547.264 208.965 540.774 207.029 538.34C206.01 536.972 204.717 535.445 203.897 533.959C203.706 533.589 203.561 533.189 203.499 532.776C203.393 532.082 203.483 531.366 203.574 530.674C203.789 529.124 204.17 527.193 204.065 525.636C204.014 524.827 203.829 524.027 203.535 523.272C202.948 521.705 201.615 519.847 200.731 518.421C199.877 517.047 199.107 515.588 198.5 514.088C197.788 512.339 197.262 510.483 196.834 508.644C196.164 505.717 195.722 502.654 195.472 499.663C195.105 495.817 195.138 487.419 195.057 483.468C194.794 474.937 194.309 464.885 193.523 456.391C193.2 453.431 192.716 450.424 191.934 447.55C190.368 441.758 187.694 436.28 184.632 431.14C181.956 426.698 178.96 422.241 175.713 418.195L173.289 415.298C172.665 414.537 172.068 413.729 171.642 412.838C170.917 411.323 170.53 409.655 170.191 408.018C169.776 405.946 169.384 403.311 168.819 401.283C168.41 399.761 167.855 398.255 167.213 396.816L165.139 392.273C164.051 389.826 163.137 387.27 162.715 384.619C162.466 383.157 162.317 381.567 162.217 380.082C162.003 376.627 161.806 369.196 161.606 365.727C161.063 355.108 159.712 344.227 157.647 333.794C156.439 327.648 154.884 321.467 152.71 315.588C151.981 313.605 150.238 309.231 149.696 307.277C149.326 306.001 149.066 304.674 148.921 303.354C148.466 298.598 148.678 293.223 148.74 288.435C148.797 285.42 149.17 278.48 148.944 275.555C148.851 274.026 148.595 272.48 148.249 270.988C147.815 269.062 147.136 266.763 146.895 264.804C146.489 261.739 147.56 258.561 147.716 255.514C148.319 246.237 144.352 236.579 143.096 227.501C142.957 226.347 142.894 225.157 142.974 223.996C143.048 222.809 143.279 221.618 143.539 220.46C145.002 214.605 146.549 207.286 147.651 201.357C148.927 194.424 150.186 186.859 150.823 179.854C151.587 172.54 151.418 162.963 151.752 155.598" stroke="#C346FF" stroke-width="2.75" stroke-miterlimit="10" stroke-linecap="round" stroke-linejoin="round"/>
<path d="M124.589 38.0943C125.132 38.0893 125.685 38.0503 126.21 37.8993C126.531 37.8053 126.847 37.6643 127.096 37.4363C127.353 37.2063 127.496 36.8813 127.588 36.5553C127.815 35.7443 127.831 34.8343 128.3 34.1093C128.806 33.3513 129.763 32.9253 130.517 32.4583C131.142 32.0793 131.787 31.6373 132.123 30.9663C132.346 30.5183 132.427 30.0123 132.433 29.5163C132.438 28.7443 132.279 27.9723 132.008 27.2503C131.882 26.9213 131.73 26.5973 131.53 26.3063C131.364 26.0563 131.129 25.8303 130.959 25.5843C130.867 25.4483 130.809 25.2873 130.815 25.1213C130.821 24.8903 130.897 24.6663 130.974 24.4513C131.313 23.5583 131.795 22.6573 131.937 21.7033C132.143 20.3263 131.663 18.9203 130.884 17.7943C130.431 17.1183 129.763 16.5563 129.151 16.0273C128.532 15.4983 127.974 14.8813 127.62 14.1423C127.121 13.1453 126.763 11.9523 126.263 10.9563C126.048 10.5283 125.797 10.1093 125.47 9.75734C124.398 8.61234 122.711 8.49034 121.233 8.47234C119.401 8.47234 117.374 8.61834 115.622 7.99634C114.128 7.48334 112.519 6.48334 111.116 5.75834C109.946 5.14334 108.713 4.61234 107.417 4.33334C104.993 3.79334 102.464 3.90834 100.024 4.28434C98.777 4.47734 97.14 4.82134 95.884 4.92634C95.567 4.94734 95.239 4.94634 94.924 4.90334C94.596 4.85934 94.273 4.76534 93.975 4.62134C93.635 4.45834 93.33 4.22734 93.037 3.99234C92.117 3.23034 91.142 2.32834 89.935 2.08734C88.864 1.87334 87.752 2.08134 86.723 2.40034C85.897 2.66734 85.091 3.02734 84.368 3.51134C84.14 3.66734 83.916 3.83934 83.723 4.03734C83.541 4.21634 83.377 4.46834 83.229 4.67634C83.107 4.84934 82.958 5.01234 82.763 5.10434C82.357 5.29234 81.858 5.26434 81.419 5.25534C79.184 5.13534 76.769 4.62134 74.528 4.76934C73.988 4.81034 73.439 4.89134 72.936 5.09934C72.549 5.26034 72.203 5.51434 71.923 5.82534C71.508 6.27734 71.214 6.87034 70.911 7.40034C70.697 7.76934 70.459 8.14434 70.108 8.39734C69.49 8.83334 68.629 8.89834 67.907 9.04634C67.307 9.16234 66.697 9.33134 66.197 9.69534C65.811 9.97134 65.485 10.3273 65.194 10.7003C64.556 11.5223 63.972 12.5933 63.388 13.4563C63.01 14.0243 62.566 14.5563 62.074 15.0293C61.553 15.5423 60.882 16.0943 60.415 16.6563C60.166 16.9573 59.951 17.2943 59.828 17.6663C59.593 18.3633 59.629 19.2513 59.59 19.9813C59.562 20.5623 59.497 21.1553 59.284 21.7003C59.041 22.3203 58.625 22.8593 58.207 23.3713C57.521 24.2183 56.65 25.0953 56.361 26.1723C56.037 27.4533 56.499 28.8233 56.384 30.1183C56.354 30.4723 56.277 30.8253 56.132 31.1503C55.876 31.7243 55.46 32.2113 55.04 32.6723C54.569 33.1863 53.912 33.8243 53.516 34.3883C53.296 34.6983 53.106 35.0373 53.01 35.4073C52.822 36.1403 52.995 36.9043 53.18 37.6203C53.439 38.5873 53.8 39.6753 53.781 40.6823C53.772 41.4083 53.566 42.1203 53.329 42.8013C53.009 43.7263 52.482 44.8643 52.409 45.8423C52.374 46.2733 52.449 46.7163 52.656 47.0983C53.107 47.9513 54.052 48.6633 54.749 49.3133C55.202 49.7393 55.675 50.1923 55.909 50.7803C56.218 51.5633 56.001 52.5183 55.916 53.3273C55.867 53.7823 55.845 54.2493 55.918 54.7033C56.009 55.2713 56.228 55.8143 56.462 56.3373L57.111 57.7253C57.583 58.7583 57.946 59.8613 57.738 61.0083C57.497 62.4873 56.65 63.9913 56.273 65.4333C56.153 65.8933 56.074 66.3723 56.095 66.8493C56.113 67.2593 56.213 67.6643 56.358 68.0463C56.975 69.6273 58.246 70.9833 58.78 72.6033C59.097 73.5223 59.102 74.5163 59.044 75.4763C58.988 76.3773 58.83 77.7243 58.901 78.6123C58.938 79.1223 59.039 79.6373 59.272 80.0953C59.476 80.4993 59.786 80.8413 60.129 81.1333C60.905 81.7993 62.035 82.3273 62.936 82.8113C63.375 83.0593 63.859 83.3043 64.171 83.7123C64.393 84.0023 64.461 84.4083 64.547 84.7563C64.674 85.3043 64.961 85.7413 65.346 86.1443C65.895 86.7213 66.547 87.1993 67.221 87.6183" stroke="#C346FF" stroke-width="2.75" stroke-miterlimit="10" stroke-linecap="round" stroke-linejoin="round"/>
<path d="M108.829 83.3983C109.061 85.5613 109.533 87.7334 110.139 89.8214C110.81 92.1694 111.772 94.4523 112.982 96.5733" stroke="#C346FF" stroke-width="2.75" stroke-miterlimit="10" stroke-linecap="round" stroke-linejoin="round"/>
<path d="M76.8381 58.5494C74.9591 58.5364 73.097 58.1043 71.371 57.3713C69.131 56.4393 67.081 54.8934 65.996 52.6784C65.175 51.0424 64.7701 49.2104 64.7051 47.3864C64.6561 45.7884 64.8731 44.1514 65.5421 42.6884C66.2141 41.1974 67.4441 39.8524 69.0761 39.4544C70.5361 39.0994 72.1881 39.4104 73.3551 40.3764C74.2661 41.1394 74.7281 42.3634 75.4071 43.3104C75.7101 43.7364 76.0771 44.1244 76.5201 44.4064C77.2991 44.9034 78.2461 45.1724 79.1711 45.0804C79.6311 45.0314 80.092 44.8704 80.439 44.5554C81.195 43.8584 81.457 42.7814 82.126 42.0154C82.322 41.7894 82.559 41.5944 82.832 41.4684C83.484 41.1714 84.224 41.1574 84.928 41.1434C86.264 41.1224 87.728 41.2714 88.979 40.7194C89.846 40.3234 90.544 39.5954 90.953 38.7394C91.177 38.2634 91.32 37.7354 91.29 37.2054C91.273 36.8804 91.169 36.5644 91.022 36.2754C90.719 35.6704 90.2131 35.1084 90.0331 34.4454C89.8961 33.9524 89.9601 33.4244 90.1151 32.9434C90.2461 32.5464 90.444 32.1664 90.721 31.8524C90.904 31.6474 91.128 31.4664 91.393 31.3804C91.59 31.3164 91.8031 31.3154 92.0061 31.3534C92.7421 31.5024 93.5301 32.0874 94.1791 32.4524C95.1611 33.0494 96.258 33.4764 97.406 33.5984C98.636 33.7314 100.014 33.5824 100.974 32.7314C101.714 32.0644 102.077 31.0504 102.585 30.2174C102.758 29.9424 102.96 29.6664 103.246 29.4994C103.552 29.3234 103.917 29.2994 104.263 29.2944C104.741 29.2884 105.28 29.3324 105.734 29.1624C106.029 29.0514 106.286 28.8574 106.522 28.6524C107.157 28.0924 107.79 27.3474 108.685 27.2554C109.902 27.1234 111.258 27.6494 112.468 27.8044C112.85 27.8584 113.243 27.8834 113.628 27.8484C114.196 27.8024 114.841 27.6184 115.396 27.4864C115.885 27.3724 116.395 27.2924 116.896 27.3674C117.52 27.4624 118.096 27.7574 118.647 28.0534C119.487 28.5074 120.384 29.1014 121.314 29.3384C121.681 29.4304 122.065 29.4404 122.441 29.4194C122.824 29.4034 123.339 29.3204 123.713 29.4094C123.864 29.4454 124.007 29.5224 124.11 29.6394C124.255 29.8034 124.336 30.0134 124.395 30.2214C124.688 31.3964 124.542 33.2024 124.565 34.4334C124.571 35.6204 124.679 37.1084 124.579 38.2854C124.527 38.8874 124.418 39.4944 124.182 40.0534C123.87 40.7964 123.312 41.4034 122.735 41.9514L121.607 42.9894C121.16 43.4134 120.746 43.8914 120.491 44.4574C120.233 45.0144 120.13 45.6314 120.109 46.2414C120.076 47.3424 120.241 48.4624 120.428 49.5454C120.921 52.4554 122.009 55.7734 122.528 58.6794C122.618 59.2854 122.707 59.9114 122.624 60.5234C122.585 60.7834 122.502 61.0414 122.352 61.2584C122.213 61.4614 122.019 61.6234 121.805 61.7414C121.479 61.9204 121.117 62.0274 120.757 62.1124C120.032 62.2764 119.273 62.3424 118.531 62.3804C118.329 62.3984 117.823 62.3754 117.65 62.4614C117.584 62.4924 117.535 62.5514 117.51 62.6184C117.466 62.7354 117.464 62.8634 117.464 62.9874C117.513 64.0424 117.824 65.2904 117.9 66.3424C117.928 66.7304 117.95 67.1314 117.86 67.5134C117.792 67.8204 117.614 68.0994 117.447 68.3624C117.329 68.5504 117.253 68.7464 117.248 68.9694C117.236 69.5244 117.409 70.0934 117.362 70.6504C117.284 71.5334 116.695 72.4374 116.469 73.3074C115.99 75.1144 116.192 77.0954 115.595 78.8794C115.057 80.5654 113.683 81.8764 112.091 82.5894C109.967 83.5544 107.556 83.5454 105.273 83.3704C101.981 83.0684 98.5221 82.4704 95.2831 81.8094C92.6211 81.2344 89.924 80.5304 87.41 79.4754C85.763 78.7794 84.1551 77.9084 82.8301 76.6934C80.7971 74.8734 79.551 72.3634 78.415 69.9264" stroke="#C346FF" stroke-width="2.75" stroke-miterlimit="10" stroke-linecap="round" stroke-linejoin="round"/>
<path d="M151.751 155.6L153.14 158.224C153.884 159.586 154.732 160.919 155.704 162.129C157.303 164.149 160.653 167.361 162.474 169.246C163.804 170.647 165.146 172.11 166.2 173.734C167.243 175.313 168.061 177.395 168.816 179.135C169.671 181.128 170.812 183.011 172.13 184.731C173.642 186.724 175.346 188.611 177.127 190.367C179.202 192.393 181.419 194.333 183.883 195.874C185.594 196.948 187.47 197.789 189.368 198.474C191.286 199.16 193.289 199.806 195.278 200.25C196.641 200.548 198.047 200.775 199.445 200.761C200.58 200.744 201.764 200.566 202.734 199.94C204.025 199.109 204.792 197.693 205.299 196.283C205.672 195.282 205.894 194.104 206.216 193.086C206.523 192.088 207.156 191.113 207.689 190.219C208.243 189.276 208.758 188.276 208.978 187.197C209.139 186.438 209.122 185.649 209.015 184.883C208.74 182.89 207.829 180.688 207.27 178.757C206.733 177.074 206.548 174.879 206.342 173.122C206.184 171.912 205.922 170.701 205.462 169.568C204.688 167.674 203.506 165.958 202.232 164.366C200.797 162.599 199.177 160.947 197.424 159.494C196.014 158.306 194 157.042 192.457 156.011C191.43 155.312 190.424 154.544 189.524 153.687C187.126 151.417 184.511 147.847 182.429 145.243C181.194 143.657 179.504 141.864 178.242 140.295C177.872 139.822 177.512 139.322 177.213 138.801C176.71 137.943 176.429 136.971 176.207 136.007C175.905 134.664 175.558 133.135 175.077 131.852C174.313 129.768 173.309 127.733 172.258 125.78C170.841 123.17 169.19 120.505 167.489 118.07C165.783 115.63 163.897 113.274 161.805 111.154C159.722 109.028 157.37 107.089 154.998 105.293" stroke="#C346FF" stroke-width="2.75" stroke-miterlimit="10" stroke-linecap="round" stroke-linejoin="round"/>
<path d="M178.747 186.572C176.545 183.775 174.24 180.816 172.403 177.784C167.918 170.465 162.632 158.047 158.616 150.378C157.774 148.816 156.872 147.246 155.745 145.873C154.98 144.947 154.083 144.101 153.011 143.542C152.244 143.137 151.404 142.862 150.572 142.625C149.285 142.271 147.692 141.861 146.484 141.335C144.739 140.586 143.135 139.507 141.641 138.343C139.514 136.667 137.556 134.745 135.802 132.683C134.156 130.709 132.492 128.524 132.085 125.92C131.956 125.064 131.991 124.184 132.182 123.34C132.662 121.233 133.881 119.174 134.488 117.107C134.707 116.359 134.859 115.578 134.828 114.796C134.809 114.23 134.677 113.668 134.462 113.144C133.389 110.604 130.992 108.895 129.126 106.971C128.669 106.485 128.31 105.939 128.215 105.264C128.078 104.242 128.212 103.182 128.346 102.166C128.583 100.593 128.96 99.0163 129.578 97.5473C129.97 96.6343 130.469 95.7333 131.224 95.0703C131.613 94.7283 132.068 94.4573 132.562 94.2983C133.055 94.1373 133.582 94.0883 134.098 94.1343C134.917 94.2063 135.698 94.5123 136.421 94.8923C137.532 95.4793 138.561 96.2603 139.548 97.0343C141.411 98.5593 144.037 100.695 145.974 102.075C146.577 102.488 151.759 106.216 152.257 106.484C152.515 106.634 152.786 106.773 153.077 106.847C153.301 106.904 153.543 106.914 153.764 106.84C154.023 106.755 154.241 106.575 154.417 106.37C154.837 105.868 155.058 105.227 155.169 104.589C155.328 103.66 155.209 102.7 154.925 101.806C154.525 100.546 153.831 99.3903 153.01 98.3603C150.186 94.8173 145.865 92.8983 141.589 91.7303C139.567 91.1893 137.469 90.7883 135.379 90.6453C134.461 90.5913 133.519 90.5683 132.617 90.7733C131.27 91.0643 130.2 92.0093 129.229 92.9353C128.123 93.9703 126.744 95.5013 125.456 96.2833C125.184 96.4423 124.891 96.5793 124.578 96.6313C124.236 96.6913 123.885 96.6373 123.559 96.5263C123.08 96.3663 122.471 96.0413 122.009 95.8273C120.91 95.3133 119.733 94.9293 118.554 94.6473C117.598 94.4253 116.612 94.2593 115.628 94.2623C114.924 94.2753 114.133 94.3513 113.568 94.8123C113.112 95.1923 112.975 95.8163 112.977 96.3863C112.998 97.6283 113.43 98.8283 113.858 99.9803C115.511 104.102 117.497 108.18 120.311 111.643C123.732 115.85 127.862 119.508 132.433 122.423" stroke="#C346FF" stroke-width="2.75" stroke-miterlimit="10" stroke-linecap="round" stroke-linejoin="round"/>
<path d="M37.765 163.995C38.981 167.533 39.931 171.231 40.02 174.988C40.133 177.896 39.513 182.97 39.26 185.922C38.94 189.334 38.626 197.263 38.362 200.724C38.019 205.159 37.48 209.687 36.353 213.995C35.145 218.785 32.596 224.285 30.668 228.852C29.91 230.716 29.148 232.652 28.749 234.626C28.499 235.86 28.402 237.134 28.438 238.393C28.458 239.143 28.53 239.954 28.617 240.701C28.927 243.062 29.6 247.755 29.857 250.089C30.321 254.763 31.263 260.824 31.107 265.487C31.045 267.45 30.8 269.445 30.381 271.364C29.949 273.358 29.289 275.413 28.633 277.346C27.338 281.162 25.089 286.835 24.262 290.711C23.972 292.02 23.755 293.371 23.711 294.712C23.665 296.048 23.782 297.396 24.038 298.707C24.545 301.354 25.802 304.349 26.745 306.878C27.008 307.515 27.302 308.155 27.708 308.715C27.918 309.003 28.162 309.272 28.445 309.489C28.758 309.731 29.116 309.913 29.48 310.066C30.615 310.516 31.924 310.859 32.959 311.525C35.211 312.935 37.377 315.373 39.289 317.218C40.762 318.645 42.74 320.318 43.904 321.997C44.624 323.017 45.123 324.186 45.554 325.353C46.254 327.355 47.077 329.77 48.064 331.626C49.572 334.636 51.713 337.967 53.009 341.073C53.401 342.061 53.76 343.102 53.762 344.176C53.762 344.782 53.599 345.369 53.212 345.844C52.693 346.506 51.893 346.982 51.293 347.561C51.113 347.736 50.944 347.929 50.822 348.15C50.507 348.721 50.562 349.403 50.635 350.028C50.782 351.073 50.948 352.115 50.772 353.169C50.487 355.08 49.48 356.993 47.734 357.933C46.445 358.642 44.961 358.896 43.517 359.074C41.143 359.339 38.712 359.386 36.348 359.004C34.84 358.744 33.274 358.293 32.146 357.206C30.881 355.997 30.192 354.254 29.28 352.791C27.937 350.614 26.244 348.652 24.406 346.879C23.531 346.04 22.58 345.224 21.616 344.489C20.327 343.496 18.564 342.346 17.269 341.356C16.6 340.835 15.948 340.259 15.472 339.551C15.025 338.898 14.747 338.143 14.547 337.382C14.332 336.616 13.949 334.614 13.774 333.839C13.393 332.073 12.79 330.341 12.005 328.715C11.073 326.688 9.65904 324.293 9.23104 322.105C8.99704 320.879 9.11404 319.55 9.03304 318.31C8.97204 317.152 8.63203 316.025 8.22603 314.945C7.53203 313.08 6.53902 310.993 6.11202 309.047C5.83202 307.794 5.79203 306.492 5.83403 305.213L5.99404 301.828C6.05204 300.319 5.98201 298.765 5.83101 297.263C5.38501 292.901 4.04303 285.826 3.45203 281.46C2.58003 275.26 2.12902 268.821 2.01602 262.562C1.96702 258.516 2.00702 254.301 2.47302 250.281C2.66902 248.443 3.19603 246.243 3.53403 244.421C3.68603 243.545 3.77702 242.645 3.74402 241.756C3.65702 239.51 3.07102 237.112 3.14102 234.858C3.17902 232.619 4.13502 230.28 4.80402 228.166C5.19902 226.923 5.54404 225.645 5.76604 224.362C6.14804 222.169 6.28802 219.842 6.36702 217.616C6.55102 210.464 6.22103 202.125 7.16603 195.051C7.57503 191.733 8.17703 188.35 9.10103 185.136C9.71303 182.947 10.793 180.084 11.094 177.848C11.257 176.705 11.183 175.536 10.989 174.402C10.782 173.166 10.306 171.131 10.105 169.897C9.88303 168.585 9.72602 167.185 9.62602 165.858C9.00702 156.655 10.109 147.159 13.917 138.694C15.673 134.793 17.898 131.027 20.807 127.87C22.282 126.281 23.988 124.883 25.856 123.78C28.046 122.432 31.283 121.27 33.67 120.295C35.359 119.602 37.042 118.793 38.563 117.779C40.504 116.502 42.922 114.548 44.873 113.289C46.244 112.386 47.729 111.604 49.224 110.929L54.326 108.703C57.114 107.451 59.888 105.929 61.907 103.583C64.822 100.281 66.256 95.9373 66.845 91.6323C67.332 88.1173 67.37 84.4863 67.153 80.9453C67.129 80.3443 67.153 79.7243 67.375 79.1583C67.873 77.9433 68.909 76.9263 69.224 75.6013C69.357 75.0563 69.328 74.4853 69.25 73.9343C69.097 72.8533 68.745 71.7083 68.839 70.6073C69.022 68.6823 70.389 67.0263 70.752 65.1483C71.019 63.8413 70.78 62.4043 70.936 61.0873C71.083 59.8513 71.799 58.7813 72.528 57.8073" stroke="#C346FF" stroke-width="2.75" stroke-miterlimit="10" stroke-linecap="round" stroke-linejoin="round"/>
<path d="M97.5981 314.905C97.6931 325.579 97.3311 336.828 96.4081 347.455C96.0161 352.647 94.804 358.465 94.432 363.655C94.172 367.094 94.826 371.617 95.172 375.064C95.533 378.568 95.3891 382.151 95.0291 385.649C94.7791 388.113 94.254 391.586 94.353 394.027C94.461 397.277 95.132 401.152 95.275 404.399C95.585 409.422 94.645 414.452 93.219 419.252C92.936 420.216 92.084 422.847 91.853 423.746C91.794 423.985 91.735 424.222 91.708 424.466C91.674 424.753 91.692 425.046 91.756 425.328C91.823 425.627 91.932 425.927 92.047 426.211C92.305 426.856 93.779 429.941 94.109 430.645C96.021 434.787 97.711 439.12 98.81 443.553C100.533 450.5 101.1 457.756 100.887 464.899C100.731 470.348 100.16 477.36 100.195 482.8C100.22 488.321 100.62 493.933 101.338 499.406C102.042 504.645 103.031 509.936 104.741 514.949C105.883 518.405 107.789 521.98 109.466 525.208C110.145 526.573 110.79 527.992 111.179 529.469C111.408 530.352 111.542 531.275 111.452 532.187C111.299 533.623 110.68 535.028 110.485 536.458C110.138 538.706 110.622 541.675 110.778 543.945C110.937 545.793 110.918 547.683 110.729 549.528C110.628 550.351 110.273 553.611 110.235 554.45C110.191 555.315 110.194 556.224 110.232 557.089C110.281 558.876 110.661 561.274 110.431 563.06C110.362 563.545 110.243 564.042 109.952 564.444C109.848 564.585 109.72 564.71 109.572 564.805C109.421 564.902 109.253 564.971 109.081 565.021C108.59 565.162 108.064 565.182 107.556 565.209C106.609 565.226 81.852 565.263 80.606 565.213C79.827 565.174 79.012 565.14 78.289 564.817C77.904 564.643 77.5771 564.332 77.4341 563.929C77.3111 563.599 77.293 563.241 77.321 562.893C77.366 562.35 77.516 561.817 77.693 561.304C78.32 559.553 79.333 557.83 80.249 556.21C82.541 552.253 85.17 548.02 86.397 543.6C86.772 542.206 87.2331 540.664 87.0421 539.212C86.9471 538.488 86.635 537.813 86.241 537.205C85.679 536.32 84.895 535.384 84.396 534.462C83.811 533.422 83.602 532.216 83.612 531.033C83.616 529.545 83.917 527.832 84.081 526.348C84.257 524.803 84.3391 523.215 84.2791 521.661C83.9531 512.084 78.755 502.845 74.925 494.266C70.357 484.275 65.856 473.588 62.369 463.179C60.496 457.539 58.88 451.682 58.138 445.777C57.426 440.359 57.576 434.824 58.331 429.419C59.016 424.314 60.357 418.682 60.361 413.514C60.358 412.236 60.2211 410.942 59.9641 409.69C59.5811 407.859 58.93 405.475 58.724 403.589C58.307 400.16 58.297 396.64 58.745 393.213C58.989 391.181 59.598 388.474 59.736 386.43C59.758 385.948 59.738 385.456 59.64 384.983C59.554 384.561 59.4061 384.147 59.2271 383.756L59.192 383.68L59.156 383.603L59.118 383.525C59.049 383.393 58.94 383.171 58.863 383.039L58.767 382.868L58.666 382.692L58.5591 382.51L58.327 382.128L57.483 380.778C56.066 378.448 55.048 375.855 54.126 373.296C52.249 367.987 50.67 362.14 49.259 356.682" stroke="#C346FF" stroke-width="2.75" stroke-miterlimit="10" stroke-linecap="round" stroke-linejoin="round"/>
<path d="M39.543 182.942C40.274 184.668 41.114 186.786 42.087 188.374C43.233 190.337 45.97 193.865 47.323 195.748C48.453 197.374 49.681 199.066 50.342 200.945C50.702 201.968 50.755 203.214 50.846 204.291C50.947 205.496 51.244 206.683 51.676 207.811C53.084 211.473 55.177 215.035 57.151 218.423C57.242 218.586 57.33 218.755 57.374 218.937C57.415 219.101 57.416 219.274 57.403 219.442C57.201 221.107 56.594 222.956 56.094 224.564C55.1 227.589 53.908 230.613 52.343 233.391C51.065 235.68 49.2621 238.442 48.5291 240.955C47.9891 242.734 47.84 244.632 47.753 246.482C47.677 248.555 47.636 251.977 47.397 253.98C47.259 255.249 47.006 256.54 46.68 257.773C45.702 261.518 43.945 265.348 43.521 269.219C43.176 272.135 43.351 275.524 43.144 278.453C43.044 280.008 42.799 281.579 42.42 283.09C41.406 287.093 39.742 291.321 39.208 295.429C38.216 303.228 39.852 311.286 41.142 318.969" stroke="#C346FF" stroke-width="2.75" stroke-miterlimit="10" stroke-linecap="round" stroke-linejoin="round"/>
</svg>
