<svg width="224" height="40" viewBox="0 0 224 40" fill="none" xmlns="http://www.w3.org/2000/svg">
<path d="M49.248 14.68C49.8667 14.68 50.4853 14.7333 51.104 14.84C51.744 14.9467 52.32 15.096 52.832 15.288C53.344 15.48 53.76 15.7147 54.08 15.992C54.4 16.2693 54.56 16.5893 54.56 16.952C54.56 17.8907 54.0267 18.36 52.96 18.36C52.704 18.36 52.4587 18.328 52.224 18.264C52.0107 18.1787 51.7547 18.104 51.456 18.04C51.1573 17.9547 50.784 17.88 50.336 17.816C49.888 17.7307 49.3333 17.688 48.672 17.688C47.264 17.688 46.176 18.168 45.408 19.128C44.64 20.088 44.256 21.336 44.256 22.872C44.256 24.5573 44.64 25.912 45.408 26.936C46.1973 27.96 47.3067 28.472 48.736 28.472C49.632 28.472 50.3573 28.3973 50.912 28.248C51.4667 28.0987 51.9147 27.928 52.256 27.736C52.6187 27.544 52.9067 27.3733 53.12 27.224C53.3547 27.0747 53.6107 27 53.888 27C54.272 27 54.5707 27.0853 54.784 27.256C55.0187 27.4053 55.136 27.7253 55.136 28.216C55.136 28.728 54.9333 29.176 54.528 29.56C54.144 29.944 53.6533 30.264 53.056 30.52C52.4587 30.776 51.808 30.968 51.104 31.096C50.4213 31.224 49.792 31.288 49.216 31.288C46.6347 31.288 44.608 30.5733 43.136 29.144C41.664 27.7147 40.928 25.688 40.928 23.064C40.928 21.9333 41.0987 20.8667 41.44 19.864C41.8027 18.84 42.336 17.944 43.04 17.176C43.744 16.408 44.608 15.8 45.632 15.352C46.6773 14.904 47.8827 14.68 49.248 14.68ZM65.3463 17.848C64.5569 17.848 63.8423 17.9653 63.2023 18.2C62.5836 18.4347 61.8796 18.7547 61.0903 19.16C61.0903 19.1813 61.0903 19.384 61.0903 19.768C61.0903 20.152 61.0796 20.6427 61.0583 21.24C61.0583 21.8373 61.0476 22.5093 61.0263 23.256C61.0263 23.9813 61.0156 24.7173 60.9943 25.464C60.9943 26.1893 60.9729 26.8827 60.9303 27.544C60.9089 28.2053 60.8876 28.76 60.8663 29.208C60.8236 29.656 60.7703 30.008 60.7063 30.264C60.6636 30.52 60.5996 30.712 60.5143 30.84C60.4503 30.9467 60.3543 31.0107 60.2263 31.032C60.0983 31.0533 59.9596 31.064 59.8103 31.064C59.4476 31.064 59.1596 31.0427 58.9463 31C58.7543 30.9787 58.5943 30.9147 58.4663 30.808C58.3383 30.68 58.2423 30.4987 58.1783 30.264C58.1356 30.0293 58.0929 29.7093 58.0503 29.304C58.0076 28.8987 57.9649 28.344 57.9223 27.64C57.9009 26.9147 57.8796 26.1147 57.8583 25.24C57.8369 24.344 57.8156 23.3947 57.7943 22.392C57.7943 21.3893 57.7943 20.3973 57.7943 19.416C57.7943 18.4347 57.7943 17.4 57.7943 16.312C57.8156 15.2027 57.8369 14.1467 57.8583 13.144C57.8796 12.12 57.9009 11.2133 57.9223 10.424C57.9436 9.61333 57.9756 9.016 58.0182 8.632C58.0609 8.07733 58.1569 7.59733 58.3063 7.192C58.4769 6.78667 58.8396 6.584 59.3943 6.584C59.8209 6.584 60.1623 6.73333 60.4183 7.032C60.6956 7.33067 60.8556 7.896 60.8983 8.728C60.9409 9.47467 60.9729 10.52 60.9943 11.864C61.0369 13.1867 61.0689 14.68 61.0903 16.344C61.3889 16.1093 61.7516 15.896 62.1783 15.704C62.6049 15.4907 63.0529 15.32 63.5223 15.192C63.9916 15.0427 64.4716 14.9253 64.9623 14.84C65.4529 14.7547 65.9116 14.712 66.3383 14.712C67.3623 14.712 68.2476 14.9573 68.9943 15.448C69.7623 15.9173 70.3703 16.6 70.8183 17.496C71.1169 18.072 71.3409 18.712 71.4903 19.416C71.6396 20.0987 71.7463 20.824 71.8103 21.592C71.8316 21.9333 71.8529 22.2747 71.8743 22.616C71.8956 22.936 71.9062 23.288 71.9062 23.672C71.9276 24.0347 71.9383 24.4507 71.9383 24.92C71.9383 25.3893 71.9383 25.944 71.9383 26.584C71.9383 27.224 71.9276 27.8213 71.9062 28.376C71.8849 28.9093 71.8209 29.3787 71.7143 29.784C71.6289 30.168 71.4796 30.4773 71.2663 30.712C71.0529 30.9253 70.7543 31.032 70.3703 31.032C69.8156 31.032 69.3996 30.8613 69.1223 30.52C68.8663 30.1573 68.7383 29.7307 68.7383 29.24C68.7383 29.2187 68.7383 28.9947 68.7383 28.568C68.7383 28.1413 68.7276 27.6507 68.7063 27.096C68.7063 26.52 68.6956 25.944 68.6743 25.368C68.6743 24.792 68.6636 24.3227 68.6423 23.96C68.6209 23.6187 68.5889 23.256 68.5463 22.872C68.5249 22.4667 68.4823 22.0613 68.4183 21.656C68.3756 21.2507 68.3116 20.8667 68.2263 20.504C68.1409 20.12 68.0343 19.7787 67.9063 19.48C67.6076 18.776 67.2343 18.328 66.7863 18.136C66.3383 17.944 65.8583 17.848 65.3463 17.848ZM88.7283 31.128C88.3869 31.128 88.1096 31.0747 87.8963 30.968C87.7043 30.84 87.5549 30.68 87.4483 30.488C87.3416 30.296 87.2669 30.072 87.2243 29.816C87.1816 29.5387 87.1496 29.2507 87.1283 28.952C86.5949 29.6133 85.9016 30.168 85.0483 30.616C84.2163 31.064 83.1496 31.288 81.8483 31.288C81.0163 31.288 80.1629 31.1707 79.2883 30.936C78.4349 30.68 77.6563 30.2533 76.9523 29.656C76.2483 29.0373 75.6723 28.216 75.2243 27.192C74.7763 26.168 74.5523 24.8773 74.5523 23.32C74.5523 22.104 74.7016 20.9627 75.0003 19.896C75.2989 18.8293 75.7469 17.9013 76.3443 17.112C76.9629 16.3013 77.7309 15.6613 78.6483 15.192C79.5656 14.7227 80.6429 14.488 81.8802 14.488C82.9683 14.488 83.9389 14.6907 84.7923 15.096C85.6456 15.48 86.4136 16.12 87.0963 17.016C87.0963 16.76 87.1069 16.504 87.1283 16.248C87.1496 15.9707 87.2029 15.7253 87.2883 15.512C87.3949 15.2773 87.5549 15.096 87.7683 14.968C87.9816 14.8187 88.2696 14.744 88.6323 14.744C88.9523 14.744 89.2509 14.872 89.5283 15.128C89.8056 15.384 89.9656 15.9387 90.0083 16.792C90.0723 17.9227 90.1149 18.936 90.1363 19.832C90.1789 20.728 90.2003 21.656 90.2003 22.616C90.2003 23.7893 90.1896 24.8667 90.1683 25.848C90.1469 26.8293 90.0936 27.8747 90.0083 28.984C89.9656 29.4747 89.9016 29.8693 89.8162 30.168C89.7523 30.4453 89.6669 30.6587 89.5603 30.808C89.4536 30.936 89.3256 31.0213 89.1763 31.064C89.0269 31.1067 88.8776 31.128 88.7283 31.128ZM87.0003 23C87.0003 21.8907 86.8296 20.984 86.4883 20.28C86.1683 19.576 85.7523 19.032 85.2403 18.648C84.7496 18.2427 84.2163 17.9653 83.6403 17.816C83.0643 17.6667 82.5309 17.592 82.0403 17.592C81.2723 17.592 80.6109 17.7307 80.0563 18.008C79.5229 18.2853 79.0856 18.6693 78.7443 19.16C78.4029 19.6293 78.1469 20.1947 77.9763 20.856C77.8269 21.496 77.7523 22.2 77.7523 22.968C77.7523 24.8453 78.1576 26.232 78.9683 27.128C79.8003 28.024 80.9203 28.472 82.3283 28.472C83.1603 28.472 83.8643 28.3333 84.4403 28.056C85.0376 27.7573 85.5176 27.3627 85.8803 26.872C86.2643 26.3813 86.5416 25.8053 86.7123 25.144C86.9043 24.4613 87.0003 23.7467 87.0003 23ZM94.176 29.016C94.1333 28.2267 94.0907 27.3307 94.048 26.328C94.0267 25.304 94.016 24.184 94.016 22.968C94.016 21.4533 94.0267 20.1627 94.048 19.096C94.0693 18.008 94.1227 17.1227 94.208 16.44C94.3147 15.736 94.4747 15.224 94.688 14.904C94.9013 14.5627 95.2 14.392 95.584 14.392C95.9467 14.392 96.2667 14.52 96.544 14.776C96.8213 15.032 96.9813 15.5867 97.024 16.44C97.152 18.68 97.216 20.8453 97.216 22.936C97.216 24.0027 97.1947 25.0053 97.152 25.944C97.1093 26.8613 97.0667 27.8747 97.024 28.984C97.0027 29.496 96.9493 29.8907 96.864 30.168C96.8 30.4453 96.704 30.6587 96.576 30.808C96.448 30.9573 96.2987 31.0427 96.128 31.064C95.9787 31.1067 95.7973 31.128 95.584 31.128C95.2 31.128 94.88 31 94.624 30.744C94.368 30.4667 94.2187 29.8907 94.176 29.016ZM95.616 8.6C96.1067 8.6 96.5547 8.792 96.96 9.176C97.3867 9.56 97.6 10.0187 97.6 10.552C97.6 11.064 97.3867 11.512 96.96 11.896C96.5333 12.2587 96.0533 12.44 95.52 12.44C95.072 12.44 94.6453 12.2587 94.24 11.896C93.856 11.512 93.664 11.0427 93.664 10.488C93.664 9.976 93.856 9.53867 94.24 9.176C94.6453 8.792 95.104 8.6 95.616 8.6ZM108.691 17.368C107.901 17.368 107.187 17.496 106.547 17.752C105.928 18.008 105.224 18.392 104.435 18.904C104.435 19.352 104.435 20.0133 104.435 20.888C104.435 21.7413 104.424 22.68 104.403 23.704C104.381 24.7067 104.36 25.6987 104.339 26.68C104.317 27.6613 104.275 28.4827 104.211 29.144C104.168 29.5707 104.115 29.912 104.051 30.168C104.008 30.4027 103.933 30.584 103.827 30.712C103.741 30.84 103.613 30.9253 103.443 30.968C103.293 30.9893 103.091 31 102.835 31C102.579 31 102.365 30.9893 102.195 30.968C102.045 30.9253 101.917 30.8507 101.811 30.744C101.704 30.616 101.619 30.4347 101.555 30.2C101.491 29.9653 101.437 29.6453 101.395 29.24C101.352 28.856 101.309 28.344 101.267 27.704C101.245 27.064 101.224 26.3707 101.203 25.624C101.181 24.856 101.16 24.088 101.139 23.32C101.139 22.5307 101.139 21.8053 101.139 21.144C101.139 20.056 101.149 19.1707 101.171 18.488C101.213 17.8053 101.277 17.1973 101.363 16.664C101.491 15.768 101.661 15.2027 101.875 14.968C102.088 14.7333 102.376 14.616 102.739 14.616C103.272 14.616 103.667 14.7653 103.923 15.064C104.2 15.3627 104.371 15.8533 104.435 16.536C105.224 15.8533 106.067 15.3093 106.963 14.904C107.88 14.4987 108.819 14.296 109.779 14.296C110.696 14.296 111.528 14.5093 112.275 14.936C113.043 15.3627 113.672 16.056 114.163 17.016C114.461 17.592 114.685 18.232 114.835 18.936C114.984 19.6187 115.091 20.344 115.155 21.112C115.176 21.4533 115.197 21.7947 115.219 22.136C115.24 22.456 115.251 22.808 115.251 23.192C115.272 23.5547 115.283 23.9707 115.283 24.44C115.283 24.9093 115.283 25.464 115.283 26.104C115.283 26.7867 115.272 27.4267 115.251 28.024C115.229 28.6213 115.165 29.144 115.059 29.592C114.973 30.0187 114.813 30.36 114.579 30.616C114.344 30.8507 114.024 30.968 113.619 30.968C112.637 30.968 112.125 30.4987 112.083 29.56C112.083 29.496 112.083 29.2293 112.083 28.76C112.083 28.2693 112.072 27.704 112.051 27.064C112.051 26.424 112.04 25.7733 112.019 25.112C112.019 24.4507 112.008 23.9067 111.987 23.48C111.965 23.1387 111.933 22.776 111.891 22.392C111.869 21.9867 111.827 21.5813 111.763 21.176C111.72 20.7707 111.656 20.3867 111.571 20.024C111.485 19.64 111.379 19.2987 111.251 19C110.952 18.296 110.579 17.848 110.131 17.656C109.683 17.464 109.203 17.368 108.691 17.368ZM119.751 18.008C119.517 18.0293 119.282 18.0507 119.047 18.072C118.834 18.072 118.621 18.072 118.407 18.072C117.703 18.072 117.181 17.9653 116.839 17.752C116.477 17.5173 116.295 17.08 116.295 16.44C116.295 15.9493 116.434 15.5653 116.711 15.288C116.967 14.9893 117.49 14.84 118.279 14.84C118.77 14.84 119.271 14.872 119.783 14.936V13.08C119.783 12.2267 119.879 11.416 120.071 10.648C120.263 9.88 120.562 9.208 120.967 8.632C121.373 8.03466 121.895 7.56533 122.535 7.224C123.197 6.86133 123.997 6.68 124.935 6.68C125.789 6.68 126.386 6.808 126.727 7.064C127.069 7.29867 127.239 7.69333 127.239 8.248C127.239 8.80267 127.015 9.144 126.567 9.272C126.119 9.4 125.607 9.464 125.031 9.464C124.327 9.464 123.794 9.77333 123.431 10.392C123.09 11.0107 122.919 11.768 122.919 12.664V14.904C123.197 14.84 123.463 14.808 123.719 14.808C123.997 14.7867 124.285 14.776 124.583 14.776C125.373 14.776 125.927 14.904 126.247 15.16C126.589 15.416 126.759 15.8213 126.759 16.376C126.759 17.08 126.535 17.5387 126.087 17.752C125.639 17.944 125.042 18.04 124.295 18.04C124.103 18.04 123.879 18.04 123.623 18.04C123.389 18.04 123.154 18.0187 122.919 17.976V28.984C122.919 29.496 122.877 29.8907 122.791 30.168C122.706 30.4453 122.589 30.6587 122.439 30.808C122.29 30.9573 122.119 31.0427 121.927 31.064C121.735 31.1067 121.533 31.128 121.319 31.128C121.127 31.128 120.935 31.096 120.743 31.032C120.551 30.9893 120.381 30.8933 120.231 30.744C120.103 30.5733 119.986 30.3493 119.879 30.072C119.794 29.7947 119.751 29.4427 119.751 29.016V18.008ZM135.813 25.112C135.066 25.112 134.277 25.0587 133.445 24.952C132.634 24.824 131.749 24.568 130.789 24.184C130.981 25.4853 131.514 26.4667 132.389 27.128C133.285 27.7893 134.565 28.12 136.229 28.12C136.826 28.12 137.359 28.088 137.829 28.024C138.319 27.9387 138.746 27.8533 139.109 27.768C139.471 27.6613 139.791 27.576 140.069 27.512C140.346 27.4267 140.602 27.384 140.837 27.384C141.135 27.384 141.423 27.48 141.701 27.672C141.978 27.8427 142.117 28.1413 142.117 28.568C142.117 29.1013 141.893 29.5387 141.445 29.88C141.018 30.2213 140.485 30.4987 139.845 30.712C139.226 30.904 138.565 31.032 137.861 31.096C137.157 31.1813 136.538 31.224 136.005 31.224C134.746 31.224 133.583 31.0533 132.517 30.712C131.471 30.3707 130.565 29.8587 129.797 29.176C129.029 28.472 128.431 27.608 128.005 26.584C127.578 25.56 127.365 24.3653 127.365 23C127.365 21.6773 127.567 20.504 127.973 19.48C128.399 18.456 128.975 17.592 129.701 16.888C130.426 16.184 131.279 15.6507 132.261 15.288C133.263 14.9253 134.341 14.744 135.493 14.744C136.389 14.744 137.253 14.8613 138.085 15.096C138.938 15.3307 139.685 15.6827 140.325 16.152C140.986 16.6213 141.509 17.2187 141.893 17.944C142.298 18.648 142.501 19.48 142.501 20.44C142.501 21.2933 142.341 22.0187 142.021 22.616C141.701 23.2133 141.242 23.6933 140.645 24.056C140.069 24.4187 139.365 24.6853 138.533 24.856C137.722 25.0267 136.815 25.112 135.813 25.112ZM135.589 17.688C135.013 17.688 134.458 17.7627 133.925 17.912C133.391 18.04 132.901 18.264 132.453 18.584C132.026 18.8827 131.663 19.288 131.365 19.8C131.066 20.2907 130.863 20.9093 130.757 21.656C131.567 22.0187 132.357 22.2747 133.125 22.424C133.893 22.552 134.703 22.616 135.557 22.616C136.815 22.616 137.743 22.4667 138.341 22.168C138.959 21.848 139.269 21.2827 139.269 20.472C139.269 19.7253 138.981 19.0747 138.405 18.52C137.85 17.9653 136.911 17.688 135.589 17.688ZM145.706 29.048C145.62 28.3013 145.567 27.3947 145.546 26.328C145.524 25.2613 145.514 23.9707 145.514 22.456C145.514 20.9627 145.514 19.7573 145.514 18.84C145.535 17.9227 145.599 17.112 145.706 16.408C145.812 15.5333 145.972 14.968 146.186 14.712C146.42 14.456 146.719 14.328 147.082 14.328C147.338 14.328 147.562 14.3493 147.754 14.392C147.967 14.4347 148.148 14.5307 148.298 14.68C148.468 14.808 148.596 15 148.682 15.256C148.767 15.512 148.81 15.864 148.81 16.312C148.81 16.3973 148.82 16.4827 148.842 16.568C148.842 16.6533 148.842 16.7493 148.842 16.856C148.863 16.9413 148.874 17.048 148.874 17.176C149.45 16.4507 150.1 15.832 150.826 15.32C151.572 14.808 152.415 14.552 153.354 14.552C154.612 14.552 155.242 15.0747 155.242 16.12C155.242 16.504 155.156 16.824 154.986 17.08C154.836 17.336 154.612 17.5493 154.314 17.72C154.036 17.8693 153.706 17.9867 153.322 18.072C152.959 18.1573 152.554 18.2427 152.106 18.328C151.423 18.456 150.783 18.7013 150.186 19.064C149.588 19.4053 149.183 19.8427 148.97 20.376C148.97 20.7813 148.97 21.08 148.97 21.272C148.991 21.464 149.002 21.624 149.002 21.752C149.023 21.88 149.034 22.0187 149.034 22.168C149.034 22.3173 149.034 22.552 149.034 22.872C149.034 23.96 149.012 24.984 148.97 25.944C148.927 26.8827 148.884 27.9067 148.842 29.016C148.82 29.528 148.756 29.9227 148.65 30.2C148.564 30.4773 148.447 30.6907 148.298 30.84C148.17 30.9893 148.02 31.0747 147.85 31.096C147.679 31.1387 147.508 31.16 147.338 31.16C146.74 31.16 146.335 31.032 146.122 30.776C145.93 30.4987 145.791 29.9227 145.706 29.048ZM165 25.112C164.254 25.112 163.464 25.0587 162.632 24.952C161.822 24.824 160.936 24.568 159.976 24.184C160.168 25.4853 160.702 26.4667 161.576 27.128C162.472 27.7893 163.752 28.12 165.416 28.12C166.014 28.12 166.547 28.088 167.016 28.024C167.507 27.9387 167.934 27.8533 168.296 27.768C168.659 27.6613 168.979 27.576 169.256 27.512C169.534 27.4267 169.79 27.384 170.024 27.384C170.323 27.384 170.611 27.48 170.888 27.672C171.166 27.8427 171.304 28.1413 171.304 28.568C171.304 29.1013 171.08 29.5387 170.632 29.88C170.206 30.2213 169.672 30.4987 169.032 30.712C168.414 30.904 167.752 31.032 167.048 31.096C166.344 31.1813 165.726 31.224 165.192 31.224C163.934 31.224 162.771 31.0533 161.704 30.712C160.659 30.3707 159.752 29.8587 158.984 29.176C158.216 28.472 157.619 27.608 157.192 26.584C156.766 25.56 156.552 24.3653 156.552 23C156.552 21.6773 156.755 20.504 157.16 19.48C157.587 18.456 158.163 17.592 158.888 16.888C159.614 16.184 160.467 15.6507 161.448 15.288C162.451 14.9253 163.528 14.744 164.68 14.744C165.576 14.744 166.44 14.8613 167.272 15.096C168.126 15.3307 168.872 15.6827 169.512 16.152C170.174 16.6213 170.696 17.2187 171.08 17.944C171.486 18.648 171.688 19.48 171.688 20.44C171.688 21.2933 171.528 22.0187 171.208 22.616C170.888 23.2133 170.43 23.6933 169.832 24.056C169.256 24.4187 168.552 24.6853 167.72 24.856C166.91 25.0267 166.003 25.112 165 25.112ZM164.776 17.688C164.2 17.688 163.646 17.7627 163.112 17.912C162.579 18.04 162.088 18.264 161.64 18.584C161.214 18.8827 160.851 19.288 160.552 19.8C160.254 20.2907 160.051 20.9093 159.944 21.656C160.755 22.0187 161.544 22.2747 162.312 22.424C163.08 22.552 163.891 22.616 164.744 22.616C166.003 22.616 166.931 22.4667 167.528 22.168C168.147 21.848 168.456 21.2827 168.456 20.472C168.456 19.7253 168.168 19.0747 167.592 18.52C167.038 17.9653 166.099 17.688 164.776 17.688ZM182.253 17.368C181.464 17.368 180.749 17.496 180.109 17.752C179.491 18.008 178.787 18.392 177.997 18.904C177.997 19.352 177.997 20.0133 177.997 20.888C177.997 21.7413 177.987 22.68 177.965 23.704C177.944 24.7067 177.923 25.6987 177.901 26.68C177.88 27.6613 177.837 28.4827 177.773 29.144C177.731 29.5707 177.677 29.912 177.613 30.168C177.571 30.4027 177.496 30.584 177.389 30.712C177.304 30.84 177.176 30.9253 177.005 30.968C176.856 30.9893 176.653 31 176.397 31C176.141 31 175.928 30.9893 175.757 30.968C175.608 30.9253 175.48 30.8507 175.373 30.744C175.267 30.616 175.181 30.4347 175.117 30.2C175.053 29.9653 175 29.6453 174.957 29.24C174.915 28.856 174.872 28.344 174.829 27.704C174.808 27.064 174.787 26.3707 174.765 25.624C174.744 24.856 174.723 24.088 174.701 23.32C174.701 22.5307 174.701 21.8053 174.701 21.144C174.701 20.056 174.712 19.1707 174.733 18.488C174.776 17.8053 174.84 17.1973 174.925 16.664C175.053 15.768 175.224 15.2027 175.437 14.968C175.651 14.7333 175.939 14.616 176.301 14.616C176.835 14.616 177.229 14.7653 177.485 15.064C177.763 15.3627 177.933 15.8533 177.997 16.536C178.787 15.8533 179.629 15.3093 180.525 14.904C181.443 14.4987 182.381 14.296 183.341 14.296C184.259 14.296 185.091 14.5093 185.837 14.936C186.605 15.3627 187.235 16.056 187.725 17.016C188.024 17.592 188.248 18.232 188.397 18.936C188.547 19.6187 188.653 20.344 188.717 21.112C188.739 21.4533 188.76 21.7947 188.781 22.136C188.803 22.456 188.813 22.808 188.813 23.192C188.835 23.5547 188.845 23.9707 188.845 24.44C188.845 24.9093 188.845 25.464 188.845 26.104C188.845 26.7867 188.835 27.4267 188.813 28.024C188.792 28.6213 188.728 29.144 188.621 29.592C188.536 30.0187 188.376 30.36 188.141 30.616C187.907 30.8507 187.587 30.968 187.181 30.968C186.2 30.968 185.688 30.4987 185.645 29.56C185.645 29.496 185.645 29.2293 185.645 28.76C185.645 28.2693 185.635 27.704 185.613 27.064C185.613 26.424 185.603 25.7733 185.581 25.112C185.581 24.4507 185.571 23.9067 185.549 23.48C185.528 23.1387 185.496 22.776 185.453 22.392C185.432 21.9867 185.389 21.5813 185.325 21.176C185.283 20.7707 185.219 20.3867 185.133 20.024C185.048 19.64 184.941 19.2987 184.813 19C184.515 18.296 184.141 17.848 183.693 17.656C183.245 17.464 182.765 17.368 182.253 17.368ZM199.842 14.68C200.46 14.68 201.079 14.7333 201.698 14.84C202.338 14.9467 202.914 15.096 203.426 15.288C203.938 15.48 204.354 15.7147 204.674 15.992C204.994 16.2693 205.154 16.5893 205.154 16.952C205.154 17.8907 204.62 18.36 203.554 18.36C203.298 18.36 203.052 18.328 202.818 18.264C202.604 18.1787 202.348 18.104 202.05 18.04C201.751 17.9547 201.378 17.88 200.93 17.816C200.482 17.7307 199.927 17.688 199.266 17.688C197.858 17.688 196.77 18.168 196.002 19.128C195.234 20.088 194.85 21.336 194.85 22.872C194.85 24.5573 195.234 25.912 196.002 26.936C196.791 27.96 197.9 28.472 199.33 28.472C200.226 28.472 200.951 28.3973 201.506 28.248C202.06 28.0987 202.508 27.928 202.85 27.736C203.212 27.544 203.5 27.3733 203.714 27.224C203.948 27.0747 204.204 27 204.482 27C204.866 27 205.164 27.0853 205.378 27.256C205.612 27.4053 205.73 27.7253 205.73 28.216C205.73 28.728 205.527 29.176 205.122 29.56C204.738 29.944 204.247 30.264 203.65 30.52C203.052 30.776 202.402 30.968 201.698 31.096C201.015 31.224 200.386 31.288 199.81 31.288C197.228 31.288 195.202 30.5733 193.73 29.144C192.258 27.7147 191.522 25.688 191.522 23.064C191.522 21.9333 191.692 20.8667 192.034 19.864C192.396 18.84 192.93 17.944 193.634 17.176C194.338 16.408 195.202 15.8 196.226 15.352C197.271 14.904 198.476 14.68 199.842 14.68ZM215.844 25.112C215.097 25.112 214.308 25.0587 213.476 24.952C212.665 24.824 211.78 24.568 210.82 24.184C211.012 25.4853 211.545 26.4667 212.42 27.128C213.316 27.7893 214.596 28.12 216.26 28.12C216.857 28.12 217.391 28.088 217.86 28.024C218.351 27.9387 218.777 27.8533 219.14 27.768C219.503 27.6613 219.823 27.576 220.1 27.512C220.377 27.4267 220.633 27.384 220.868 27.384C221.167 27.384 221.455 27.48 221.732 27.672C222.009 27.8427 222.148 28.1413 222.148 28.568C222.148 29.1013 221.924 29.5387 221.476 29.88C221.049 30.2213 220.516 30.4987 219.876 30.712C219.257 30.904 218.596 31.032 217.892 31.096C217.188 31.1813 216.569 31.224 216.036 31.224C214.777 31.224 213.615 31.0533 212.548 30.712C211.503 30.3707 210.596 29.8587 209.828 29.176C209.06 28.472 208.463 27.608 208.036 26.584C207.609 25.56 207.396 24.3653 207.396 23C207.396 21.6773 207.599 20.504 208.004 19.48C208.431 18.456 209.007 17.592 209.732 16.888C210.457 16.184 211.311 15.6507 212.292 15.288C213.295 14.9253 214.372 14.744 215.524 14.744C216.42 14.744 217.284 14.8613 218.116 15.096C218.969 15.3307 219.716 15.6827 220.356 16.152C221.017 16.6213 221.54 17.2187 221.924 17.944C222.329 18.648 222.532 19.48 222.532 20.44C222.532 21.2933 222.372 22.0187 222.052 22.616C221.732 23.2133 221.273 23.6933 220.676 24.056C220.1 24.4187 219.396 24.6853 218.564 24.856C217.753 25.0267 216.847 25.112 215.844 25.112ZM215.62 17.688C215.044 17.688 214.489 17.7627 213.956 17.912C213.423 18.04 212.932 18.264 212.484 18.584C212.057 18.8827 211.695 19.288 211.396 19.8C211.097 20.2907 210.895 20.9093 210.788 21.656C211.599 22.0187 212.388 22.2747 213.156 22.424C213.924 22.552 214.735 22.616 215.588 22.616C216.847 22.616 217.775 22.4667 218.372 22.168C218.991 21.848 219.3 21.2827 219.3 20.472C219.3 19.7253 219.012 19.0747 218.436 18.52C217.881 17.9653 216.943 17.688 215.62 17.688Z" fill="white"/>
<path d="M25.9809 15.0183L25.9747 15.0135L25.9684 15.0089C24.4334 13.8679 22.878 12.8417 21.3018 11.9317C19.4995 10.8912 17.7132 10.0107 15.9429 9.29323L15.934 9.28961L15.925 9.28609C14.1466 8.59189 12.4454 8.13916 10.8274 7.95006L10.8124 7.94831L10.7974 7.94686C9.16221 7.78903 7.62129 7.94356 6.20415 8.45333L6.18457 8.46038L6.16519 8.46796C4.65187 9.06024 3.47506 10.1353 2.63281 11.5941C1.83908 12.9689 1.46065 14.4276 1.5728 15.9399L1.57339 15.9478L1.57406 15.9558C1.6989 17.4269 2.20281 18.8354 3.03674 20.1707C3.85195 21.5082 4.9674 22.7644 6.34866 23.9473C7.73868 25.1558 9.34615 26.2823 11.1624 27.3309C12.0499 27.8433 13.032 28.3876 14.1077 28.9634C15.2122 29.5771 16.363 30.1357 17.5596 30.6395C18.7723 31.1501 19.9805 31.5624 21.184 31.874C22.4638 32.2134 23.7186 32.3673 24.9419 32.3181C26.2159 32.2669 27.4194 31.9466 28.5341 31.3551C29.7363 30.7294 30.6853 29.7364 31.4111 28.4793C32.3563 26.8421 32.6809 25.1023 32.2656 23.3313L32.2639 23.3242L32.2622 23.3172C31.875 21.7353 31.0956 20.2449 29.9757 18.847C28.8816 17.4813 27.5454 16.2067 25.9809 15.0183Z" stroke="currentColor" stroke-width="3"/>
<path d="M18.7422 30.166L18.7484 30.1612L18.7545 30.1564C20.254 28.9691 21.6477 27.7322 22.9346 26.4452C24.4062 24.9737 25.7191 23.4761 26.8702 21.9519L26.876 21.9442L26.8818 21.9364C28.0126 20.3983 28.8902 18.8722 29.4916 17.3583L29.4972 17.3442L29.5025 17.3301C30.0781 15.7915 30.3277 14.2631 30.2021 12.7623L30.2003 12.7416L30.198 12.7209C30.0176 11.1058 29.2837 9.69088 28.0926 8.49976C26.9701 7.37725 25.6591 6.63419 24.1693 6.35111L24.1615 6.34962L24.1537 6.34822C22.7003 6.08804 21.2094 6.21024 19.7038 6.67016C18.2008 7.1114 16.6987 7.86372 15.1987 8.89176C13.6715 9.92162 12.1674 11.1828 10.6844 12.6657C9.95978 13.3904 9.17993 14.1981 8.34525 15.0881C7.46662 15.9962 6.62921 16.9632 5.83283 17.9887C5.02581 19.0278 4.31486 20.0882 3.7024 21.17C3.0433 22.3184 2.56994 23.4906 2.30082 24.685C2.02054 25.9288 2.01838 27.1742 2.30127 28.4039C2.5945 29.7271 3.30803 30.9008 4.33445 31.9272C5.67119 33.2639 7.26771 34.0278 9.08586 34.085L9.09313 34.0852L9.1004 34.0854C10.7286 34.1208 12.3699 33.7537 14.0101 33.0338C15.6123 32.3305 17.1894 31.3696 18.7422 30.166Z" stroke="currentColor" stroke-width="3"/>
</svg>
